<?xml version="1.0" encoding="UTF-8" standalone="no"?>
<!-- Created with Inkscape (http://www.inkscape.org/) -->

<svg
   xmlns:dc="http://purl.org/dc/elements/1.1/"
   xmlns:cc="http://creativecommons.org/ns#"
   xmlns:rdf="http://www.w3.org/1999/02/22-rdf-syntax-ns#"
   xmlns:svg="http://www.w3.org/2000/svg"
   xmlns="http://www.w3.org/2000/svg"
   xmlns:sodipodi="http://sodipodi.sourceforge.net/DTD/sodipodi-0.dtd"
   xmlns:inkscape="http://www.inkscape.org/namespaces/inkscape"
   version="1.1"
   width="100%"
   height="100%"
   viewBox="0 0 1200 650"
   id="grand1-floor1"
   xml:space="preserve"
   inkscape:version="0.92.1 r15371"
   sodipodi:docname="grand1-floor1.svg"><defs
     id="defs3145" /><sodipodi:namedview
     pagecolor="#ffffff"
     bordercolor="#666666"
     borderopacity="1"
     objecttolerance="10"
     gridtolerance="10"
     guidetolerance="10"
     inkscape:pageopacity="0"
     inkscape:pageshadow="2"
     inkscape:window-width="1920"
     inkscape:window-height="1017"
     id="namedview3143"
     showgrid="false"
     inkscape:zoom="1.767767"
     inkscape:cx="228.04859"
     inkscape:cy="376.64933"
     inkscape:window-x="-8"
     inkscape:window-y="-8"
     inkscape:window-maximized="1"
     inkscape:current-layer="grand1-floor1" /><metadata
     id="metadata3315"><rdf:RDF><cc:Work
         rdf:about=""><dc:format>image/svg+xml</dc:format><dc:type
           rdf:resource="http://purl.org/dc/dcmitype/StillImage" /><dc:title /></cc:Work></rdf:RDF></metadata><path
     style="fill:#cce6d2"
     d="M 565.67574,180.50711 545.2,203.5 l 22,15.3 18.01716,-24.74437"
     id="path4595"
     data-podium="100"
     inkscape:connector-curvature="0" /><path
     style="fill:#cce6d2"
     d="m 565.3,178.8 -7.3,-4.5 v 0 l 11.5,-11 h -11.8 l -18.3,20.3 13.77574,9.11716"
     id="polygon3161"
     data-podium="95"
     inkscape:connector-curvature="0" /><path
     d="m 544.1,204.3 c 7.4,5.2 14.8,10.4 22.2,15.7 -4.4,6.2 -8.7,12.5 -13.2,18.9 -7.4,-5.5 -14.8,-11 -22.1,-16.4 4.4,-6.1 8.8,-12.2 13.1,-18.2 l 0,0 z"
     id="path3163"
     style="fill:#cce6d2"
     data-podium="89" /><path
     d="m 530.3,223.8 c 7.3,5.5 14.7,10.9 22.1,16.5 -4.5,6.4 -9.1,12.9 -13.7,19.4 -7.4,-5.6 -14.9,-11.1 -22.2,-16.6 4.6,-6.5 9.2,-12.9 13.8,-19.3 l 0,0 z"
     id="path3165"
     style="fill:#cce6d2"
     data-podium="90" /><path
     d="m 515.9,244.3 c 7.3,5.5 14.7,11 22.2,16.5 -3.2,4.6 -6.4,9.3 -9.6,14 -7.5,-5.7 -14.9,-11.3 -22.2,-17 3.1,-4.5 6.4,-9.1 9.6,-13.5 l 0,0 z"
     id="path3167"
     style="fill:#cce6d2"
     data-podium="91" /><path
     d="m 505.6,258.6 c 7.4,5.6 14.8,11.3 22.2,17 -3.3,4.7 -6.6,9.5 -9.9,14.2 -7.5,-5.7 -15.1,-11.4 -22.5,-17 3.4,-4.7 6.8,-9.5 10.2,-14.2 l 0,0 z"
     id="path3169"
     style="fill:#cce6d2"
     data-podium="92" /><path
     d="m 484.4,318.7 c 5.4,-7.6 10.8,-15.1 16.1,-22.6 2.8,1.9 5.5,3.7 8.3,5.6 2.7,-3.9 5.3,-7.7 8,-11.5 -7.3,-5.5 -14.6,-11 -21.8,-16.5 -8,11.4 -16.1,22.9 -24.3,34.5 4.5,3.6 9.1,7 13.7,10.5 l 0,0 z"
     id="path3171"
     style="fill:#cce6d2"
     data-podium="93" /><path
     d="m 449,337.3 23.4,18.2 c 0,0 0.2,-0.7 -9.4,13 -8.6,0 -17.2,-0.1 -25.7,-0.1 0.4,-5.5 0.8,-10.9 1.2,-16.3 4.8,-6.1 10.5,-14.8 10.5,-14.8 z"
     id="path3173"
     style="fill:#cce6d2"
     data-podium="96"
     inkscape:connector-curvature="0"
     sodipodi:nodetypes="cccccc" /><path
     d="M 362.1201,387.6 359.86152,409.67574 392.3,410.2 l 1.9,-22.6 z"
     id="path3175"
     style="fill:#ead295"
     data-podium="07"
     inkscape:connector-curvature="0"
     sodipodi:nodetypes="ccccc" /><path
     d="m 360.36152,387.6 c -0.8,7.7 -1.41715,15.25858 -2.21715,23.05858 -6.6,0 -11.54437,0.0414 -18.14437,0.0414 0.4,-3.7 0.9,-7.4 1.3,-11 -6.2,0 -12.4,-0.1 -18.6,-0.1 -0.5,3.7 -0.9,7.4 -1.4,11.1 l -3.36262,-0.42426 2.15147,-22.87574 c 0,0 25.17267,0.1 40.27267,0.2 z"
     id="path3177"
     style="fill:#ead295"
     data-podium="06"
     inkscape:connector-curvature="0"
     sodipodi:nodetypes="ccccccccc" /><path
     d="m 244.5,387.6 -2.9,21.2 -28,0 3.2,-21.2 z"
     id="path3185"
     style="fill:#ead295"
     data-podium="03"
     inkscape:connector-curvature="0"
     sodipodi:nodetypes="ccccc" /><path
     d="m 202.3,314.5 16.3,0.1 -10.6,58.3 -47.7,-0.2 40.3,-49.1 c 0,0 1.1,-6.1 1.7,-9.1 l 0,0 z"
     id="path3187"
     style="fill:#ead295"
     data-podium="02" /><path
     d="m 216.18787,380.83928 39.89792,-0.3867 2.81213,-20.53928 L 218.7,359.6 Z"
     id="path3189"
     style="fill:#ead295"
     data-podium="12"
     inkscape:connector-curvature="0"
     sodipodi:nodetypes="ccccc" /><path
     d="m 301.63223,353.9326 -24.05857,0.1707 2.24142,-21.40721 24,0.4293 z"
     id="path3191"
     style="fill:#ead295"
     data-podium="11"
     inkscape:connector-curvature="0"
     sodipodi:nodetypes="ccccc" /><path
     d="m 298.02807,381.62592 -35.50294,0.0133 2.7071,-21.61935 35.54645,0.26959 z"
     id="path3193"
     style="fill:#ead295"
     data-podium="10"
     inkscape:connector-curvature="0"
     sodipodi:nodetypes="ccccc" /><path
     d="m 339.02807,381.87782 -34.89792,0.0442 2.01213,-21.33651 34.69792,-0.0442 z"
     id="path3195"
     style="fill:#ead295"
     data-podium="09"
     inkscape:connector-curvature="0"
     sodipodi:nodetypes="ccccc" /><path
     d="m 345.21888,360.55457 43.60036,-0.0265 4.92929,21.16857 -50.20036,0.0265 z"
     id="path3197"
     style="fill:#ead295"
     data-podium="08"
     inkscape:connector-curvature="0"
     sodipodi:nodetypes="ccccc" /><path
     d="m 346.95275,355.85415 39.74222,0.0893 -5.42935,-22.47108 -33.22885,-0.0893 z"
     id="path3199"
     style="fill:#ead295"
     data-podium="16"
     inkscape:connector-curvature="0"
     sodipodi:nodetypes="ccccc" /><path
     d="m 341.38505,355.57131 -33.94396,0.0334 2.12993,-22.68321 33.64789,-0.0334 -1.83386,22.6832 z"
     id="path3201"
     style="fill:#ead295"
     data-podium="15"
     inkscape:connector-curvature="0"
     sodipodi:nodetypes="cccccc" /><path
     d="m 275.92453,354.08316 -9.02953,-0.23735 2.44599,-20.80652 8.57861,0.0252 z"
     id="path3203"
     style="fill:#ead295"
     data-podium="14"
     inkscape:connector-curvature="0"
     sodipodi:nodetypes="ccccc" /><path
     d="m 305.22212,325.17166 -23.40957,-0.37218 1.52812,-11.00664 23.09874,0.0186 z"
     id="path3205"
     style="fill:#ead295"
     data-podium="13"
     inkscape:connector-curvature="0"
     sodipodi:nodetypes="ccccc" /><path
     d="m 220.82929,353.80127 19.25115,0.4894 2.91913,-21.12914 -18.98308,-0.4186 z"
     id="path3207"
     style="fill:#ead295"
     data-podium="99"
     inkscape:connector-curvature="0"
     sodipodi:nodetypes="ccccc" /><path
     d="m 225.9,323.71925 39.14796,0.46542 3.22428,-23.47784 L 229.5136,300.4 Z"
     id="path3209"
     style="fill:#ead295"
     data-podium="98"
     inkscape:connector-curvature="0"
     sodipodi:nodetypes="ccccc" /><path
     d="m 307.00348,311.90879 -23.42559,-0.0361 1.26571,-11.10196 23.09201,-0.13459 z"
     id="path3211"
     style="fill:#ead295"
     data-podium="20"
     inkscape:connector-curvature="0"
     sodipodi:nodetypes="ccccc" /><path
     d="m 280.58479,324.5862 -9.40253,-0.1067 2.23496,-23.47267 9.63245,0.10669 z"
     id="path3213"
     style="fill:#ead295"
     data-podium="19"
     inkscape:connector-curvature="0"
     sodipodi:nodetypes="ccccc" /><path
     d="m 345.66306,324.7 -33.29674,0 1.26324,-23.62609 33.39879,0 z"
     id="path3215"
     style="fill:#ead295"
     data-podium="18"
     inkscape:connector-curvature="0"
     sodipodi:nodetypes="ccccc" /><path
     d="m 351.03088,300.88451 16.68541,0.24812 8.78371,23.26054 -26.58517,-0.0899 z"
     id="path3217"
     style="fill:#ead295"
     data-podium="17"
     inkscape:connector-curvature="0"
     sodipodi:nodetypes="ccccc" /><path
     d="m 335.70304,269.33981 23.82375,0 L 364.8,291.2 l -30.30934,0 z"
     id="path3219"
     style="fill:#ead295"
     data-podium="25"
     inkscape:connector-curvature="0"
     sodipodi:nodetypes="ccccc" /><path
     d="m 332.80337,291.09336 -23.23476,-0.10663 2.59157,-21.96682 21.71557,0.10663 -1.07238,21.96682 z"
     id="path3221"
     style="fill:#ead295"
     data-podium="24"
     inkscape:connector-curvature="0"
     sodipodi:nodetypes="cccccc" /><path
     d="m 304.8131,290.88009 -11.16145,-0.14142 2.64753,-21.68512 10.77059,-0.14142 z"
     id="path3223"
     style="fill:#ead295"
     data-podium="23"
     inkscape:connector-curvature="0"
     sodipodi:nodetypes="ccccc" /><path
     d="m 293.85057,279.77851 -18.71968,-0.10663 1.38558,-10.97188 18.71968,0.21213 z"
     id="path3225"
     style="fill:#ead295"
     data-podium="22"
     inkscape:connector-curvature="0"
     sodipodi:nodetypes="ccccc" /><path
     d="m 240.6524,290.44692 2.83839,-21.64692 -13.1843,0.007 L 227,290.45355 Z"
     id="path3227"
     style="fill:#ead295"
     data-podium="21"
     inkscape:connector-curvature="0"
     sodipodi:nodetypes="ccccc" /><path
     d="m 274.48475,260.2259 -41.98475,0.20175 3.08827,-22.39842 41.81319,-0.20173 -2.91671,22.3984 z"
     id="path3229"
     style="fill:#ead295"
     data-podium="32"
     inkscape:connector-curvature="0"
     sodipodi:nodetypes="cccccc" /><path
     d="m 308.83991,260.33624 -30.01582,0.20173 2.65935,-22.61907 29.84425,-0.20174 -2.48778,22.61908 z"
     id="path3233"
     style="fill:#ead295"
     data-podium="30"
     inkscape:connector-curvature="0"
     sodipodi:nodetypes="cccccc" /><path
     d="m 316.70194,238.00247 30.32151,0.46811 L 353.2,261.2 l -38.55691,-0.57845 2.05885,-22.61908 z"
     id="path3237"
     style="fill:#ead295"
     data-podium="28"
     inkscape:connector-curvature="0"
     sodipodi:nodetypes="cccccc" /><path
     d="m 404.81299,283.08005 c -8.6,3.5 -20.59411,9.00919 -29.29411,12.50919 -2.8,-7.2 -5.67071,-14.89497 -8.37071,-21.99497 8.3,-3.4 18.69203,-7.81924 26.89203,-11.31924 3.69319,7.20777 8.08791,14.90733 10.77279,20.80502 z"
     id="path3239"
     style="fill:#01529d"
     data-podium="27"
     inkscape:connector-curvature="0"
     sodipodi:nodetypes="ccccc" /><path
     d="m 522.3,156.3 9.5,7.1 c 0,0 -7.2,9.8 -10.8,14.7 -1.7,2.3 -5.8,2.8 -8.3,1 -4.6,-3.4 -4.7,-3.9 -4.7,-3.9 l 14.3,-18.9 0,0 z"
     id="path3241"
     style="fill:#cce6d2"
     data-podium="66" /><path
     d="m 511.4,148.2 0,0 10.3,7.4 -14.5,19 -10.3,-7.1 z"
     id="polygon3243"
     style="fill:#cce6d2"
     data-podium="65" /><path
     d="m 489.3,132.9 v 0 l 20.1,14.8 -13.63137,19.12825 L 474.7,151.8 Z"
     id="polygon3247"
     style="fill:#cce6d2"
     data-podium="63"
     inkscape:connector-curvature="0"
     sodipodi:nodetypes="cccccc" /><path
     d="m 420,124.7 0,0 25.8,0.1 -2.5,34.9 -26.5,-0.1 z"
     id="polygon3251"
     style="fill:#cce6d2"
     data-podium="60" /><path
     d="m 381.6,124.6 c -0.6,5.3 -1.2,10.5 -1.8,15.8 h -11.1 c -0.7,6.3 -1.5,12.6 -2.2,19 7.2,0 41.31148,-0.42426 48.51148,-0.32426 1.3,-11.8 2.21716,-22.97574 3.41716,-34.47574 H 381.6 Z"
     id="path3253"
     style="fill:#cce6d2"
     data-podium="58"
     inkscape:connector-curvature="0"
     sodipodi:nodetypes="cccccccc" /><path
     style="fill:#198ccc"
     d="m 337.63132,192.68531 c 0,0 -3.06416,-8.03592 -5.61416,-14.33592 -0.2,-0.7 -0.5,-1.5 0.1,-2.8 0.6,-1.3 1.2,-1.7 1.7,-2.2 4.7,-2.3 9.3,-4.7 14,-7 0.6,-0.2 1.2,-0.3 2.1,-0.2 1.7,0.3 1.9,0.7 2.2,1.1 v 0 c 2.7,6.45 5.47593,14.75908 5.47593,14.75908 z"
     id="path3139"
     data-podium="82"
     inkscape:connector-curvature="0"
     sodipodi:nodetypes="ccsccccccc" /><path
     style="fill:#198ccc"
     d="m 358.482,183.98022 c 2.7125,6.55 7.75084,17.26267 10.50084,23.91267 0.6,1.5 -0.2,3.1 -2.1,4 -4.8,2.4 -9.6,4.7 -14.4,7.1 -1.6,0.8 -3.6,0.3 -4.2,-1 -2.65,-6.45 -7.29619,-17.31904 -9.92119,-23.70654 z"
     id="path3259"
     inkscape:connector-curvature="0"
     sodipodi:nodetypes="cccsccc"
     data-podium="42" /><path
     d="m 337.20052,160.23545 c 4.79316,-0.016 10.42238,-0.032 15.18082,0.021 2.25886,0.0446 2.7934,-0.7825 3.0331,-2.51588 0.65403,-4.72976 0.62255,-8.63762 0.72591,-10.62513 0.10337,-1.9875 -1.55436,-1.95158 -2.97168,-1.99217 -2.88769,-0.0827 -12.58585,-0.17112 -14.99688,-0.14742 -1.03838,0.0102 -2.14819,0.0333 -2.56775,1.90571 -0.11904,1.59615 -0.81139,9.64579 -0.99803,11.20646 -0.0458,1.11079 1.23496,2.13218 2.59451,2.14734 l 0,0 z"
     id="path3261"
     style="fill:#213e76"
     data-podium="57"
     inkscape:connector-curvature="0"
     sodipodi:nodetypes="ccszssccccc" /><path
     d="m 341.98284,224.6201 c 0,0 -5.6,2.9 -8.4,4.3 -12.2,0 -24.5,-0.1 -36.7,-0.1 -1.3,0 -2.6,-0.1 -3.1,-1.7 -0.5,-1.7 0,-2.3 0.5,-3 10,-12 19.27624,-21.77 19.27624,-21.77 l 19.46848,0.0243 z"
     id="path3265"
     style="fill:#198ccc"
     data-podium="43"
     inkscape:connector-curvature="0"
     sodipodi:nodetypes="ccsccccc" /><path
     d="m 280.7,208.1 c 4.1,2.9 8.1,5.8 12.2,8.6 -2.7,3.3 -5.4,6.6 -8.1,9.9 -0.1,0.8 -0.3,1.7 -0.4,2.5 -5.1,0 -10.2,0 -15.3,-0.1 0.5,-3.1 1,-6.1 1.5,-9.1 3.4,-3.9 6.8,-7.9 10.1,-11.8 l 0,0 z"
     id="path3275"
     style="fill:#213e76"
     data-podium="69" /><path
     d="m 291.7,194.9 c 4,2.9 8.1,5.8 12.2,8.7 -3.6,4.3 -7.3,8.7 -10.9,13 -4.1,-2.9 -8.2,-5.8 -12.2,-8.6 3.6,-4.3 7.3,-8.7 10.9,-13.1 l 0,0 z"
     id="path3277"
     style="fill:#213e76"
     data-podium="70" /><path
     d="m 302.5,182 c 4,2.9 8.1,5.7 12.1,8.6 -3.6,4.3 -7.2,8.7 -10.8,13.1 -4.1,-2.9 -8.1,-5.8 -12.2,-8.7 3.7,-4.4 7.3,-8.7 10.9,-13 l 0,0 z"
     id="path3279"
     style="fill:#213e76"
     data-podium="71" /><path
     d="m 323.7,179.7 c -1.3,-3.7 -2.6,-7.4 -3.9,-11 -0.5,-0.5 -1.1,-0.9 -2.4,-1.1 -1.4,-0.1 -2.3,0.2 -3.1,0.4 -3.9,4.6 -7.7,9.3 -11.6,14 4,2.9 8.1,5.7 12.1,8.6 2.9,-3.7 5.9,-7.3 8.9,-10.9 l 0,0 z"
     id="path3281"
     style="fill:#213e76"
     data-podium="72" /><path
     d="m 319,155.1 -13.83033,-9.50711 13.20607,-14.56152 1,0.8 6.14142,15.48787 z"
     id="polygon3283"
     style="fill:#213e76"
     data-podium="56"
     inkscape:connector-curvature="0"
     sodipodi:nodetypes="cccccc" /><path
     d="m 310.9,163.9 c 2.4,-2.8 4.9,-5.6 7.3,-8.4 -4.5,-3 -9.4,-6.3 -13.8,-9.3 -2.3,2.7 -4.8,5.5 -7.1,8.2 4.3,3.1 9.1,6.4 13.6,9.5 l 0,0 z"
     id="path3287"
     style="fill:#213e76"
     data-podium="54" /><path
     d="m 299.1,177.6 c -4.6,-3.2 -9.2,-6.3 -13.8,-9.5 4,-4.6 7.9,-9.2 11.9,-13.8 4.5,3.2 9.1,6.4 13.7,9.6 -3.9,4.6 -7.9,9.1 -11.8,13.7 l 0,0 z"
     id="path3289"
     style="fill:#213e76"
     data-podium="53" /><path
     d="m 274.3,180.7 c 3.7,-4.2 7.4,-8.4 11,-12.6 4.6,3.2 9.1,6.5 13.7,9.7 -3.7,4.3 -7.3,8.6 -11,12.9 -4.6,-3.3 -9.2,-6.7 -13.7,-10 l 0,0 z"
     id="path3291"
     style="fill:#55361d"
     data-podium="52" /><path
     d="m 277,203.8 c 3.7,-4.4 7.3,-8.7 11,-13.1 -4.6,-3.2 -9.3,-6.5 -13.9,-9.7 -3.6,4.3 -7.3,8.7 -10.9,13 4.6,3.3 9.2,6.5 13.8,9.8 l 0,0 z"
     id="path3293"
     style="fill:#213e76"
     data-podium="51" /><path
     d="m 266.9,215.6 c -4.6,-3.3 -9.1,-6.6 -13.7,-9.9 3.3,-3.9 6.6,-7.8 9.9,-11.7 4.6,3.2 9.2,6.5 13.8,9.7 -3.2,4 -6.6,8 -10,11.9 l 0,0 z"
     id="path3295"
     style="fill:#213e76"
     data-podium="50" /><path
     d="m 256.8,229.2 c -5,0 -10.1,0 -15.1,-0.1 0.7,-3.9 1.4,-7.8 2.1,-11.7 3.1,-3.7 6.1,-7.3 9.2,-11 2.3,1.6 4.5,3.3 6.8,4.9 -1,6 -2,11.9 -3,17.9 l 0,0 z"
     id="path3297"
     style="fill:#213e76"
     data-podium="48" /><path
     d="m 260,211.6 c 2.2,1.6 4.4,3.2 6.6,4.7 -0.5,3.2 -0.9,6.5 -1.4,9.8 -0.3,1 -0.6,2 -1.5,2.4 -0.9,0.4 -1.3,0.6 -1.6,0.7 -1.7,0 -3.4,0 -5,0 0.9,-5.9 1.9,-11.7 2.9,-17.6 l 0,0 z"
     id="path3299"
     style="fill:#213e76"
     data-podium="49" /><path
     d="m 404.73095,163.86569 -0.77424,15.70426 17.62666,0.29101 89.3783,61.58899 L 438.2,336.8 l -69,-152.2 21,-21.5 z"
     id="polygon3301"
     style="fill:#b25d28"
     data-podium="68"
     inkscape:connector-curvature="0"
     sodipodi:nodetypes="cccccccc" /><path
     d="m 482.5,139.6 -19.5,0 -1.4,20.1 -16.8,0 2.7,-34.9 0,0 19.1,-0.2 4.1,-5.1 17.1,12.6 z"
     id="polygon3303"
     style="fill:#cce6d2"
     data-podium="61" /><path
     d="m 473.5,159.8 -10.6,-0.1 0,0 1.3,-19.1 17.7,0.1 -7.9,10.4 z"
     id="polygon3305"
     style="fill:#cce6d2"
     data-podium="62" /><path
     style="fill:#d3bc5f;stroke:none"
     d="m 357.70106,247.88761 11.73797,-5.44472 6.15183,13.50574 -12.5865,6.08112 z"
     id="path3188"
     data-podium="75"
     inkscape:connector-curvature="0" /><path
     style="fill:#d3bc5f;stroke:none"
     d="m 382.09624,236.59106 6.57609,13.85929 -11.80868,5.44473 -5.9397,-13.8593 z"
     id="path3190"
     data-podium="76"
     inkscape:connector-curvature="0" /><path
     style="fill:#d3bc5f;stroke:none"
     d="m 361.77299,225.73091 7.21249,15.48563 -12.09153,5.3033 -4.94975,-12.44507 c 0,0 -0.63639,-0.91924 -0.35355,-2.19204 0.28284,-1.27279 1.69706,-2.05061 1.69706,-2.05061 z"
     id="path3192"
     data-podium="41"
     inkscape:connector-curvature="0" /><path
     style="fill:#d3bc5f;stroke:none"
     d="m 363.11649,225.09451 7.84889,-3.74767 c 0,0 0.84852,-0.21213 1.83847,-0.0707 0.98995,0.14142 2.82843,1.76777 2.82843,1.76777 l 6.01041,12.16224 -11.73797,5.23259 z"
     id="path3194"
     data-podium="74"
     inkscape:connector-curvature="0" /><path
     style="fill:#d3bc5f;stroke:none;stroke-width:1px;stroke-linecap:butt;stroke-linejoin:miter;stroke-opacity:1"
     d="m 375.75654,315.67991 5.23259,-2.26274 4.66691,9.19239 -5.9397,2.40416 z"
     id="path3164"
     data-podium="77" /><path
     style="fill:#d3bc5f;stroke:none"
     d="m 412.30894,303.25199 5.73259,-2.13848 5.37401,11.03087 -5.59117,2.2799 z"
     id="path3166"
     data-podium="78" /><path
     style="fill:#ff0000;stroke:none"
     d="m 41.199999,229.60001 34.799999,1.6 -36.799999,117.2 -38.79999901,-0.4 z"
     id="path3144"
     inkscape:connector-curvature="0"
     data-podium="80" /><path
     style="fill:#ff0000;stroke:none"
     d="m 149,452.40001 48.39999,0.8 -3.6,21.59999 -49.19999,0.4 z"
     id="path3146"
     inkscape:connector-curvature="0"
     data-podium="81" /><path
     style="fill:#198ccc;stroke:none"
     d="m 326.04694,186.13795 6.0104,14.28355 h -17.39482 z"
     id="path3150"
     inkscape:connector-curvature="0"
     sodipodi:nodetypes="cccc"
     data-podium="55" /><path
     style="fill:#008000;stroke:none;stroke-width:1px;stroke-linecap:butt;stroke-linejoin:miter;stroke-opacity:1"
     d="m 76.534315,386.44437 22.3,-26.2 26.599995,0.8 -9.4,48.4 H 85.034315 Z"
     id="path241"
     inkscape:connector-curvature="0"
     data-podium="101"
     sodipodi:nodetypes="cccccc"
     data-build="3" /><path
     style="fill:#008000;stroke:none;stroke-width:1px;stroke-linecap:butt;stroke-linejoin:miter;stroke-opacity:1"
     d="m 100.4,341.8 16.69311,0.4795 1.70689,-6.4795 27.8,1.4 -9,11.4 L 118,348 99.4,347.4 Z"
     id="path245"
     inkscape:connector-curvature="0"
     data-podium="104"
     sodipodi:nodetypes="cccccccc"
     data-build="3" /><path
     style="fill:#008000;stroke:none;stroke-width:1px;stroke-linecap:butt;stroke-linejoin:miter;stroke-opacity:1"
     d="m 160.6,287 18.6,0.6 -2.6,8.8 -9.2,12.4 -24.3,-0.9 -8.2,24.2 -14.6,-1.2 10,-32 26.7,0.9 z"
     id="path247"
     inkscape:connector-curvature="0"
     data-podium="106"
     sodipodi:nodetypes="cccccccccc"
     data-build="3" /><path
     style="fill:#008000;stroke:none;stroke-width:1px;stroke-linecap:butt;stroke-linejoin:miter;stroke-opacity:1"
     d="m 64.492893,340.9 15.623764,0.3457 2.621593,-9.73288 30.704,1.00531 L 112.4,336.9 l -22.460816,-0.176 -7.673708,26.02646 -13.235325,13.92111 -9.5,-19.7 z"
     id="path249"
     inkscape:connector-curvature="0"
     sodipodi:nodetypes="cccccccccc"
     data-podium="103"
     data-build="3" /><path
     style="fill:#008000;stroke:none;stroke-width:1px;stroke-linecap:butt;stroke-linejoin:miter;stroke-opacity:1"
     d="m 75.082843,304.6201 18.2,0.6 -2.6,10.4 26.517157,0.76569 -2.91716,13.03431 -45.999997,-1.6 z"
     id="path251"
     inkscape:connector-curvature="0"
     sodipodi:nodetypes="ccccccc"
     data-podium="105"
     data-build="3" /><path
     style="fill:#008000;stroke:none;stroke-width:1px;stroke-linecap:butt;stroke-linejoin:miter;stroke-opacity:1"
     d="m 105.25858,281.16152 22.4,0.8 -8.28284,29.29289 -23.200004,-0.55147 z"
     id="path253"
     inkscape:connector-curvature="0"
     sodipodi:nodetypes="ccccc"
     data-podium="107"
     data-build="3" /><path
     style="fill:#008000;stroke:none;stroke-width:1px;stroke-linecap:butt;stroke-linejoin:miter;stroke-opacity:1"
     d="m 113.05858,254.99584 22,0.8 -6.2,23 -22.8,-1 z"
     id="path255"
     inkscape:connector-curvature="0"
     data-podium="111"
     data-build="3" /><path
     style="fill:#008000;stroke:none;stroke-width:1px;stroke-linecap:butt;stroke-linejoin:miter;stroke-opacity:1"
     d="m 82.082843,282.87868 18.399997,0.4 -5.799997,19 -18.4,-1 z"
     id="path257"
     inkscape:connector-curvature="0"
     data-podium="108"
     sodipodi:nodetypes="ccccc"
     data-build="3" /><path
     style="fill:#008000;stroke:none;stroke-width:1.01936388px;stroke-linecap:butt;stroke-linejoin:miter;stroke-opacity:1"
     d="m 137.87574,272.17868 20.5,1.14301 -5,21.40552 -22.2,-1.0391 z"
     id="path259"
     inkscape:connector-curvature="0"
     sodipodi:nodetypes="ccccc"
     data-podium="109"
     data-build="3" /><path
     style="fill:#008000;stroke:none;stroke-width:1px;stroke-linecap:butt;stroke-linejoin:miter;stroke-opacity:1"
     d="m 134.66274,196.99167 23.2,1.6 -7,26.4 -23.4,-1.50711 z"
     id="path261"
     inkscape:connector-curvature="0"
     data-podium="114"
     sodipodi:nodetypes="ccccc"
     data-build="3" /><path
     style="fill:#008000;stroke:none;stroke-width:1px;stroke-linecap:butt;stroke-linejoin:miter;stroke-opacity:1"
     d="m 163.8728,202.91889 18.09289,0.48284 -1.65858,6.14142 20.14142,0.4 -4.14142,17.4 -38.4,-1.6 z"
     id="path263"
     inkscape:connector-curvature="0"
     data-podium="115"
     sodipodi:nodetypes="ccccccc"
     data-build="3" /><path
     style="fill:#008000;stroke:none;stroke-width:1px;stroke-linecap:butt;stroke-linejoin:miter;stroke-opacity:1"
     d="m 104.34142,214.78579 20.4,1.2 -6.2,21.8 22.4,1.4 -3.8,13 -27.8,-1.6 -2.4,9.6 -16.999999,-0.6 z"
     id="path265"
     inkscape:connector-curvature="0"
     data-podium="112"
     data-build="3" /><path
     style="fill:#008000;stroke:none;stroke-width:1px;stroke-linecap:butt;stroke-linejoin:miter;stroke-opacity:1"
     d="m 147.41005,236.90711 44.98995,2.58284 -1.35858,7.66568 -45.45564,-2.22426 z"
     id="path267"
     inkscape:connector-curvature="0"
     sodipodi:nodetypes="ccccc"
     data-podium="113"
     data-build="3" /><path
     style="fill:#008000;stroke:none;stroke-width:1px;stroke-linecap:butt;stroke-linejoin:miter;stroke-opacity:1"
     d="m 144.52721,246.17574 22.58578,1.3071 -3.29289,13.19584 23.60416,0.94142 -6.01005,23.69706 -20.03848,-0.8 3.82427,-15.34142 -26.05858,-1.68284 z"
     id="path269"
     inkscape:connector-curvature="0"
     data-podium="110"
     sodipodi:nodetypes="ccccccccc"
     data-build="3" /><path
     style="fill:#008000;stroke:none;stroke-width:1px;stroke-linecap:butt;stroke-linejoin:miter;stroke-opacity:1"
     d="m 89.02426,261.99586 18.2,0.8 -5.8,17.79999 -18.199999,-1.2 z"
     id="path4585"
     inkscape:connector-curvature="0"
     data-podium="117"
     data-build="3" /><path
     style="fill:#ead295;stroke:none;stroke-width:1px;stroke-linecap:butt;stroke-linejoin:miter;stroke-opacity:1"
     d="m 245.79999,269.30001 h 26.4 l -3.1,21.4 h -27.1 z"
     id="path4586"
     inkscape:connector-curvature="0"
     data-podium="123" /><path
     style="fill:#ead295;stroke:none;stroke-width:1px;stroke-linecap:butt;stroke-linejoin:miter;stroke-opacity:1"
     d="m 275.39999,281.20001 17.5,-0.2 -1,9.8 -17.7,-0.2 z"
     id="path4588"
     inkscape:connector-curvature="0"
     data-podium="124" /><path
     style="fill:#ead295;stroke:none;stroke-width:1px;stroke-linecap:butt;stroke-linejoin:miter;stroke-opacity:1"
     d="m 248.09999,388.00001 70,-0.1 -2.4,21.4 -71.3,-0.6 z"
     id="path4590"
     inkscape:connector-curvature="0"
     sodipodi:nodetypes="ccccc"
     data-podium="125" /><path
     style="fill:#d3bc5f;stroke:none;stroke-width:1px;stroke-linecap:butt;stroke-linejoin:miter;stroke-opacity:1"
     d="m 401.69999,324.80001 5.5,-2 5.8,11.4 -5.8,2.7 z"
     id="path4592"
     inkscape:connector-curvature="0"
     data-podium="122" /><path
     style="fill:#008080;stroke:none;stroke-width:1px;stroke-linecap:butt;stroke-linejoin:miter;stroke-opacity:1"
     d="m 483.5196,186.06726 21.28391,15.20279 -16.19274,23.05168 -21.56043,-15.25727 z"
     id="path4587"
     inkscape:connector-curvature="0"
     sodipodi:nodetypes="ccccc"
     data-podium="83" /><path
     style="fill:#008080;stroke:none;stroke-width:1px;stroke-linecap:butt;stroke-linejoin:miter;stroke-opacity:1"
     d="m 506.0056,202.33071 21.28391,15.34422 -15.62706,22.41527 -21.77889,-15.27349 z"
     id="path4589"
     inkscape:connector-curvature="0"
     sodipodi:nodetypes="ccccc"
     data-podium="84" /><path
     style="fill:#e9ddaf"
     d="m 244.94178,334.0647 18.24336,-0.14142 -2.96985,20.93036 -18.38478,-0.14142 z"
     id="path5229"
     inkscape:connector-curvature="0"
     data-podium="97" /><path
     style="fill:#c87137"
     d="m 406.44497,164.5005 15.55635,-0.28285 -0.70711,14.14214 h -16.12203 z"
     id="path5231"
     inkscape:connector-curvature="0"
     data-podium="95" /><path
     style="fill:#c87137"
     d="m 424.12264,164.5005 -0.70711,14.42497 41.86072,29.98133 16.68772,-22.76884 -24.04163,-21.49604 z"
     id="path5233"
     inkscape:connector-curvature="0"
     data-podium="94" /><path
     style="fill:#cce6d2;stroke:none;stroke-width:1px;stroke-linecap:butt;stroke-linejoin:miter;stroke-opacity:1"
     d="m 470.1,310.6 21.7,17.4 -18.2,25.6 -22.4,-18.4 z"
     id="path4603"
     inkscape:connector-curvature="0"
     sodipodi:nodetypes="ccccc"
     data-podium="126" /></svg>