<?xml version="1.0" encoding="UTF-8" standalone="no"?>
<!-- Created with Inkscape (http://www.inkscape.org/) -->

<svg
   xmlns:dc="http://purl.org/dc/elements/1.1/"
   xmlns:cc="http://creativecommons.org/ns#"
   xmlns:rdf="http://www.w3.org/1999/02/22-rdf-syntax-ns#"
   xmlns:svg="http://www.w3.org/2000/svg"
   xmlns="http://www.w3.org/2000/svg"
   xmlns:sodipodi="http://sodipodi.sourceforge.net/DTD/sodipodi-0.dtd"
   xmlns:inkscape="http://www.inkscape.org/namespaces/inkscape"
   version="1.1"
   width="100%"
   height="100%"
   viewBox="0 0 1200 650"
   id="svg3656"
   xml:space="preserve"
   inkscape:version="0.92.1 r15371"
   sodipodi:docname="grand1-floor2.svg"><defs
     id="defs3897" /><sodipodi:namedview
     pagecolor="#ffffff"
     bordercolor="#666666"
     borderopacity="1"
     objecttolerance="10"
     gridtolerance="10"
     guidetolerance="10"
     inkscape:pageopacity="0"
     inkscape:pageshadow="2"
     inkscape:window-width="1920"
     inkscape:window-height="1017"
     id="namedview3895"
     showgrid="false"
     inkscape:zoom="1.2500001"
     inkscape:cx="334.17373"
     inkscape:cy="362.23007"
     inkscape:window-x="-8"
     inkscape:window-y="-8"
     inkscape:window-maximized="1"
     inkscape:current-layer="svg3656" /><metadata
     id="metadata3832"><rdf:RDF><cc:Work
         rdf:about=""><dc:format>image/svg+xml</dc:format><dc:type
           rdf:resource="http://purl.org/dc/dcmitype/StillImage" /><dc:title /></cc:Work></rdf:RDF></metadata><path
     d="m 389.8,386.9 c -13,-0.1 -26,-0.1 -38.9,-0.2 1.3,-11.7 2.6,-23.3 3.9,-34.8 12.8,0.1 25.5,0.1 38.3,0.2 -1.1,11.5 -2.2,23.1 -3.3,34.8 z"
     id="path3666"
     style="fill:#ed6d23"
     data-podium="15" /><path
     d="m 400.8,342.1 c 0.8,3.1 1.6,6.1 2.4,9.2 -5.7,0 -11.4,-0.1 -17.1,-0.1 4.9,-3 9.8,-6.1 14.7,-9.1 z"
     id="path3668"
     style="fill:#ed6d23"
     data-podium="86" /><path
     d="m 401.5,341.1 c 8.7,-3.5 17.4,-7.1 26,-10.6 5.2,12.6 10.5,25.3 15.8,38.2 -11.9,-0.1 -23.8,-0.1 -35.7,-0.2 -2,-9.2 -4,-18.4 -6.1,-27.4 z"
     id="path3670"
     style="fill:#3389ca"
     data-podium="03" /><path
     d="m 428.3,329.9 c 1.2,3.1 2.9,7.4 4.2,10.5 8.7,0 17.2,-0.3 25.9,-0.3 1.6,1.1 3.2,2 4.8,3.1 4.9,-6.5 8.4,-11 14.8,-19.9 -8.1,-6.4 -16.3,-13.3 -24.3,-19.6 -6.6,8.1 -8.9,10.6 -15.6,18.7 -3.3,2.5 -6.5,5 -9.8,7.5 z"
     id="path3672"
     style="fill:#7b5c9e"
     data-podium="02"
     inkscape:connector-curvature="0"
     sodipodi:nodetypes="cccccccc" /><path
     d="m 470.7,279.5 c 7.6,-10.3 15,-20.4 15,-20.4 1.1,-1.4 3,-1.8 4.4,-0.8 0,0 9.3,6.7 18.6,13.5 -0.6,1.2 -1.3,2.3 -1.9,3.5 0.9,0.6 1.9,1.2 2.8,1.7 -5,7.2 -10,14.5 -15.1,21.8 -7.9,-6.6 -15.9,-13 -23.8,-19.3 z"
     id="path3674"
     style="fill:#7b5c9e"
     data-podium="01" /><path
     d="m 524.1,256.9 c 9.9,-14.3 19.7,-28.4 29.4,-42.3 -7.3,-5.1 -14.5,-10.3 -21.8,-15.4 -10.3,13.2 -20.8,26.7 -31.4,40.3 7.9,5.7 15.8,11.5 23.8,17.4 z"
     id="path3676"
     style="fill:#7b5c9e"
     data-podium="52" /><path
     d="m 532.6,198.1 c 4.6,-5.9 9.2,-11.7 13.8,-17.5 6.9,4.8 13.9,9.6 20.9,14.4 -4.3,6.2 -8.7,12.5 -13.1,18.9 -7.3,-5.3 -14.5,-10.6 -21.6,-15.8 z"
     id="path3678"
     style="fill:#7b5c9e"
     data-podium="51" /><path
     d="m 558.8,164.2 c 6.7,4.7 13.4,9.4 20.1,14.2 -3.6,5.1 -7.2,10.3 -10.8,15.5 -7.1,-4.8 -14.1,-9.5 -21.2,-14.3 4,-5.2 8,-10.3 11.9,-15.4 z"
     id="path3680"
     style="fill:#7b5c9e"
     data-podium="50" /><path
     d="m 528.8,134 c 17.3,0.5 34.6,1 51.9,1.6 -7.3,9 -14.6,18.2 -22,27.4 -0.7,-2.1 -1.5,-4.2 -3.8,-4.3 0,0 -21.7,-0.7 -43.5,-1.5 5.8,-7.8 11.6,-15.5 17.4,-23.2 z"
     id="path3682"
     style="fill:#7b5c9e"
     data-podium="44" /><path
     d="m 512.9,126 c 3.7,2.6 7.4,5.3 11.1,7.9 1.3,0 2.6,0 3.9,0 -5.7,7.7 -11.5,15.4 -17.3,23.2 -1.7,0 -3.4,0 -5.1,0 -3.7,-2.7 -7.4,-5.5 -11.1,-8.2 6.3,-7.7 12.4,-15.4 18.5,-22.9 z"
     id="path3684"
     style="fill:#7b5c9e"
     data-podium="22" /><path
     d="m 486.5,107 c 8.4,6 16.9,12 25.5,18.1 -6.2,7.6 -12.4,15.3 -18.6,23.1 -7.9,-5.6 -15.7,-11.3 -23.6,-16.8 2.7,-3.2 5.3,-6.4 8,-9.6 -0.8,-0.6 -1.5,-1.3 -2.3,-1.9 3.7,-4.4 7.3,-8.7 11,-12.9 z"
     id="path3686"
     style="fill:#7b5c9e"
     data-podium="23" /><path
     d="m 458,99.6 c -1.1,8.5 -2.2,17.1 -3.3,25.7 2.5,0.2 5,0.3 7.6,0.5 2.2,1.5 4.4,3 6.6,4.6 2.5,-2.8 4.9,-5.6 7.4,-8.5 -0.8,-0.6 -1.6,-1.3 -2.4,-1.9 4,-4.5 8,-9 11.9,-13.4 -5.5,-3.9 -11.1,-7.8 -16.6,-11.6 -1.3,1.6 -2.6,3.1 -3.9,4.7 -2.4,-0.1 -4.8,-0.1 -7.3,-0.1 z"
     id="path3688"
     style="fill:#7b5c9e"
     data-podium="24" /><path
     d="m 433.7,99.6 c 7.7,0 15.4,0.1 23,0.1 -1,8.4 -2,17 -3,25.6 -7.9,-0.3 -15.7,-0.5 -23.6,-0.8 1.2,-8.4 2.4,-16.7 3.6,-24.9 z"
     id="path3690"
     style="fill:#7b5c9e"
     data-podium="25" /><path
     d="m 410,99.5 c 7.6,0 15.2,0.1 22.8,0.1 -1.2,8.2 -2.4,16.5 -3.7,24.9 -7.7,-0.4 -15.4,-0.7 -23.1,-1.1 1.3,-8.1 2.7,-16 4,-23.9 z"
     id="path3692"
     style="fill:#7b5c9e"
     data-podium="26" /><path
     d="m 379.8,99.4 c 9.7,0 19.4,0 29.1,0.1 -1.3,7.9 -2.6,15.9 -4,23.9 -9.7,-0.3 -19.3,-0.7 -28.9,-1 1.3,-7.7 2.5,-15.4 3.8,-23 z"
     id="path3694"
     style="fill:#7b5c9e"
     data-podium="27" /><path
     d="m 352.6,99.5 c 8.5,0 17,0 25.4,0.1 -1.1,7.4 -2.1,14.9 -3.2,22.4 -2.3,0 -4.6,0 -4.6,0 -6.5,0 -12.7,4.1 -15.1,10.1 0,0 -0.3,0.6 -0.5,1.3 0.6,-3.6 1.1,-7.3 1.7,-10.9 -3,-0.1 -6,-0.1 -9,-0.2 0.8,-5.1 1.5,-10.2 2.3,-15.2 0.6,0 1.3,0 1.9,0.1 0.4,-2.7 0.8,-5.2 1.1,-7.7 z"
     id="path3696"
     style="fill:#7b5c9e"
     data-podium="28" /><path
     d="m 324.8,125.6 c 4.1,-2.1 8.2,-4.1 12.2,-6.2 3.3,0 6.5,0 9.8,0 -0.7,5.1 -1.4,10.3 -2,15.4 -1,1.6 -2.1,3.2 -3.1,4.7 -3.8,0 -7.6,0 -11.4,0 -1.9,-4.6 -3.7,-9.3 -5.5,-13.9 z"
     id="path3698"
     style="fill:#7b5c9e"
     data-podium="29" /><path
     d="m 313.9,108.1 c 4.3,10.4 8.6,20.9 13,31.5 H 323 c -4.2,0 -6.5,0.8 -9.5,4 0,0 3.3,-3.9 -2.4,2.3 -6.1,-4.4 -12.1,-9 -18.2,-13.4 10.8,-12.1 10.6,-12.6 21,-24.4 z"
     id="path3700"
     style="fill:#7b5c9e"
     data-podium="30"
     inkscape:connector-curvature="0"
     sodipodi:nodetypes="ccccccc" /><path
     d="m 286,173.3 c -6.2,-4.5 -11.7,-8.7 -17.9,-13.1 -3.9,4.4 -7.8,8.8 -11.7,13.2 6.1,4.6 11.6,9 17.8,13.6 4,-4.5 7.9,-9.1 11.8,-13.7 z"
     id="path3702"
     style="fill:#507134"
     data-podium="32"
     inkscape:connector-curvature="0"
     sodipodi:nodetypes="ccccc" /><path
     d="m 255.6,174.4 c 6.1,4.6 11.8,8.5 18,13.2 -3.8,4.5 -3.2,4.2 -7,8.7 -6.3,-4.6 -12.3,-9.3 -18.5,-13.9 3.9,-4.5 3.6,-3.5 7.5,-8 z"
     id="path3704"
     style="fill:#507134"
     data-podium="33"
     inkscape:connector-curvature="0"
     sodipodi:nodetypes="ccccc" /><path
     d="m 215.5,386.1 c -5.4,0 -10.8,-0.1 -16.2,-0.1 2.2,-11.7 4.3,-23.3 6.4,-34.8 5.3,0 10.6,0 15.9,0.1 -2,11.5 -4,23.1 -6.1,34.8 z"
     id="path3708"
     style="fill:#507134"
     data-podium="06" /><path
     d="m 232.5,386.2 c -5.4,0 -10.8,-0.1 -16.2,-0.1 2.1,-11.7 4.1,-23.3 6.2,-34.8 5.3,0 10.6,0 15.9,0.1 -1.9,11.5 -3.9,23.1 -5.9,34.8 z"
     id="path3710"
     style="fill:#507134"
     data-podium="07" /><path
     d="m 254.9,386.3 c -7.2,0 -14.3,-0.1 -21.5,-0.1 2,-11.7 3.9,-23.3 5.9,-34.8 7.1,0 14.1,0.1 21.2,0.1 -1.9,11.5 -3.7,23.1 -5.6,34.8 z"
     id="path3712"
     style="fill:#507134"
     data-podium="08" /><path
     d="m 272.8,386.4 c -5.7,0 -11.4,-0.1 -17.1,-0.1 1.9,-11.7 3.7,-23.3 5.5,-34.8 5.6,0 11.2,0.1 16.9,0.1 -1.8,11.5 -3.6,23.1 -5.3,34.8 z"
     id="path3714"
     style="fill:#507134"
     data-podium="09" /><path
     d="m 293.4,386.5 c -6.7,0 -13.4,-0.1 -20.1,-0.1 1.8,-11.7 3.5,-23.3 5.2,-34.8 6.6,0 13.1,0.1 19.7,0.1 -1.5,11.4 -3.2,23 -4.8,34.8 z"
     id="path3716"
     style="fill:#507134"
     data-podium="10" /><path
     d="m 312.1,386.6 c -5.8,0 -11.7,-0.1 -17.5,-0.1 1.6,-11.7 3.3,-23.3 4.9,-34.8 5.7,0 11.5,0.1 17.2,0.1 -1.5,11.4 -3,23 -4.6,34.8 z"
     id="path3718"
     style="fill:#507134"
     data-podium="11" /><path
     d="m 350.1,386.8 c -5.6,0 -11.2,-0.1 -16.8,-0.1 1.4,-11.7 2.8,-23.3 4.2,-34.8 5.5,0 11,0.1 16.5,0.1 -1.2,11.4 -2.6,23 -3.9,34.8 z"
     id="path3720"
     style="fill:#507134"
     data-podium="13" /><path
     d="m 334.1,369.3 c -5.3,0 -10.6,-0.1 -15.9,-0.1 0.8,-5.8 1.5,-11.7 2.3,-17.4 5.3,0 10.5,0 15.8,0.1 -0.8,5.7 -1.5,11.5 -2.2,17.4 z"
     id="path3722"
     style="fill:#507134"
     data-podium="12" /><path
     d="m 291.8,133.8 c 6.1,4.3 12.1,8.6 18.3,13 -4.3,5 -4.1,4.4 -8.4,9.4 -6.2,-4.4 -12.1,-8.4 -18.2,-12.8 4.4,-5 3.9,-4.7 8.3,-9.6 z"
     id="path3724"
     style="fill:#507134"
     data-podium="31"
     inkscape:connector-curvature="0"
     sodipodi:nodetypes="ccccc" /><path
     d="m 249.4,215.2 c 4,-4.5 3.2,-3.3 7.2,-7.8 -6.2,-4.6 -12.1,-9.5 -18.2,-14.1 -4,4.5 -3.5,3.6 -7.5,8.1 6.2,4.6 12.3,9.2 18.5,13.8 z"
     id="path3726"
     style="fill:#507134"
     data-podium="34"
     inkscape:connector-curvature="0"
     sodipodi:nodetypes="ccccc" /><path
     d="m 241,224.9 c 2.6,-3 5.1,-6 7.7,-8.9 -6.2,-4.7 -12.3,-9.4 -18.4,-14.1 -2.6,2.9 -5.2,5.9 -7.9,8.9 6.2,4.6 12.4,9.3 18.6,14.1 z"
     id="path3728"
     style="fill:#507134"
     data-podium="20" /><path
     d="m 240.4,225.5 c -6.2,-4.7 -12.4,-9.5 -18.6,-14.2 -2.6,2.9 -5.2,5.9 -7.8,8.8 -2.2,0 -4.3,0 -6.5,0 -1.7,8.5 -3.4,17.1 -5.1,25.8 9.9,0 19.7,0.1 29.6,0.1 0.8,-4.7 1.7,-9.3 2.5,-14 1.9,-2 3.9,-4.2 5.9,-6.5 z"
     id="path3730"
     style="fill:#507134"
     data-podium="35" /><path
     d="m 197.9,272.3 c 9.8,0 19.6,0.1 29.4,0.1 -1,5.5 -2,11.1 -3,16.7 -0.4,0.5 -0.9,1 -1.3,1.6 -9.5,0 -19.1,-0.1 -28.6,-0.1 1.1,-6.1 2.3,-12.2 3.5,-18.3 z"
     id="path3732"
     style="fill:#507134"
     data-podium="18" /><path
     d="m 222.5,291.7 c -9.4,0 -18.9,-0.1 -28.3,-0.1 -0.4,2.2 -1.3,6.6 -1.3,6.6 l -4.3,5 23.7,0.3 c 0,0 6.5,-8.1 10.2,-11.8 z"
     id="path3734"
     style="fill:#507134"
     data-podium="17"
     inkscape:connector-curvature="0"
     sodipodi:nodetypes="cccccc" /><path
     d="m 178.1,315.6 c 7.9,0 15.9,0.1 23.8,0.1 -2.8,3.3 -5.7,6.6 -5.7,6.6 -5.8,6.7 -7,16 -2.9,22.2 l 0,0 c -4.4,2.2 -8.9,4.4 -13.4,6.6 -10.3,0 -20.5,-0.1 -30.8,-0.1 9.9,-11.9 19.5,-23.7 29,-35.4 z"
     id="path3736"
     style="fill:#507134"
     data-podium="16" /><path
     d="m 203.6,357.5 c -1.3,7.2 -2.7,14.4 -4,21.6 -8.5,0 -17.1,-0.1 -25.6,-0.1 0.5,-2.6 1,-5.2 1.5,-7.8 9.4,-4.6 18.8,-9.1 28.1,-13.7 z"
     id="path3738"
     style="fill:#507134"
     data-podium="05" /><path
     d="m 173.4,385.9 c -11.3,-0.1 -22.5,-0.1 -33.8,-0.2 0.5,-2.1 0.9,-4.3 1.4,-6.4 11.2,0.1 22.5,0.1 33.7,0.2 -0.5,2.1 -0.9,4.3 -1.3,6.4 z"
     id="path3740"
     style="fill:#507134"
     data-podium="04" /><path
     d="m 378.7,162.2 16.4,12.7 c 1.7,1.3 1.2,4 -0.9,5 l -9.7,4.8 c -2.1,1 -4.5,0.3 -5.3,-1.7 l -6.7,-16.2 c -1.4,-3.4 3.2,-6.8 6.2,-4.6 z"
     id="path3742"
     style="fill:#7b5c9e"
     data-podium="59" /><path
     d="m 417.6,192.3 c -6.58288,8.99429 -11.75324,17.21775 -19.2,27.4 -5.1,-11.3 -11.8,-24.2 -11.8,-24.2 -0.7,-2 0.3,-4.3 2.4,-5.3 l 12.3,-7.5 c 1.9,-0.9 4,-0.7 5.5,0.5 0.1,0.1 5.4,4.7 10.8,9.1 z"
     id="path3744"
     style="fill:#7b5c9e"
     data-podium="58"
     inkscape:connector-curvature="0"
     sodipodi:nodetypes="ccccccc" /><path
     d="m 419.2,193.7 c 7.7,5.8 14.7,10.5 14.7,10.5 1.7,1.3 1.9,3.8 0.5,5.6 l -21.3,30.6 c -1.8,2.3 -5.3,2 -6.3,-0.5 0,0 -3.8,-8.2 -7.7,-18 8.1,-9.9 12.2,-18.6 20.1,-28.2 z"
     id="path3746"
     style="fill:#7b5c9e"
     data-podium="57"
     inkscape:connector-curvature="0"
     sodipodi:nodetypes="ccccccc" /><path
     d="m 465.8,228.8 c 6.9,5.2 13.9,10.5 20.9,15.7 -8.3,11.1 -16.8,22.2 -25.3,33.6 -7.3,-5.7 -14.5,-11.3 -21.6,-16.9 8.7,-10.9 17.4,-21.7 26,-32.4 z"
     id="path3748"
     style="fill:#7b5c9e"
     data-podium="53" /><path
     d="m 439.2,262.3 c 6.9,5.5 13.8,11 20.8,16.5 -11.7,15.6 -17.2,23.6 -17.2,23.6 -2.5,3.3 -7.3,3 -8.9,-0.7 0,0 -3.6,-10.5 -8.1,-21.2 6.9,-8.6 6.6,-9.6 13.4,-18.2 z"
     id="path3750"
     style="fill:#7b5c9e"
     data-podium="55"
     inkscape:connector-curvature="0"
     sodipodi:nodetypes="cccccc" /><path
     d="m 464.9,227.9 c -5.7,7.2 -11.4,14.4 -17.2,21.7 -7.2,-5.8 -14.4,-11.5 -21.5,-17.2 7.1,-8.7 14.1,-17.3 14.1,-17.3 1.8,-2.2 5,-2.7 7.1,-1 0,0 8.7,6.9 17.5,13.8 z"
     id="path3752"
     style="fill:#7b5c9e"
     data-podium="54" /><path
     d="m 424.4,279.2 c 9.8,-12.4 12.9,-16.8 22.4,-28.9 -7.1,-5.7 -14.2,-11.4 -21.2,-17.1 l -9.7,12.3 c -1.7,2.1 -2.9,7 -2,9.4 0.7,1.25 5.5,10.9 10.5,24.3 z"
     id="path3754"
     style="fill:#7b5c9e"
     data-podium="56"
     inkscape:connector-curvature="0"
     sodipodi:nodetypes="cccccc" /><path
     d="m 503.8,162 c 5.2,0 10.4,0 15.6,0.1 -15,19 -30.4,38.7 -46.3,58.9 -10.2,-7.4 -20.4,-14.7 -20.4,-14.7 -2.3,-1.7 -2.7,-5 -0.8,-7.4 l 34.4,-43.3 c 1.8,-2.2 5,-2.7 7.3,-1.1 0.1,0 5.1,3.7 10.2,7.5 z"
     id="path3756"
     style="fill:#7b5c9e"
     data-podium="36" /><path
     d="m 520.6,161.8 c 10,0 20,0.1 20,0.1 2.9,0 4.5,3.1 2.8,5.4 0,0 -5.9,8 -11.8,16 -6.1,-4.2 -12.1,-8.4 -18.2,-12.5 2.4,-3 4.8,-6 7.2,-9 z"
     id="path3758"
     style="fill:#7b5c9e"
     data-podium="37" /><path
     d="m 530.8,184 c -2.9,4 -5.8,7.9 -8.7,11.9 -6.1,-4.3 -12.1,-8.5 -18.1,-12.7 3.2,-3.9 6.3,-7.9 9.4,-11.8 5.7,4.2 11.5,8.4 17.4,12.6 z"
     id="path3760"
     style="fill:#7b5c9e"
     data-podium="38" /><path
     d="m 521.1,197 c -3.7,4.9 -7.4,9.8 -11.1,14.7 -6.1,-4.4 -12.1,-8.8 -18.1,-13.1 3.9,-4.9 7.7,-9.7 11.5,-14.6 5.8,4.3 11.7,8.6 17.7,13 z"
     id="path3762"
     style="fill:#7b5c9e"
     data-podium="39" /><path
     d="m 509.3,212.7 c -7.1,9.5 -14.2,19.1 -14.2,19.1 -1.6,2.2 -4.7,2.7 -6.8,1.1 0,0 -7.3,-5.5 -14.6,-11 6,-7.5 11.9,-15 17.7,-22.4 5.9,4.4 11.9,8.8 17.9,13.2 z"
     id="path3764"
     style="fill:#7b5c9e"
     data-podium="40" /><path
     d="m 456.1,128 c 9.1,6.3 18.2,12.7 27.4,19 -3.7,4.8 -7.5,9.7 -11.3,14.6 -8,-5.7 -15.9,-11.4 -23.8,-17 1.8,-2.2 3.6,-4.4 5.4,-6.6 -4.8,-3.4 -9.6,-6.7 -14.4,-10.1 5.6,0.1 11.2,0.1 16.7,0.1 z"
     id="path3766"
     style="fill:#7b5c9e"
     data-podium="41" /><path
     d="m 455.2,150.6 c 5.4,4 10.8,8 16.2,12 -3.9,4.8 -7.7,9.5 -11.6,14.4 -5.6,-4 -11.2,-7.9 -16.7,-11.9 4.1,-4.9 8.1,-9.7 12.1,-14.5 z"
     id="path3768"
     style="fill:#7b5c9e"
     data-podium="42" /><path
     d="m 442.6,165.9 c 5.5,3.9 11,7.8 16.5,11.8 -6.8,8.5 -13.6,17 -13.6,17 -1.8,2.2 -4.9,2.7 -7,1.1 0,0 -6.2,-4.9 -12.5,-9.7 5.6,-6.8 11.1,-13.6 16.6,-20.2 z"
     id="path3770"
     style="fill:#7b5c9e"
     data-podium="43" /><path
     d="m 433.3,135 c 7.1,5 14.2,10 21.3,15.1 -9.7,11.8 -19.4,23.7 -29.3,35.8 -9.2,-6.7 -18.4,-13.4 -18.4,-13.4 -1.7,-1.2 -1.9,-3.6 -0.4,-5.3 -0.1,-0.1 13.5,-16.3 26.8,-32.2 z"
     id="path3772"
     style="fill:#7b5c9e"
     data-podium="21" /><path
     d="m 410.4,128.4 c 6.4,0 12.8,0 12.8,0 3.3,0 4.9,3.5 2.8,6.1 l -24,29 c -1.3,1.5 -3.5,2 -5,1 0,0 -3.4,-2.5 -6.8,-5.1 6.6,-7.9 13.2,-15.8 19.7,-23.6 0.1,-2.5 0.3,-4.9 0.5,-7.4 z"
     id="path3774"
     style="fill:#7b5c9e"
     data-podium="45" /><path
     d="m 409.5,128.4 c -0.2,2.5 -0.5,5 -0.7,7.5 -6.5,7.6 -13,15.2 -19.6,22.9 -10.9,-8.2 -21.7,-16.2 -21.7,-16.2 -6.6,-4.9 -1.5,-15.6 7.2,-15.3 -0.1,0 17.3,0.5 34.8,1.1 z"
     id="path3776"
     style="fill:#7b5c9e"
     data-podium="46" /><path
     d="m 356.5,166.9 c -7.3,3.4 -14.6,6.9 -22,10.4 4.6,11.8 9.3,23.7 9.3,23.7 0.5,1.3 2.1,1.9 3.5,1.2 L 364,195 c 1.7,-0.8 2.6,-2.7 2,-4.3 0,0 -4.8,-12 -9.5,-23.8 z"
     id="path3778"
     style="fill:#7b5c9e"
     data-podium="62" /><path
     d="m 328.5,146.8 17.2,0.1 c 1.9,0 3.5,1.1 4.2,2.7 0,0 3,8.2 6.1,16.4 -7.2,3.5 -14.5,7 -21.7,10.5 -4.8,-12.5 -9.6,-24.8 -9.6,-24.8 -1,-2.2 1.1,-4.9 3.8,-4.9 z"
     id="path3780"
     style="fill:#7b5c9e"
     data-podium="61" /><path
     d="m 299.8,199 c 9.6,-4.4 19.2,-8.8 28.7,-13.1 3.5,8.7 7.1,17.5 7.1,17.5 0.8,2.1 -0.3,4.6 -2.6,5.7 0,0 -12.5,6 -25.1,12 -2.7,-7.4 -5.4,-14.8 -8.1,-22.1 z"
     id="path3782"
     style="fill:#a9ce3b"
     data-podium="69" /><path
     d="m 299.5669,197.94508 c 9.7,-4.4 19.25858,-8.84142 28.85858,-13.24142 C 322.42548,170.00366 316.5,155.3 316.5,155.3 c -0.8,-1.9 -3.6,-2.1 -5.1,-0.3 0,0 -9.5,11.3 -19.1,22.7 2.4,6.6 4.9669,13.64508 7.2669,20.24508 z"
     id="path3784"
     style="fill:#7b5c9e"
     data-podium="83"
     inkscape:connector-curvature="0"
     sodipodi:nodetypes="cccccc" /><path
     d="m 306.9,221.7 c -3,-8.4 -6,-16.7 -9,-25 -8.6,4.1 -17.2,8.2 -25.9,12.3 3.5,10.4 7.1,20.9 7.1,20.9 0.6,1.9 2.8,2.7 4.9,1.8 0.1,0 11.5,-5 22.9,-10 z"
     id="path3786"
     style="fill:#a9ce3b"
     data-podium="68" /><path
     d="m 291.2,178.7 c -9.8,11.1 -19.7,22.3 -19.7,22.3 -1.2,1.3 -1.6,3.1 -1,4.5 0,0 0.6,1.3 1.3,2.5 8.6,-4 17.3,-7.9 25.8,-11.9 -2.1,-5.8 -4.3,-11.6 -6.4,-17.4 z"
     id="path3788"
     style="fill:#a9ce3b"
     data-podium="66" /><path
     d="m 377.1,217.6 c -7.6,3.6 -15.1,7.2 -22.8,10.8 -3.2,-8.4 -6.3,-16.8 -6.3,-16.8 -0.5,-1.3 0.2,-2.8 1.6,-3.4 l 17,-8 c 1.3,-0.6 2.8,-0.1 3.3,1.1 0,-0.1 3.6,8.1 7.2,16.3 z"
     id="path3790"
     style="fill:#7b5c9e"
     data-podium="63" /><path
     d="m 361.4,247 c 3.3,-1.4 6.5,-2.8 9.8,-4.2 -2.3,-5.9 -4.5,-11.8 -6.8,-17.7 -3.1,1.4 -6.2,2.9 -9.3,4.3 2.1,5.9 4.2,11.7 6.3,17.6 z"
     id="path3792"
     style="fill:#f7cd39"
     data-podium="85" /><path
     d="M 381.57071,228.71508 C 385.97071,239.21508 390,249.7 390,249.7 c 0.7,1.8 -0.1,3.9 -2,4.9 l -15.9,8.2 c -1.8,0.9 -3.9,0.3 -4.7,-1.5 0,0 -2.8,-6.6 -5.6,-13.1 3.5,-1.6 7,-3.1 10.5,-4.7 l -2.7,-8.88492 c 4.1,-2.1 7.97071,-4 11.97071,-5.9 z"
     id="path3794"
     style="fill:#7b5c9e"
     data-podium="64"
     inkscape:connector-curvature="0"
     sodipodi:nodetypes="ccccccccc" /><path
     d="m 266.4,213.6 7.1,19.8 c 0.6,1.8 -0.4,3.9 -2.3,4.8 l -29,13.8 c -1.5,0.7 -2.9,-0.3 -2.6,-1.8 0,0 1.4,-8 2.9,-15.9 9.4,-10.6 18.7,-21.1 18.7,-21.1 1.6,-1.8 4.4,-1.6 5.2,0.4 z"
     id="path3796"
     style="fill:#a9ce3b"
     data-podium="67" /><path
     style="fill:#a9ce3b"
     d="M 310.40966,226.4059 333.2,215.8 c 2.2,-1 4.6,-0.2 5.5,1.8 l 5.4,16.6 c 0.9,2.1 -0.3,4.8 -2.6,5.9 l -22.60019,10.58614"
     id="path5260"
     data-podium="71"
     inkscape:connector-curvature="0" /><path
     style="fill:#a9ce3b"
     d="M 316.99981,251.58614 295.6,261.6 c -2.3,1.1 -4.8,0.2 -5.6,-1.9 l -5.8,-16.5 c -0.7,-2.2 0.5,-4.8 2.8,-5.9 l 22.00966,-9.8941"
     id="path3798"
     data-podium="70"
     inkscape:connector-curvature="0" /><path
     d="m 277.3,246.4 6,16.6 c 0.8,2.1 -0.4,4.7 -2.7,5.8 l -44.5,21.4 c -1.7,0.8 -3.4,-0.4 -3.1,-2.2 l 4.3,-24.7 c 0.3,-1.6 1.4,-3.1 3,-3.8 l 31.8,-14.9 c 2.1,-1.1 4.5,-0.3 5.2,1.8 z"
     id="path3800"
     style="fill:#a9ce3b"
     data-podium="71" /><path
     d="m 239.1,294.3 c 0,0 8.7,-4.3 17.3,-8.6 3.1,9.2 6.3,18.5 9.5,27.8 -8.8,4.6 -17.6,9.2 -17.6,9.2 -2.1,1.1 -4.5,0.3 -5.1,-1.8 l -6.7,-21.3 c -0.6,-1.9 0.5,-4.3 2.6,-5.3 z"
     id="path3802"
     style="fill:#ca2027"
     data-podium="80" /><path
     d="m 257.6,285.1 c 4.7,-2.2 9.4,-4.4 14.1,-6.7 2,5.6 4,11.2 6,16.9 -4.7,2.5 -9.5,4.9 -14.3,7.4 -2,-5.9 -3.9,-11.8 -5.8,-17.6 z"
     id="path3804"
     style="fill:#a9ce3b"
     data-podium="47" /><path
     d="m 263.6,303.7 c 4.8,-2.4 9.6,-4.7 14.3,-7.1 1.2,3.2 2.5,6.3 3.7,9.5 -4.9,2.5 -9.8,5 -14.7,7.5 -1.1,-3.3 -2.2,-6.7 -3.3,-9.9 z"
     id="path3806"
     style="fill:#ca2027"
     data-podium="48" /><path
     d="m 272.6,277.8 c 5.4,-2.7 10.7,-5.3 10.7,-5.3 1.6,-0.8 3.4,-0.2 3.9,1.3 l 7.8,22.3 c 0.5,1.5 -0.3,3.4 -1.9,4.2 0,0 -5.3,2.8 -10.7,5.6 -3.3,-9.4 -6.6,-18.8 -9.8,-28.1 z"
     id="path3808"
     style="fill:#a9ce3b"
     data-podium="49" /><path
     d="m 230.2,298.3 c 4.5,12.9 9,25.9 9,25.9 0.4,1.3 -0.7,2.9 -2.1,3.6 L 210.7,341 c -8.8,4.5 -15.7,-4.3 -10.6,-13.1 0,0 0.6,-0.8 1.1,-1.6 6.8,-8 13.6,-16 20.3,-23.9 2.8,-1.4 5.7,-2.8 8.7,-4.1 z"
     id="path3810"
     style="fill:#ca2027"
     data-podium="72" /><path
     d="m 319.3,258.7 8.3,21.5 c 0.7,1.8 -0.3,4 -2.2,5 l -19.2,9.5 c -1.9,0.9 -4,0.2 -4.6,-1.6 l -7.7,-21.5 c -0.6,-1.7 0.3,-3.9 2.1,-4.8 l 18.6,-9.6 c 2,-0.9 4.1,-0.2 4.7,1.5 z"
     id="path3812"
     style="fill:#ca2027"
     data-podium="74" /><path
     d="m 325.174,252.43451 c 3.00253,-1.5247 7.98599,-3.74085 7.98599,-3.74085 l 10.06199,26.85764 c 0,0 -3.22018,1.66739 -8.29566,4.09301 -1.42343,0.70029 -3.0248,0.17507 -3.55858,-1.13797 l -7.88407,-22.39532 c -0.44483,-1.40057 0.26689,-2.97622 1.69033,-3.67651 z"
     id="path3814"
     style="fill:#ca2027;stroke-width:0.8824746"
     data-podium="75"
     inkscape:connector-curvature="0"
     sodipodi:nodetypes="ccccccc" /><path
     d="m 321.12236,342.30803 46.87032,-23.06548 c 1.60088,-0.76885 3.46858,-0.17085 4.09115,1.28142 l 7.64866,17.68353 c 0.71151,1.53769 -0.0889,3.50253 -1.68982,4.44224 0,0 -1.86769,1.02513 -3.73539,2.05026 -26.50352,-0.34171 -53.09598,-0.68342 -53.09598,-0.68342 -0.88938,0.0854 -0.97832,-1.28142 -0.0889,-1.70855 z"
     id="path3816"
     style="fill:#ed6d23;stroke-width:0.87165165"
     data-podium="79"
     inkscape:connector-curvature="0" /><path
     d="m 338.1549,287.21423 18.44526,-8.33843 c 1.73195,-0.84104 3.63709,-0.0935 4.24327,1.68211 l 8.88655,26.91832 c 0.60619,1.77555 -0.25979,4.01835 -1.90514,4.95285 l -17.59887,8.99912 c -1.73195,0.93449 -3.72369,0.1869 -4.32987,-1.68209 l -9.73294,-27.57904 c -0.69278,-1.869 0.17319,-4.11179 1.99174,-4.95284 z"
     id="path3818"
     style="fill:#ca2027;stroke-width:0.89958388"
     data-podium="77"
     inkscape:connector-curvature="0"
     sodipodi:nodetypes="ccccccccc" /><path
     d="m 308.6,300.8 18.3,-9.3 c 2,-1 4.2,-0.3 5,1.7 l 10.6,27.9 c 0.8,2 -0.3,4.5 -2.3,5.5 l -19.5,9.8 c -2.1,1.1 -4.4,0.2 -5,-1.9 L 306.3,306 c -0.7,-1.9 0.3,-4.2 2.3,-5.2 z"
     id="path3820"
     style="fill:#ca2027"
     data-podium="76" /><path
     style="fill:#ca2027"
     d="M 264.35,344.15 226.3,343.9 c -1.8,0 -1.9,-2.4 -0.3,-3.2 l 33.95,-16.6"
     id="path3329"
     data-podium="82"
     inkscape:connector-curvature="0" /><path
     style="fill:#ca2027"
     d="m 260.5,323.95 34.6,-16.85 c 1.8,-0.9 3.7,-0.2 4.3,1.5 l 10.4,30.5 c 0.8,2.4 -1.2,5.2 -3.7,5.2 l -41.25,-0.1"
     id="path3822"
     data-podium="81"
     inkscape:connector-curvature="0" /><path
     style="fill:#7b5c9e;stroke:none"
     d="m 470.39999,282.50001 23.2,19.4 -15,19.8 -23.6,-19.2 z"
     id="path3168"
     inkscape:connector-curvature="0"
     data-podium="90" /><path
     style="fill:#507134"
     d="m 247.69999,184.30002 17.9,13.5 -7.3,8.3 -18.1,-14.3 z"
     id="path3076"
     inkscape:connector-curvature="0"
     data-podium="103"
     sodipodi:nodetypes="ccccc" /><path
     style="fill:#507134;stroke:none"
     d="m 282.09999,144.80002 18.1,12.9 -13,14.9 -18.4,-13.4 z"
     id="path3078"
     inkscape:connector-curvature="0"
     sodipodi:nodetypes="ccccc"
     data-podium="1007" /><path
     style="fill:#008000;stroke:none;stroke-width:1px;stroke-linecap:butt;stroke-linejoin:miter;stroke-opacity:1"
     d="m 86.001338,338.38724 29.032802,0.51716 -3.9598,18.81615 -21.330362,0.51716 -6.022539,-8.61666 z"
     id="path198"
     inkscape:connector-curvature="0"
     data-podium="111"
     sodipodi:nodetypes="cccccc"
     data-build="3" /><path
     style="fill:#008000;stroke:none;stroke-width:1px;stroke-linecap:butt;stroke-linejoin:miter;stroke-opacity:1"
     d="m 48.248945,336.43014 13.123828,-41.08764 31.257498,1.07759 -15.379899,51.88528 9.050966,16.68772 22.593102,1.31568 -4.80833,22.06173 -33.941121,-0.56568 v -5.65686 l -6.75391,-11.49802 z"
     id="path200"
     inkscape:connector-curvature="0"
     data-podium="91"
     sodipodi:nodetypes="ccccccccccc"
     data-build="3" /><path
     style="fill:#008000;stroke:none;stroke-width:1px;stroke-linecap:butt;stroke-linejoin:miter;stroke-opacity:1"
     d="m 100.48284,300.30296 46.45857,0.45858 -12.65441,14.57158 -38.097055,-0.35148 z"
     id="path204"
     inkscape:connector-curvature="0"
     data-podium="110"
     sodipodi:nodetypes="ccccc"
     data-build="3" /><path
     style="fill:#008000;stroke:none;stroke-width:1px;stroke-linecap:butt;stroke-linejoin:miter;stroke-opacity:1"
     d="m 84.727919,224.94346 15.072791,0.31716 -17.303658,51.68254 15.458578,0.76569 -5.214213,17.38406 -30.94142,-1.29289 z"
     id="path206"
     inkscape:connector-curvature="0"
     data-podium="95"
     sodipodi:nodetypes="ccccccc"
     data-build="3" /><path
     style="fill:#008000;stroke:none;stroke-width:1px;stroke-linecap:butt;stroke-linejoin:miter;stroke-opacity:1"
     d="m 95.612485,187.85128 33.523035,1.63431 -4.1272,14.30467 -17.52894,-0.45858 -6.36151,18.58752 -15.624266,-0.82427 z"
     id="path208"
     inkscape:connector-curvature="0"
     data-podium="98"
     sodipodi:nodetypes="ccccccc"
     data-build="3" /><path
     style="fill:#008000;stroke:none;stroke-width:1px;stroke-linecap:butt;stroke-linejoin:miter;stroke-opacity:1"
     d="m 105.92405,234.9214 7.78236,-24.30918 14.25253,0.60897 5.18716,-15.39002 7.52596,0.0923 c 0,0 -19.9117,58.90273 -24.44716,73.9394 l -22.749382,-0.28076 z"
     id="path210"
     inkscape:connector-curvature="0"
     data-podium="96"
     sodipodi:nodetypes="cccccccc"
     data-build="3" /><path
     style="fill:#008000;stroke:none;stroke-width:1px;stroke-linecap:butt;stroke-linejoin:miter;stroke-opacity:1"
     d="m 107.71227,277.79657 42.94802,0.45858 21.13209,-66.83057 13.84853,0.43432 -17.11371,61.29259 -21.20488,24.66762 -45.73137,-1.04853 z"
     id="path212"
     inkscape:connector-curvature="0"
     data-podium="97"
     sodipodi:nodetypes="cccccccc"
     data-build="3" /><path
     style="fill:#008000;stroke:none;stroke-width:1px;stroke-linecap:butt;stroke-linejoin:miter;stroke-opacity:1"
     d="m 160.39999,127.40002 49.95563,3.13726 -14.48284,47.73726 -36.80295,-2.10662 3.57137,-15.48821 29.83118,0.43665 4.92761,-20.27197 -40.4,-2.44437 z"
     id="path214"
     inkscape:connector-curvature="0"
     data-podium="106"
     sodipodi:nodetypes="ccccccccc"
     data-build="3" /><path
     style="fill:#008000;stroke:none;stroke-width:1px;stroke-linecap:butt;stroke-linejoin:miter;stroke-opacity:1"
     d="m 149.12618,141.26794 13.16498,0.9272 -9.44437,32.7331 -27.4,-1.4 5,-14.511 13.04053,0.45486 z"
     id="path216"
     inkscape:connector-curvature="0"
     data-podium="105"
     sodipodi:nodetypes="ccccccc"
     data-build="3" /><path
     style="fill:#008000;stroke:none;stroke-width:1px;stroke-linecap:butt;stroke-linejoin:miter;stroke-opacity:1"
     d="m 173.19238,207.41037 14.15563,1 7.16741,-29.14487 -13.27868,-0.69289 -1.18959,3.40689 -23.56073,-0.882 -1.23628,5.44829 22.74224,1.21985 z"
     id="path220"
     inkscape:connector-curvature="0"
     data-podium="101"
     sodipodi:nodetypes="ccccccccc"
     data-build="3" /><path
     style="fill:#008000;stroke:none;stroke-width:1px;stroke-linecap:butt;stroke-linejoin:miter;stroke-opacity:1"
     d="m 125.02253,174.23535 27.25857,1.3636 -3.85233,11.13655 -8.85233,-0.30503 -8.40939,-0.4826 -0.89427,2.449 -9.82599,-0.51716 z"
     id="path224"
     inkscape:connector-curvature="0"
     sodipodi:nodetypes="cccccccc"
     data-podium="99"
     data-build="3" /><path
     style="fill:#008000;stroke:none;stroke-width:1px;stroke-linecap:butt;stroke-linejoin:miter;stroke-opacity:1"
     d="m 367.57541,295.58561 7.63675,-3.39412 14.14214,34.36539 -8.34386,3.11127 z"
     id="path226"
     inkscape:connector-curvature="0"
     sodipodi:nodetypes="ccccc"
     data-podium="87" /><path
     style="fill:#008000;stroke:none;stroke-width:1px;stroke-linecap:butt;stroke-linejoin:miter;stroke-opacity:1"
     d="m 411.45917,279.40205 7.70746,-3.25268 14.84925,33.65827 -7.70747,3.25269 z"
     id="path228"
     inkscape:connector-curvature="0"
     sodipodi:nodetypes="ccccc"
     data-podium="88" /><path
     style="fill:#008000;stroke:none;stroke-width:1px;stroke-linecap:butt;stroke-linejoin:miter;stroke-opacity:1"
     d="m 143.2544,195.60103 25.86691,0.91716 -23.32828,74.3325 -27.23467,-0.0686 z"
     id="path222-1"
     inkscape:connector-curvature="0"
     data-podium="102"
     sodipodi:nodetypes="ccccc"
     data-build="3" /><path
     style="fill:#f7cd39"
     d="m 365.99846,224.74599 11.31371,-5.65685 3.46482,8.06102 -11.80868,5.65685 z"
     id="path4600"
     inkscape:connector-curvature="0"
     data-podium="84" /><path
     style="fill:#ca2027"
     d="m 335.19999,248.30001 8.1,-4 c 0,0 1.41675,-0.67775 2.2,-0.4 0.89357,0.31687 1.475,1.5 1.475,1.5 l 8.725,21.1 c 0,0 0.45,0.95 0.05,2.15 -0.4,1.2 -1.75,1.85 -1.75,1.85 l -8.7,4.3 z"
     id="path4602"
     inkscape:connector-curvature="0"
     sodipodi:nodetypes="ccsccsccc"
     data-podium="73" /><path
     style="fill:#808000;stroke:#000000;stroke-width:1px;stroke-linecap:butt;stroke-linejoin:miter;stroke-opacity:1"
     d="m 187.2,305.20001 h 23.59999 l -7.8,8.9 -23.39999,-0.5 z"
     id="path5256"
     inkscape:connector-curvature="0"
     data-podium="19" /></svg>