<?xml version="1.0" encoding="UTF-8" standalone="no"?>
<!-- Generator: Adobe Illustrator 19.1.0, SVG Export Plug-In . SVG Version: 6.00 Build 0)  -->

<svg
   xmlns:dc="http://purl.org/dc/elements/1.1/"
   xmlns:cc="http://creativecommons.org/ns#"
   xmlns:rdf="http://www.w3.org/1999/02/22-rdf-syntax-ns#"
   xmlns:svg="http://www.w3.org/2000/svg"
   xmlns="http://www.w3.org/2000/svg"
   xmlns:sodipodi="http://sodipodi.sourceforge.net/DTD/sodipodi-0.dtd"
   xmlns:inkscape="http://www.inkscape.org/namespaces/inkscape"
   version="1.1"
   x="0px"
   y="0px"
   viewBox="0 0 1200 650"
   style="enable-background:new 0 0 1200 650;"
   xml:space="preserve"
   id="svg4386"
   inkscape:version="0.92.1 r15371"
   width="100%"
   height="100%"
   sodipodi:docname="grand2-floor1.svg"><defs
     id="defs3255" /><metadata
     id="metadata4524"><rdf:RDF><cc:Work
         rdf:about=""><dc:format>image/svg+xml</dc:format><dc:type
           rdf:resource="http://purl.org/dc/dcmitype/StillImage" /></cc:Work></rdf:RDF></metadata><sodipodi:namedview
     pagecolor="#ffffff"
     bordercolor="#666666"
     borderopacity="1"
     objecttolerance="10"
     gridtolerance="10"
     guidetolerance="10"
     inkscape:pageopacity="0"
     inkscape:pageshadow="2"
     inkscape:window-width="1920"
     inkscape:window-height="1017"
     id="namedview4520"
     showgrid="false"
     inkscape:zoom="1.4142135"
     inkscape:cx="977.43111"
     inkscape:cy="201.74242"
     inkscape:window-x="-8"
     inkscape:window-y="-8"
     inkscape:window-maximized="1"
     inkscape:current-layer="svg4386" /><path
     class="st0"
     d="m 873.26161,244.3526 c 12.8,0.1 25.7,0.1 38.5,0.2 -0.6,-3.5 -1.1,-7 -1.7,-10.4 37.7,0.2 72.5,1.05 110.29999,1.25 17.6,21 30.9642,40.35165 49.8642,62.85165 -31.8,-0.2 -72.20708,-0.53033 -72.20708,-0.53033 0,0 -41.34065,0.81102 -68.96461,0.55482 -29.1,-26.4 -28.8925,-29.52614 -55.7925,-53.92614 z"
     id="path4396"
     inkscape:connector-curvature="0"
     style="fill:#ffe680;stroke:#000000"
     data-podium="56"
     sodipodi:nodetypes="cccccccc" /><path
     class="st1"
     d="m 815.32512,224.21941 c 7.7,0 15.05806,0.1 22.75806,0.1 l 1.28839,8.27418 c 9.4,0 20.74454,-0.0768 30.14454,-0.0768 -0.5,-3.2 -0.9,-6.65 -1.4,-9.85 -4.1,0 -10.2,-0.0625 -14.4,-0.1625 -0.5,-3.8 -1.0625,-7.375 -1.5625,-11.075 17.4,0.1 33.65,-0.0875 51.05,0.0125 1.07656,8.22631 2.81561,17.47541 4.2875,26.475 -27,-0.1 -55.86599,-0.2 -82.86599,-0.4 -2.8,-2.2 -6.31872,-4.47678 -9.11872,-6.57678 -0.1,-2.8 0.11872,-3.92062 -0.18128,-6.72062 z"
     id="path4398"
     inkscape:connector-curvature="0"
     style="fill:#ffe680;stroke:#000000"
     data-podium="55"
     sodipodi:nodetypes="cccccccccccc" /><path
     style="fill:#ffe680;fill-opacity:1;stroke:#000000"
     d="m 1005.5942,400.86618 12.286,-11.13693 4.1542,18.11961 -6.0103,6.54074 z"
     id="path3268"
     inkscape:connector-curvature="0"
     data-podium="62"
     sodipodi:nodetypes="ccccc" /><path
     style="fill:#ffe680;stroke:#000000"
     d="m 1003.75,342.375 5.6875,0.25 3.875,24.5625 -5.4375,-0.125 z"
     id="path3388"
     inkscape:connector-curvature="0"
     data-podium="65"
     sodipodi:nodetypes="ccccc" /><path
     style="fill:#ffe680;stroke:#000000;stroke-width:1px;stroke-linecap:butt;stroke-linejoin:miter;stroke-opacity:1"
     d="m 682.50001,222.125 12.75,-0.125 0.625,20 -11,19.5 -18.75,-11.125 z"
     id="path4560"
     inkscape:connector-curvature="0"
     data-podium="48"
     sodipodi:nodetypes="cccccc" /><path
     style="fill:#ffe680;stroke:#000000;stroke-width:1px;stroke-linecap:butt;stroke-linejoin:miter;stroke-opacity:1"
     d="m 732.00001,211.99999 h 13.5 l 2.75,30.00001 -14,0.25 z"
     id="path4562"
     inkscape:connector-curvature="0"
     data-podium="49" /><path
     style="fill:#ffe680;stroke:#000000;stroke-width:1px;stroke-linecap:butt;stroke-linejoin:miter;stroke-opacity:1"
     d="m 769.37501,213.24999 14.25,-0.25 0.75,4.00001 h -4.75 l 1.5,14.125 -10.5,11.125 -19.25,0.375 -0.625,-9.75 20,-0.125 z"
     id="path4564"
     inkscape:connector-curvature="0"
     data-podium="50" /><path
     style="fill:#ffe680;stroke:#000000;stroke-width:1px;stroke-linecap:butt;stroke-linejoin:miter;stroke-opacity:1"
     d="m 665.25001,252.25 18.75,11.625 -12.375,21.625 -18.625,-12.125 z"
     id="path4566"
     inkscape:connector-curvature="0"
     data-podium="47" /><path
     style="fill:#ffe680;stroke:#000000;stroke-width:1px;stroke-linecap:butt;stroke-linejoin:miter;stroke-opacity:1"
     d="m 656.29506,297.33014 7.32995,3.16986 7.125,-12.375 -18.75,-12.75 -3.625,5.875 3.75,2.5 -4.47443,9.65228 4.71187,1.78509 z"
     id="path4568"
     inkscape:connector-curvature="0"
     data-podium="35"
     sodipodi:nodetypes="ccccccccc" /><path
     style="fill:#ffe680;stroke:#000000;stroke-width:1px;stroke-linecap:butt;stroke-linejoin:miter;stroke-opacity:1"
     d="m 665.75001,330 -36.25,0.5 -6.5,-4.75 7.625,-13.75 4.125,2.125 5,-8.375 10.375,7.625 15.5,0.125 z"
     id="path4570"
     inkscape:connector-curvature="0"
     data-podium="34" /><path
     style="fill:#ffe680;stroke:#000000;stroke-width:1px;stroke-linecap:butt;stroke-linejoin:miter;stroke-opacity:1"
     d="m 612.75001,345.125 13.5,13.625 -0.25,25.5 28,0.375 0.375,24.5 -77.625,-0.125 z"
     id="path4572"
     inkscape:connector-curvature="0"
     data-podium="12" /><path
     style="fill:#ffe680;stroke:#000000;stroke-width:1px;stroke-linecap:butt;stroke-linejoin:miter;stroke-opacity:1"
     d="m 801.75001,258.25 11.25,-14.125 17.625,14.375 -11.75,14.75 z"
     id="path4574"
     inkscape:connector-curvature="0"
     data-podium="51" /><path
     style="fill:#ffe680;stroke:#000000;stroke-width:1px;stroke-linecap:butt;stroke-linejoin:miter;stroke-opacity:1"
     d="m 833.50001,244 31.125,-0.125 3.75,2.75 -16.25,18.375 -19.75,-17.875 z"
     id="path4576"
     inkscape:connector-curvature="0"
     data-podium="52" /><path
     style="fill:#ffe680;stroke:#000000;stroke-width:1px;stroke-linecap:butt;stroke-linejoin:miter;stroke-opacity:1"
     d="m 870.25001,248.375 19,16.875 0.625,3.375 -15.375,17.375 -21,-19.5 z"
     id="path4578"
     inkscape:connector-curvature="0"
     data-podium="53" /><path
     style="fill:#ffe680;stroke:#000000;stroke-width:1px;stroke-linecap:butt;stroke-linejoin:miter;stroke-opacity:1"
     d="m 892.12501,272.625 2.75,-0.75 15,13.5 -15.375,19.625 -14.875,-13.625 -0.5,-2.375 z"
     id="path4580"
     inkscape:connector-curvature="0"
     data-podium="54" /><path
     style="fill:#ffe680;stroke:#000000;stroke-width:1px;stroke-linecap:butt;stroke-linejoin:miter;stroke-opacity:1"
     d="m 911.75001,287.75 17.375,14.75 v 2.375 l -15.875,-0.5 -9.625,4.5 -3.875,0.5 -3.75,-2.375 z"
     id="path4582"
     inkscape:connector-curvature="0"
     data-podium="57" /><path
     style="fill:#ffe680;stroke:#000000;stroke-width:1px;stroke-linecap:butt;stroke-linejoin:miter;stroke-opacity:1"
     d="m 941.75001,315.5 1.125,3.25 -4.75,15 -2.125,1.125 -10.75,-2.375 -8.375,-8.25 -5.375,-5.25 -2.25,-4.125 2.125,-4.5 c 0,0 9.375,-0.375 17.375,1.125 8,1.5 13,4 13,4 z"
     id="path4584"
     inkscape:connector-curvature="0"
     data-podium="58" /><path
     style="fill:#ffe680;stroke:#000000;stroke-width:1px;stroke-linecap:butt;stroke-linejoin:miter;stroke-opacity:1"
     d="m 949.12501,321.125 12,9.75 c 0,0 1.375,1.375 1.375,2.625 0,1.25 -8.5,5.75 -8.5,5.75 l -2.75,0.375 c 0,0 -2.5,-2.625 -4.5,-4.5 -2,-1.875 -3.25,-2.875 -3.25,-2.875 l 3.25,-10.25 z"
     id="path4586"
     inkscape:connector-curvature="0"
     data-podium="59" /><path
     style="fill:#ffe680;stroke:#000000;stroke-width:1px;stroke-linecap:butt;stroke-linejoin:miter;stroke-opacity:1"
     d="m 965.87501,337.75 c 0,0 6.75,5 8.75,17.375 2,12.375 2.125,20.875 2.125,20.875 l -2.5,0.875 c 0,0 -3.125,-4.75 -8.25,-9.25 -5.125,-4.5 -11.375,-8.125 -11.375,-8.125 l -3.5,-9.625 c 0,0 -1.25,-1 0.375,-2.625 1.625,-1.625 3.375,-2.625 3.375,-2.625 z"
     id="path4588"
     inkscape:connector-curvature="0"
     data-podium="60" /><path
     style="fill:#ffe680;stroke:#000000;stroke-width:1px;stroke-linecap:butt;stroke-linejoin:miter;stroke-opacity:1"
     d="m 939.00001,426.5 6.875,-0.75 30.5,5.75 14.875,13.5 -35.75,6 -12.375,0.625 z"
     id="path4590"
     inkscape:connector-curvature="0"
     data-podium="1" /><path
     style="fill:#ffe680;stroke:#000000;stroke-width:1px;stroke-linecap:butt;stroke-linejoin:miter;stroke-opacity:1"
     d="m 922.87501,424.25 c 0,0 4.5,1.625 6.875,1.875 2.375,0.25 6.75,-0.125 6.75,-0.125 l 3.625,25.5 c 0,0 -7.625,-1 -11.25,-1.875 -3.625,-0.875 -9.25,-2.75 -9.25,-2.75 z"
     id="path4592"
     inkscape:connector-curvature="0"
     data-podium="2" /><path
     style="fill:#ffe680;stroke:#000000;stroke-width:1px;stroke-linecap:butt;stroke-linejoin:miter;stroke-opacity:1"
     d="m 906.75001,416.5 c 0,0 2.5,2.25 5.625,3.75 3.125,1.5 7.875,2.75 7.875,2.75 l -2.625,23.125 c 0,0 -7.25,-3 -9.5,-4.375 -2.25,-1.375 -9.75,-7.125 -9.75,-7.125 z"
     id="path4594"
     inkscape:connector-curvature="0"
     data-podium="3" /><path
     style="fill:#ffe680;stroke:#000000;stroke-width:1px;stroke-linecap:butt;stroke-linejoin:miter;stroke-opacity:1"
     d="m 891.62501,403.125 c 0,0 2.75,4 5.25,6 2.5,2 7.75,6 7.75,6 l -8.25,18 -20.5,-17.875 z"
     id="path4596"
     inkscape:connector-curvature="0"
     data-podium="4" /><path
     style="fill:#ffe680;stroke:#000000;stroke-width:1px;stroke-linecap:butt;stroke-linejoin:miter;stroke-opacity:1"
     d="m 886.50001,395.75 3.625,5.5 -15.75,12.125 -2,-1.875 -0.625,-2.5 -21.875,0.125 -1.5,-13.25 z"
     id="path4598"
     inkscape:connector-curvature="0"
     data-podium="5" /><path
     style="fill:#ffe680;stroke:#000000;stroke-width:1px;stroke-linecap:butt;stroke-linejoin:miter;stroke-opacity:1"
     d="m 920.87501,392.125 c 0,0 2.875,1.625 5.125,1.875 2.25,0.25 5.25,-0.125 5.25,-0.125 l 19.125,17.625 c 0,0 1.25,2 0.75,3.5 -0.5,1.5 -2.25,2.25 -2.25,2.25 0,0 -8.25,2 -17.125,0.5 -8.875,-1.5 -18,-6.625 -18,-6.625 z"
     id="path4600"
     inkscape:connector-curvature="0"
     data-podium="23" /><path
     style="fill:#ffe680;stroke:#000000;stroke-width:1px;stroke-linecap:butt;stroke-linejoin:miter;stroke-opacity:1"
     d="m 908.25001,384.875 6.375,5.625 -4.625,15 c 0,0 0.5,1.25 -1.375,1.375 -1.875,0.125 -3.25,-1.75 -3.25,-1.75 l -10.75,-10.375 c 0,0 -0.625,-0.625 -0.5,-1.625 0.125,-1 1.875,-2.375 1.875,-2.375 z"
     id="path4602"
     inkscape:connector-curvature="0"
     data-podium="22" /><path
     style="fill:#ffe680;stroke:#000000;stroke-width:1px;stroke-linecap:butt;stroke-linejoin:miter;stroke-opacity:1"
     d="m 817.25001,396.125 27.5,-0.25 1.875,13.25 -28.125,-0.125 z"
     id="path4604"
     inkscape:connector-curvature="0"
     data-podium="6" /><path
     style="fill:#ffe680;stroke:#000000;stroke-width:1px;stroke-linecap:butt;stroke-linejoin:miter;stroke-opacity:1"
     d="m 881.25001,353.5 h 7.625 l 13.875,13 3.75,10.5 -13.125,9.125 c 0,0 -0.375,1.375 -2.375,1.125 -2,-0.25 -2.5,-1.875 -2.5,-1.875 0,0 -4.75,-7.875 -6,-14.875 -1.25,-7 -2.25,-14.875 -2.25,-14.875 z"
     id="path4606"
     inkscape:connector-curvature="0"
     data-podium="21" /><path
     style="fill:#ffe680;stroke:#000000;stroke-width:1px;stroke-linecap:butt;stroke-linejoin:miter;stroke-opacity:1"
     d="m 790.12501,395.875 24.5,0.25 1.25,12.875 -25,0.25 z"
     id="path4608"
     inkscape:connector-curvature="0"
     data-podium="7" /><path
     style="fill:#ffe680;stroke:#000000;stroke-width:1px;stroke-linecap:butt;stroke-linejoin:miter;stroke-opacity:1"
     d="m 779.25001,395.875 8.125,0.125 1.375,12.625 -8.875,-0.125 z"
     id="path4610"
     inkscape:connector-curvature="0"
     data-podium="8" /><path
     style="fill:#ffe680;stroke:#000000;stroke-width:1px;stroke-linecap:butt;stroke-linejoin:miter;stroke-opacity:1"
     d="m 763.87501,395.75 12.125,0.125 1.375,12.875 -12.5,-0.125 z"
     id="path4612"
     inkscape:connector-curvature="0"
     data-podium="9" /><path
     style="fill:#ffe680;stroke:#000000;stroke-width:1px;stroke-linecap:butt;stroke-linejoin:miter;stroke-opacity:1"
     d="m 734.87501,395.5 26.5,-0.125 1,12.5 h -27.5 z"
     id="path4614"
     inkscape:connector-curvature="0"
     data-podium="10" /><path
     style="fill:#ffe680;stroke:#000000;stroke-width:1px;stroke-linecap:butt;stroke-linejoin:miter;stroke-opacity:1"
     d="m 696.62501,394.75 33.875,0.125 0.25,13 -18.125,0.125 0.125,-2.625 -16.625,-0.25 z"
     id="path4616"
     inkscape:connector-curvature="0"
     data-podium="11" /><path
     style="fill:#ffe680;stroke:#000000;stroke-width:1px;stroke-linecap:butt;stroke-linejoin:miter;stroke-opacity:1"
     d="m 695.25001,352.5 20.5,-0.25 2.375,34.25 h -22.5 z"
     id="path4618"
     inkscape:connector-curvature="0"
     data-podium="13" /><path
     style="fill:#ffe680;stroke:#000000;stroke-width:1px;stroke-linecap:butt;stroke-linejoin:miter;stroke-opacity:1"
     d="m 721.00001,353 35,0.375 3,33.375 -35.75,-0.125 z"
     id="path4620"
     inkscape:connector-curvature="0"
     data-podium="14" /><path
     style="fill:#ffe680;stroke:#000000;stroke-width:1px;stroke-linecap:butt;stroke-linejoin:miter;stroke-opacity:1"
     d="m 795.50001,353 3.5,34 -10.125,0.125 -2.625,-26.375 -26.875,-0.125 -0.5,-7.875 z"
     id="path4622"
     inkscape:connector-curvature="0"
     data-podium="15" /><path
     style="fill:#ffe680;stroke:#000000;stroke-width:1px;stroke-linecap:butt;stroke-linejoin:miter;stroke-opacity:1"
     d="m 821.62501,352.75 1.75,19.125 -21.75,0.25 -1.75,-19.375 z"
     id="path4624"
     inkscape:connector-curvature="0"
     data-podium="16" /><path
     style="fill:#ffe680;stroke:#000000;stroke-width:1px;stroke-linecap:butt;stroke-linejoin:miter;stroke-opacity:1"
     d="m 825.62501,387.875 -1.625,-13.875 -21.875,0.375 0.875,13.125 z"
     id="path4626"
     inkscape:connector-curvature="0"
     data-podium="17" /><path
     style="fill:#ffe680;stroke:#000000;stroke-width:1px;stroke-linecap:butt;stroke-linejoin:miter;stroke-opacity:1"
     d="m 826.50001,352.625 h 21.75 l 2.375,17.25 -22.375,0.375 z"
     id="path4628"
     inkscape:connector-curvature="0"
     data-podium="18" /><path
     style="fill:#ffe680;stroke:#000000;stroke-width:1px;stroke-linecap:butt;stroke-linejoin:miter;stroke-opacity:1"
     d="m 852.75001,388.125 h -22.5 l -1.75,-16 22.125,-0.25 z"
     id="path4630"
     inkscape:connector-curvature="0"
     data-podium="19" /><path
     style="fill:#ffe680;stroke:#000000;stroke-width:1px;stroke-linecap:butt;stroke-linejoin:miter;stroke-opacity:1"
     d="m 855.25001,353.125 15.125,-0.125 c 0,0 1.875,0.375 2.625,1.375 0.75,1 -1,4.375 0.125,10.25 1.125,5.875 7,19.375 7,19.375 0,0 0.875,2.25 0.375,3 -0.5,0.75 -2.125,1.125 -2.125,1.125 l -17.375,0.125 c 0,0 -2.875,-0.25 -4,-1.125 -1.125,-0.875 -1.375,-4.25 -1.375,-4.25 l -3.375,-26.375 c 0,0 0,-1.875 0.875,-2.5 0.875,-0.625 2.125,-0.875 2.125,-0.875 z"
     id="path4632"
     inkscape:connector-curvature="0"
     data-podium="20" /><path
     style="fill:#ffe680;stroke:#000000;stroke-width:1px;stroke-linecap:butt;stroke-linejoin:miter;stroke-opacity:1"
     d="m 823.12501,317 20.5,-0.375 1.625,15.625 -21,0.125 z"
     id="path4634"
     inkscape:connector-curvature="0"
     data-podium="25"
     sodipodi:nodetypes="ccccc" /><path
     style="fill:#ffe680;stroke:#000000;stroke-width:1px;stroke-linecap:butt;stroke-linejoin:miter;stroke-opacity:1"
     d="m 851.25001,320.25 26,23.375 c 0,0 1.25,1.5 0.125,2.125 -1.125,0.625 -23,0.75 -23,0.75 0,0 -1.5,0.375 -2.5,-0.5 -1,-0.875 -1.5,-2.375 -1.5,-2.375 l -2.125,-21.5 c 0,0 0,-1.75 1,-2.125 1,-0.375 2,0.25 2,0.25 z"
     id="path4636"
     inkscape:connector-curvature="0"
     data-podium="24" /><path
     style="fill:#ffe680;stroke:#000000;stroke-width:1px;stroke-linecap:butt;stroke-linejoin:miter;stroke-opacity:1"
     d="m 796.87501,316.25 20.875,-0.25 1.5,13.75 h -21.5 z"
     id="path4638"
     inkscape:connector-curvature="0"
     data-podium="26" /><path
     style="fill:#ffe680;stroke:#000000;stroke-width:1px;stroke-linecap:butt;stroke-linejoin:miter;stroke-opacity:1"
     d="m 820.75001,346 -1.75,-14.125 h -20.625 l 0.875,14 z"
     id="path4640"
     inkscape:connector-curvature="0"
     data-podium="27" /><path
     style="fill:#ffe680;stroke:#000000;stroke-width:1px;stroke-linecap:butt;stroke-linejoin:miter;stroke-opacity:1"
     d="m 771.25001,316.875 h 20.75 l 2.125,30.625 -20.75,-0.125 z"
     id="path4642"
     inkscape:connector-curvature="0"
     data-podium="28"
     sodipodi:nodetypes="ccccc" /><path
     style="fill:#ffe680;stroke:#000000;stroke-width:1px;stroke-linecap:butt;stroke-linejoin:miter;stroke-opacity:1"
     d="m 744.87501,316.5 20.875,-0.125 2.625,29.25 -21.375,0.25 z"
     id="path4644"
     inkscape:connector-curvature="0"
     data-podium="29" /><path
     style="fill:#ffe680;stroke:#000000;stroke-width:1px;stroke-linecap:butt;stroke-linejoin:miter;stroke-opacity:1"
     d="m 719.12501,316.25 20.25,0.125 2.625,29.375 h -21.75 z"
     id="path4646"
     inkscape:connector-curvature="0"
     data-podium="30" /><path
     style="fill:#ffe680;stroke:#000000;stroke-width:1px;stroke-linecap:butt;stroke-linejoin:miter;stroke-opacity:1"
     d="m 693.25001,316.25 20.375,-0.125 1.75,29.25 -21.25,0.25 z"
     id="path4648"
     inkscape:connector-curvature="0"
     data-podium="31" /><path
     style="fill:#ffe680;stroke:#000000;stroke-width:1px;stroke-linecap:butt;stroke-linejoin:miter;stroke-opacity:1"
     d="m 671.75001,310.5 15.625,-0.125 1,19.625 -16.5,0.625 z"
     id="path4650"
     inkscape:connector-curvature="0"
     data-podium="32" /><path
     style="fill:#ffe680;stroke:#000000;stroke-width:1px;stroke-linecap:butt;stroke-linejoin:miter;stroke-opacity:1"
     d="m 681.50001,282.5 c 0,0 1,-1.625 2.5,-1.625 1.5,0 2.75,2.625 2.75,2.625 l 0.75,25.25 -16.125,0.25 -0.375,-7.5 z"
     id="path4652"
     inkscape:connector-curvature="0"
     data-podium="33" /><path
     style="fill:#ffe680;stroke:#000000;stroke-width:1px;stroke-linecap:butt;stroke-linejoin:miter;stroke-opacity:1"
     d="m 691.12501,282.375 h 20.875 l 1.375,28.625 -20.625,-0.25 z"
     id="path4654"
     inkscape:connector-curvature="0"
     data-podium="36" /><path
     style="fill:#ffe680;stroke:#000000;stroke-width:1px;stroke-linecap:butt;stroke-linejoin:miter;stroke-opacity:1"
     d="m 717.37501,282.875 20,0.375 2.125,27.375 -20.75,0.5 z"
     id="path4656"
     inkscape:connector-curvature="0"
     data-podium="37" /><path
     style="fill:#ffe680;stroke:#000000;stroke-width:1px;stroke-linecap:butt;stroke-linejoin:miter;stroke-opacity:1"
     d="m 742.87501,283.25 19.875,0.125 2.75,27.375 -21,0.125 z"
     id="path4658"
     inkscape:connector-curvature="0"
     data-podium="38" /><path
     style="fill:#ffe680;stroke:#000000;stroke-width:1px;stroke-linecap:butt;stroke-linejoin:miter;stroke-opacity:1"
     d="m 768.00001,283.25 20.25,0.25 3.125,27.125 -20.875,0.25 z"
     id="path4660"
     inkscape:connector-curvature="0"
     data-podium="39" /><path
     style="fill:#ffe680;stroke:#000000;stroke-width:1px;stroke-linecap:butt;stroke-linejoin:miter;stroke-opacity:1"
     d="m 794.87501,299.375 13.75,-0.375 1.125,11.25 -10.375,0.25 c 0,0 -2,0.375 -3.25,-0.625 -1.25,-1 -1.5,-3.25 -1.5,-3.25 z"
     id="path4662"
     inkscape:connector-curvature="0"
     data-podium="40" /><path
     style="fill:#ffe680;stroke:#000000;stroke-width:1px;stroke-linecap:butt;stroke-linejoin:miter;stroke-opacity:1"
     d="m 794.62501,264.75 11.875,10.5 1.75,21.5 -14.125,-0.125 -3,-29 c 0,0 -0.5,-1.75 0.875,-2.5 1.375,-0.75 2.625,-0.375 2.625,-0.375 z"
     id="path4664"
     inkscape:connector-curvature="0"
     data-podium="42" /><path
     style="fill:#ffe680;stroke:#000000;stroke-width:1px;stroke-linecap:butt;stroke-linejoin:miter;stroke-opacity:1"
     d="m 838.00001,305.375 c 0,0 1.5,1.625 1.125,3.25 -0.375,1.625 -2.75,2.25 -2.75,2.25 h -24.5 l -3.375,-33.375 z"
     id="path4666"
     inkscape:connector-curvature="0"
     data-podium="41" /><path
     style="fill:#ffe680;stroke:#000000;stroke-width:1px;stroke-linecap:butt;stroke-linejoin:miter;stroke-opacity:1"
     d="m 700.25001,249.5 9.625,0.125 1.375,27.25 -20.25,0.125 -0.25,-10.5 z"
     id="path4668"
     inkscape:connector-curvature="0"
     data-podium="46" /><path
     style="fill:#ffe680;stroke:#000000;stroke-width:1px;stroke-linecap:butt;stroke-linejoin:miter;stroke-opacity:1"
     d="m 715.12501,250 20.125,0.125 1.875,26.875 -20.625,0.25 z"
     id="path4670"
     inkscape:connector-curvature="0"
     data-podium="45" /><path
     style="fill:#ffe680;stroke:#000000;stroke-width:1px;stroke-linecap:butt;stroke-linejoin:miter;stroke-opacity:1"
     d="m 740.25001,250.125 19.75,0.125 3,27.375 h -20.625 z"
     id="path4672"
     inkscape:connector-curvature="0"
     data-podium="44" /><path
     style="fill:#ffe680;stroke:#000000;stroke-width:1px;stroke-linecap:butt;stroke-linejoin:miter;stroke-opacity:1"
     d="m 779.75001,250.125 6.375,6.375 2.375,21 -21.125,0.125 -1.875,-27.5 z"
     id="path4674"
     inkscape:connector-curvature="0"
     data-podium="43" /><path
     style="fill:#ffe680;stroke:#000000;stroke-width:1px;stroke-linecap:butt;stroke-linejoin:miter;stroke-opacity:1"
     d="m 721.77928,242.88325 10.42983,-0.0839 -2.47488,-30.7194 h -9.89949 z"
     id="path4554"
     inkscape:connector-curvature="0"
     sodipodi:nodetypes="ccccc"
     data-podium="66" /><path
     style="fill:#ffe680;stroke:#000000;stroke-width:1px;stroke-linecap:butt;stroke-linejoin:miter;stroke-opacity:1"
     d="m 848.43351,307.72997 8.04962,-8.1014 -9.8995,-8.66205 -8.48528,7.24784 z"
     id="path4556"
     inkscape:connector-curvature="0"
     sodipodi:nodetypes="ccccc"
     data-podium="67" /><path
     style="fill:#ffe680;stroke:#000000;stroke-width:1px;stroke-linecap:butt;stroke-linejoin:miter;stroke-opacity:1"
     d="m 698.12503,233.99998 h 11.625 l 0.5,8 -12.125,0.25 z"
     id="path5884"
     inkscape:connector-curvature="0"
     data-podium="51" /><path
     style="fill:#ffe680;stroke:#000000;stroke-width:1px;stroke-linecap:butt;stroke-linejoin:miter;stroke-opacity:1"
     d="m 824.62503,334.49999 20.75,0.125 1.375,12.125 -21.25,0.25 z"
     id="path5886"
     inkscape:connector-curvature="0"
     data-podium="61" /><path
     style="fill:#ffe680;stroke:#000000;stroke-width:1px;stroke-linecap:butt;stroke-linejoin:miter;stroke-opacity:1"
     d="m 997.72771,302.457 3.88909,18.208 -47.55294,0.70711 -20.15254,-19.09188 z"
     id="path5899"
     inkscape:connector-curvature="0"
     data-podium="67" /><path
     style="fill:#ffe680;stroke:#000000;stroke-width:1px;stroke-linecap:butt;stroke-linejoin:miter;stroke-opacity:1"
     d="m 663.88491,302.72217 0.17677,9.01561 -13.43503,-0.17678 -8.66205,-7.15945 5.03813,-9.104 z"
     id="path5901"
     inkscape:connector-curvature="0"
     data-podium="68" /></svg>