<?xml version="1.0" encoding="UTF-8" standalone="no"?>
<!-- Generator: Adobe Illustrator 21.1.0, SVG Export Plug-In . SVG Version: 6.00 Build 0)  -->

<svg
   xmlns:dc="http://purl.org/dc/elements/1.1/"
   xmlns:cc="http://creativecommons.org/ns#"
   xmlns:rdf="http://www.w3.org/1999/02/22-rdf-syntax-ns#"
   xmlns:svg="http://www.w3.org/2000/svg"
   xmlns="http://www.w3.org/2000/svg"
   xmlns:sodipodi="http://sodipodi.sourceforge.net/DTD/sodipodi-0.dtd"
   xmlns:inkscape="http://www.inkscape.org/namespaces/inkscape"
   version="1.1"
   x="0px"
   y="0px"
   viewBox="0 0 1200 650"
   xml:space="preserve"
   id="svg154"
   sodipodi:docname="grand2-floor4.svg.2019_02_28_11_59_22.0.svg"
   width="1200"
   height="650"
   inkscape:version="0.92.1 r15371"><metadata
     id="metadata160"><rdf:RDF><cc:Work
         rdf:about=""><dc:format>image/svg+xml</dc:format><dc:type
           rdf:resource="http://purl.org/dc/dcmitype/StillImage" /><dc:title /></cc:Work></rdf:RDF></metadata><defs
     id="defs158" /><sodipodi:namedview
     pagecolor="#ffffff"
     bordercolor="#666666"
     borderopacity="1"
     objecttolerance="10"
     gridtolerance="10"
     guidetolerance="10"
     inkscape:pageopacity="0"
     inkscape:pageshadow="2"
     inkscape:window-width="1920"
     inkscape:window-height="1017"
     id="namedview156"
     showgrid="false"
     inkscape:zoom="0.65230769"
     inkscape:cx="207.53735"
     inkscape:cy="361.41066"
     inkscape:window-x="-8"
     inkscape:window-y="-8"
     inkscape:window-maximized="1"
     inkscape:current-layer="svg154" /><path
     class="st0"
     d="m 921.6,311.2 c -3,-3.2 -9,-9.7 -10.9,-13.5 -2.6,-5.1 -3.2,-7.5 -3.8,-9.9 0,-0.1 0,-0.2 0,-0.2 -0.8,-5.3 -5.7,-9.7 -10.9,-9.7 0,0 -7.1,-0.1 -7.1,-0.1 -8,-0.1 -18.3,-0.1 -18.3,-0.1 -1.7,0 -2.9,1.4 -2.7,3.1 l 3.7,28.6 c 0.2,1.8 1.8,3.2 3.6,3.3 0,0 10.3,0.1 18.3,0.1 0.1,0 27.6,0.2 27.6,0.2 0.8,0 1.1,-1.1 0.5,-1.8 z"
     id="path15"
     inkscape:connector-curvature="0"
     style="fill:none;stroke:#000000;stroke-miterlimit:10"
     data-podium="07" /><path
     id="path19"
     style="fill:none;stroke:#000000;stroke-miterlimit:10"
     d="m 950.2,306.2 c -14.5,-0.1 -27.8,-9.9 -29.6,-21.8 -1.8,-11.8 8.3,-21.1 22.5,-21 14.3,0.1 27.5,9.7 29.6,21.4 2.1,11.9 -8,21.5 -22.5,21.4 z m -7.8,-47.1 c -17.1,-0.1 -29.2,11.1 -27,25.2 2.2,14.3 18.1,26.1 35.6,26.3 17.5,0.1 29.5,-11.5 27,-25.8 -2.7,-14.1 -18.5,-25.5 -35.6,-25.7 z"
     data-podium="55"
     inkscape:connector-curvature="0" /><path
     class="st0"
     d="m 1037.2837,289.46125 c 2,9.3 3,14.271 5,23.571 -11.1,1.7 -15.8837,4.76775 -19.3837,7.36775 -10,-8.5 -19.4,-14.4 -29.2,-22.8 -1.3,-1.5 -2.7,-3 -1.7,-5.3 0.9,-2.3 2.1,-2.6 3.2,-2.8 11.4,0 30.7837,-0.13875 42.0837,-0.0387 z"
     id="path21"
     inkscape:connector-curvature="0"
     style="fill:none;stroke:#000000;stroke-miterlimit:10"
     datapodium="22"
     data-podium="85"
     sodipodi:nodetypes="ccccccc" /><path
     class="st0"
     d="m 1075.9084,289.90419 c 1.7,7.6 2.6605,12.8479 4.3605,20.4479 -6.8,0 -12.3689,-0.55209 -19.9689,-0.0521 -7.6,0.6 -10.0837,0.72575 -15.9837,2.22575 -2,-9.3 -3.0678,-13.929 -4.9678,-23.029 14.4786,-0.0226 24.3322,0.77425 36.5599,0.40745 z"
     id="path23"
     inkscape:connector-curvature="0"
     style="fill:none;stroke:#000000;stroke-miterlimit:10"
     data-podium="84"
     sodipodi:nodetypes="cccccc" /><path
     class="st0"
     d="m 1145.9547,269.28699 c 6.2,7.2 13.2453,15.21301 19.5453,22.51301 2.1,4.2 4.3,8.5 0.5,13.3 -5,6.4 -9.716,6.13225 -15.516,5.83225 -1.3521,0.0694 -2.5884,0.003 -4.4824,-0.029 -2.2404,-7.73387 -3.913,-12.5935 -6.1873,-20.0935 0.7423,-0.002 1.4339,-0.1726 2.0746,-0.242 0.7,0.1 1.0629,-0.23875 1.0919,-1.78726 0.013,-0.6707 -1.0486,-1.30325 -1.4486,-1.80325 -3.2,-2.8 -7.6,-5.21924 -10.8,-7.91924 4,-2.7 11.4225,-7.17101 15.2225,-9.77101 z"
     id="path25"
     inkscape:connector-curvature="0"
     style="fill:none;stroke:#000000;stroke-miterlimit:10"
     data-podium="81"
     sodipodi:nodetypes="cccccccsccc" /><path
     class="st0"
     d="m 957.8,250.9 c -1.5,1.7 -0.2,4.2 2.6,5.2 3,1 5.3,2.1 7.4,3.5 2.2,1.4 4.2,3.2 5.8,4.7 1.3,1.2 3.7,1.3 4.6,0.1 5.8,-7.1 19.7,-23.5 25.7,-30.8 1.4,-1.7 0.9,-4 -1.3,-5.6 -4.1,-3.2 -9.3,-6.9 -13.2,-10 -1.1,-0.9 -2.9,-0.9 -3.7,0 -5.7,7 -20.7,24.5 -27.9,32.9 z"
     id="path27"
     inkscape:connector-curvature="0"
     style="fill:none;stroke:#000000;stroke-miterlimit:10"
     data-podium="49" /><path
     class="st0"
     d="m 1009.9,157.4 c 7.1,0 14.2,0.1 21.3,0.1 1.5,7 1.916,12.91599 3.516,20.01599 -6.6,0 -12.658,-0.1 -19.358,-0.1 -0.5,1.1 -1.1678,2.7065 -1.6678,3.8065 -4.3,-4.1 -7.9902,-7.62249 -12.2902,-11.72249 v -6 c 0,-3.5 3.6,-6.1 8.5,-6.1 z"
     id="path29"
     inkscape:connector-curvature="0"
     style="fill:none;stroke:#000000;stroke-miterlimit:10"
     data-podium="62"
     sodipodi:nodetypes="scccccss" /><path
     class="st0"
     d="m 1016.7,179.4 c 6.4,0 12.8,0.1 19.2,0.1 0.1,0.3 0.1,0.5 0.2,0.8 11.2,0.1 22.3,0.1 33.5,0.2 2.9,3.2 5.1225,5.48699 8.1225,8.68699 -4.5,4 -9.0678,8.23876 -13.5678,12.23876 -3.9,-2.1 -7.1225,-4.74201 -15.1225,-6.84201 -8,-2.2 -14.5322,-1.28374 -16.1322,-0.98374 -1.6,0.3 -2.1,0.8 -3.1,0.7 -1,-0.1 -1.3,-0.3 -1.7,-0.6 -4,-3.3 -7.9,-6.6 -11.9,-9.9 -0.3,-0.3 -0.6,-0.6 -0.7,-1.2 -0.2,-0.7 0.5,-2 1.2,-3.2 z"
     id="path31"
     inkscape:connector-curvature="0"
     style="fill:none;stroke:#000000;stroke-miterlimit:10"
     data-podium="69"
     sodipodi:nodetypes="cccccccsscccc" /><path
     class="st0"
     d="M 1099.7814,214.93349 C 1092.5814,206.53349 1086.1,198.9 1079,190.6 c -4.4,3.9 -8.8,7.8 -13.2,11.8 3.7,2.4 7.5,4.8 12.6,10 5.1,5.2 7.2647,8.67302 9.6647,12.77302 4,-3.4 7.7167,-6.93953 11.7167,-10.23953 z"
     id="path33"
     inkscape:connector-curvature="0"
     style="fill:none;stroke:#000000;stroke-miterlimit:10"
     data-podium="70"
     sodipodi:nodetypes="cccscc" /><path
     class="st0"
     d="m 1112.5209,229.67302 c -4,-4.6 -7.4209,-8.67302 -11.4209,-13.27302 l -12.3,10.2 c 1,1.7 2,3.4 3.6,7.3 1.6,3.8 2.7,6.7814 3.9,10.3814 5.6,-5 10.6209,-9.80838 16.2209,-14.60838 z"
     id="path35"
     inkscape:connector-curvature="0"
     style="fill:none;stroke:#000000;stroke-miterlimit:10"
     data-podium="71"
     sodipodi:nodetypes="cccccc" /><path
     class="st0"
     d="m 1129,248.9 c -5.2,-6 -10.3,-12 -15.4,-18 -5.6,4.9 -11.3,9.9 -16.9,14.9 0.4,1.6 0.8,3.3 1.2,4.9 0.4,0.7 0.9,1.5 1.3,2.2 8,6.6 16,13.3 24.1,19.9 0.8,0.5 1.6,1 2.5,0.8 0.9,-0.2 1.2,-0.7 1.6,-1.2 1.3,-1.7 2.5,-3.4 3.8,-5 -3.5,-4.1 -7,-8.2 -10.5,-12.3 2.6,-2.1 5.5,-4.1 8.3,-6.2 z"
     id="path37"
     inkscape:connector-curvature="0"
     style="fill:none;stroke:#000000;stroke-miterlimit:10"
     data-podium="72" /><path
     class="st0"
     d="m 807.7,134.7 c -9.2,-0.1 -18.3,-0.1 -27.5,-0.2 1,10.5 2.1,21.1 3.1,31.8 9.3,0.1 18.6,0.1 27.9,0.2 -1.2,-10.7 -2.4,-21.3 -3.5,-31.8 z"
     id="path39"
     inkscape:connector-curvature="0"
     style="fill:none;stroke:#000000;stroke-miterlimit:10"
     data-podium="39" /><path
     class="st0"
     d="m 855,338.2 c -7.6,-0.1 -15.2,-0.1 -22.7,-0.2 -0.7,-6.3 -1.4,-12.5 -2.1,-18.7 7.5,0.1 15,0.1 22.5,0.2 0.8,6.2 1.6,12.4 2.3,18.7 z"
     id="path41"
     inkscape:connector-curvature="0"
     style="fill:none;stroke:#000000;stroke-miterlimit:10"
     data-podium="04" /><path
     class="st0"
     d="m 873,338.3 c -5.4,0 -10.8,-0.1 -16.2,-0.1 -0.8,-6.3 -1.5,-12.5 -2.3,-18.7 5.4,0 10.7,0.1 16.1,0.1 0.8,6.2 1.6,12.4 2.4,18.7 z"
     id="path43"
     inkscape:connector-curvature="0"
     style="fill:none;stroke:#000000;stroke-miterlimit:10"
     data-podium="03" /><path
     class="st0"
     d="m 911.4,338.6 c -12.4,-0.1 -24.8,-0.2 -37.1,-0.3 -0.8,-6.3 -1.6,-12.5 -2.4,-18.7 12.3,0.1 24.5,0.2 36.8,0.3 0.8,6.2 1.8,12.5 2.7,18.7 z"
     id="path45"
     inkscape:connector-curvature="0"
     style="fill:none;stroke:#000000;stroke-miterlimit:10"
     data-podium="02" /><path
     class="st0"
     d="m 969.5,328.8 c -3.9,1.3 -8.1,2.5 -16.2,2.3 -8.1,-0.2 -23.6,-11.3 -23.6,-11.3 0,0 -11,0 -19.9,0.1 0.5,3.3 2.2,15.2 2.7,18.6 4.6,0 9.1,0.1 13.7,0.1 3.3,2.8 6.7,5.7 10.2,7.9 3.2,2 7.7,4.1 13,5.8 3.1,1 5.6,1.7 8.1,1.9 4,0.3 9.3,-0.3 15.6,-2.2 5.1,-1.6 8.6,-3.1 12.1,-4.5 -6.5,-8.6 -9.3,-10.2 -15.7,-18.7 z"
     id="path47"
     inkscape:connector-curvature="0"
     style="fill:none;stroke:#000000;stroke-miterlimit:10"
     data-podium="01" /><path
     class="st0"
     d="m 831.5,338 c -16.1,-0.1 -32.2,-0.3 -48.3,-0.4 -0.6,-6.3 -1.1,-12.5 -1.7,-18.7 16,0.1 32,0.3 47.9,0.4 0.7,6.2 1.4,12.4 2.1,18.7 z"
     id="path49"
     inkscape:connector-curvature="0"
     style="fill:none;stroke:#000000;stroke-miterlimit:10"
     data-podium="05" /><path
     class="st0"
     d="m 617.6,336.1 c 0,-3.1 0,-6.2 0,-9.3 19.8,0.2 24.9,0.2 44.8,0.4 1.2,1.4 2.4,2.9 3.6,4.3 11.3,0.1 22.7,0.2 34,0.3 1.7,-1.7 3.4,-3.4 5.1,-5.1 9.2,0.1 18.3,0.1 27.5,0.2 0.2,3.4 0.5,6.7 0.7,10.1 -30.3,-0.2 -60.6,-0.5 -90.8,-0.7 -1.6,-2 -3.3,-4.1 -7.4,-4.2 -4.7,-0.2 -6.4,2 -8.1,4.1 -8,-0.1 -1.3,0 -9.4,-0.1 z"
     id="path51"
     inkscape:connector-curvature="0"
     style="fill:none;stroke:#000000;stroke-miterlimit:10"
     data-podium="16" /><path
     class="st0"
     d="m 781.9,337.5 c -13.7,-0.1 -27.5,-0.2 -41.2,-0.3 -0.4,-6.3 -0.9,-12.5 -1.3,-18.7 13.6,0.1 27.3,0.2 40.9,0.3 0.5,6.3 1.1,12.5 1.6,18.7 z"
     id="path53"
     inkscape:connector-curvature="0"
     style="fill:none;stroke:#000000;stroke-miterlimit:10"
     data-podium="06" /><polygon
     class="st0"
     points="748.8,276.9 751.5,311.7 774.3,311.9 772.1,287.8 789.6,288 788.6,277.2 771.1,277 762,277 "
     id="polygon55"
     style="fill:none;stroke:#000000;stroke-miterlimit:10"
     data-podium="10" /><path
     class="st0"
     d="m 825.4,277.4 c -11.92391,-0.037 -23.94364,-0.12933 -35.03849,-0.3677 l 1,10.9355 L 802.1,288 l 0.77399,7.06237 27.30325,-0.0932 L 828.3,280.1 c 0,-1.5 -1.4,-2.7 -2.9,-2.7 z"
     id="path57"
     inkscape:connector-curvature="0"
     style="fill:none;stroke:#000000;stroke-miterlimit:10"
     data-podium="09"
     sodipodi:nodetypes="cccccccc" /><polygon
     class="st0"
     points="844.6,146.7 847.2,166.7 811.5,166.5 807.7,134.7 836.2,134.8 837.7,146.6 "
     id="polygon59"
     style="fill:none;stroke:#000000;stroke-miterlimit:10"
     data-podium="40" /><path
     class="st0"
     d="m 760.4,153.4 c -0.6,-6.4 -1.1,-12.7 -1.7,-19 -6.9,0 -13.8,-0.1 -20.7,-0.1 0.7,8.9 2.5,31.8 2.5,31.8 l 42.6,0.3 -1.3,-12.8 z"
     id="path61"
     inkscape:connector-curvature="0"
     style="fill:none;stroke:#000000;stroke-miterlimit:10"
     data-podium="38" /><path
     class="st0"
     d="m 712.8,232.7 -18.9,-0.1 c -2.1,0 -3.9,-1.8 -4,-4 l -1,-18.9 c -0.1,-2.1 1.5,-3.9 3.6,-3.8 l 18.7,0.1 c 2.1,0 3.9,1.8 4,3.9 l 1.2,18.9 c 0.1,2.2 -1.5,3.9 -3.6,3.9 z"
     id="path63"
     inkscape:connector-curvature="0"
     style="fill:none;stroke:#000000;stroke-miterlimit:10"
     data-podium="28" /><path
     class="st0"
     d="M 715.6,270.2 695.4,270 c -1.9,0 -3.5,-1.6 -3.6,-3.6 l -1.3,-26.1 c -0.1,-1.9 1.3,-3.5 3.2,-3.5 l 19.9,0.1 c 1.9,0 3.5,1.6 3.6,3.5 l 1.7,26.1 c 0,2.1 -1.4,3.7 -3.3,3.7 z"
     id="path65"
     inkscape:connector-curvature="0"
     style="fill:none;stroke:#000000;stroke-miterlimit:10"
     data-podium="21" /><path
     class="st0"
     d="m 747.7,270.4 -20,-0.1 c -1.9,0 -3.6,-1.7 -3.7,-3.7 l -1.7,-25.9 c -0.1,-2 1.3,-3.6 3.2,-3.6 l 19.7,0.1 c 1.9,0 3.6,1.6 3.7,3.6 l 2,25.9 c 0.2,2.1 -1.2,3.7 -3.2,3.7 z"
     id="path67"
     inkscape:connector-curvature="0"
     style="fill:none;stroke:#000000;stroke-miterlimit:10"
     data-podium="56" /><path
     class="st0"
     d="m 770.7,270.6 -10.3,-0.1 c -1.6,0 -3,-1.4 -3.1,-3.1 l -2.2,-27.2 c -0.1,-1.6 1,-3 2.6,-2.9 l 10.2,0.1 z"
     id="path69"
     inkscape:connector-curvature="0"
     style="fill:none;stroke:#000000;stroke-miterlimit:10"
     data-podium="22" /><path
     class="st0"
     d="m 781.2,270.7 -10.1,-0.1 -2.9,-33.2 10,0.1 c 1.7,0 3.1,1.4 3.3,3.2 l 2.5,26.8 c 0.1,1.7 -1.2,3.2 -2.8,3.2 z"
     id="path71"
     inkscape:connector-curvature="0"
     style="fill:none;stroke:#000000;stroke-miterlimit:10"
     data-podium="23" /><path
     class="st0"
     d="M 814.56284,270.46125 791.1,270.7 c -1.7,0 -3.2,-1.5 -3.4,-3.3 l -2.6,-26.8 c -0.2,-1.7 1.1,-3.2 2.7,-3.1 l 23.43059,0.1 2.24785,1.90003 3.34472,29.20281 z"
     id="path73"
     inkscape:connector-curvature="0"
     style="fill:none;stroke:#000000;stroke-miterlimit:10"
     data-podium="24"
     sodipodi:nodetypes="ccccccccc" /><path
     class="st0"
     d="m 845.9,271.1 -20.8,-0.2 c -1.7,0 -3.3,-1.5 -3.5,-3.3 l -3,-26.7 c -0.2,-1.8 1,-3.2 2.7,-3.2 l 20.5,0.1 c 1.7,0 3.3,1.5 3.5,3.3 l 3.3,26.7 c 0.3,1.9 -1,3.3 -2.7,3.3 z"
     id="path77"
     inkscape:connector-curvature="0"
     style="fill:none;stroke:#000000;stroke-miterlimit:10"
     data-podium="26" /><path
     class="st0"
     d="m 744.3,233 -18.7,-0.1 c -2.2,0 -4.1,-1.9 -4.2,-4.1 l -1.2,-18.6 c -0.1,-2.2 1.5,-4 3.6,-4 l 18.4,0.1 c 2.2,0 4,1.8 4.2,4 l 1.5,18.6 c 0.2,2.2 -1.4,4.1 -3.6,4.1 z"
     id="path79"
     inkscape:connector-curvature="0"
     style="fill:none;stroke:#000000;stroke-miterlimit:10"
     data-podium="29" /><path
     class="st0"
     d="M 741.2,200.3 724,200.2 c -2.5,0 -4.6,-2.1 -4.8,-4.6 L 718,177.7 c -0.2,-2.5 1.7,-4.5 4.1,-4.5 l 16.9,0.1 c 2.5,0 4.6,2 4.8,4.5 l 1.4,17.9 c 0.4,2.6 -1.5,4.6 -4,4.6 z"
     id="path81"
     inkscape:connector-curvature="0"
     style="fill:none;stroke:#000000;stroke-miterlimit:10"
     data-podium="33" /><path
     class="st0"
     d="m 772.7,200.5 -17.4,-0.1 c -2.4,0 -4.5,-2 -4.7,-4.5 l -1.5,-18.2 c -0.2,-2.4 1.6,-4.4 4,-4.4 l 17.2,0.1 c 2.4,0 4.5,2 4.7,4.4 l 1.7,18.2 c 0.2,2.6 -1.6,4.6 -4,4.5 z"
     id="path83"
     inkscape:connector-curvature="0"
     style="fill:none;stroke:#000000;stroke-miterlimit:10"
     data-podium="34" /><path
     class="st0"
     d="m 775.2,233.2 -17.1,-0.1 c -2.6,0 -4.9,-2.2 -5.1,-5 l -1.4,-17 c -0.2,-2.7 1.7,-4.8 4.3,-4.8 l 16.9,0.1 c 2.6,0 4.9,2.2 5.1,4.9 l 1.6,17 c 0.2,2.7 -1.7,4.9 -4.3,4.9 z"
     id="path85"
     inkscape:connector-curvature="0"
     style="fill:none;stroke:#000000;stroke-miterlimit:10"
     data-podium="30" /><path
     class="st0"
     d="m 807.2,233.4 -17.7,-0.1 c -2.5,0 -4.7,-2.1 -4.9,-4.7 L 782.9,211 c -0.2,-2.5 1.5,-4.5 4,-4.5 l 17.4,0.1 c 2.4,0 4.6,2.1 4.9,4.6 l 1.9,17.6 c 0.3,2.5 -1.5,4.6 -3.9,4.6 z"
     id="path87"
     inkscape:connector-curvature="0"
     style="fill:none;stroke:#000000;stroke-miterlimit:10"
     data-podium="31" /><path
     class="st0"
     d="m 839,233.6 -17.9,-0.1 c -2.4,0 -4.5,-1.5 -4.7,-3.3 l -2.2,-20.3 c -0.2,-1.8 1.6,-3.2 4,-3.2 h 4.9 c 1.3,0 2.7,0.5 3.6,1.3 l 14.4,12.8 c 0.6,0.6 1,1.3 1.1,2 l 0.9,7.5 c 0.1,1.9 -1.7,3.3 -4.1,3.3 z"
     id="path89"
     inkscape:connector-curvature="0"
     style="fill:none;stroke:#000000;stroke-miterlimit:10"
     data-podium="32" /><path
     class="st0"
     d="m 889,271.5 -31.8,-0.2 c -2.1,0 -4.1,-1.4 -4.3,-3 l -3.4,-27.4 c -0.2,-1.6 1.4,-2.9 3.5,-2.9 l 7.7,0.1 27.2,25.5 z"
     id="path91"
     inkscape:connector-curvature="0"
     style="fill:none;stroke:#000000;stroke-miterlimit:10"
     data-podium="27" /><path
     class="st0"
     d="m 808.4,200.8 -22.2,-0.1 c -2.2,0 -4.2,-1.4 -4.3,-3 l -2,-21.1 c -0.2,-1.6 1.5,-2.9 3.7,-2.9 h 5.1 c 1.3,0 2.5,0.5 3.4,1.3 l 15.1,14.3 z"
     id="path93"
     inkscape:connector-curvature="0"
     style="fill:none;stroke:#000000;stroke-miterlimit:10"
     data-podium="35" /><path
     class="st0"
     d="M 728.1,312.2 701.5,312 c -1.8,0 -3.3,-1.6 -3.4,-3.5 L 696.6,280 c -0.1,-1.9 1.3,-3.4 3,-3.4 l 26.2,0.2 z"
     id="path97"
     inkscape:connector-curvature="0"
     style="fill:none;stroke:#000000;stroke-miterlimit:10"
     data-podium="12" /><path
     class="st0"
     d="m 744.2,312.3 -14.9,-0.1 -2.4,-35.5 14.6,0.1 c 1.6,0 2.9,1.4 3.1,3.1 l 2.2,29.4 c 0.2,1.6 -1,3 -2.6,3 z"
     id="path99"
     inkscape:connector-curvature="0"
     style="fill:none;stroke:#000000;stroke-miterlimit:10"
     data-podium="11" /><path
     class="st0"
     d="m 837.8,277.3 19.6,0.1 c 2,0 3.8,1.8 4.1,3.9 l 4,31.6 -23.6,-0.2 c -2,0 -3.9,-1.8 -4.1,-4 l -3.2,-27.6 c -0.2,-2.1 1.2,-3.8 3.2,-3.8 z"
     id="path101"
     inkscape:connector-curvature="0"
     style="fill:none;stroke:#000000;stroke-miterlimit:10"
     data-podium="08" /><path
     class="st0"
     d="M 837.00884,202.2921 851.9,190.1 c 1.2,-1.4 1,-3.3 -0.6,-4.8 L 838,173 805.1,172.8 c -2.8,0 -4.1,2.3 -2.3,3.9 l 27.90884,25.5921 c 1.8,1.6 5,1.6 6.3,0 z"
     id="path103"
     inkscape:connector-curvature="0"
     style="fill:none;stroke:#000000;stroke-miterlimit:10"
     data-podium="36"
     sodipodi:nodetypes="cccccccc" /><path
     class="st0"
     d="m 861.4,174.4 38.1,0.2 c 2.9,0 4.9,2.4 3.5,4.1 l -17.6,20.5 c -0.7,0.8 -2.4,0.8 -3.4,0 l -23.2,-20.1 c -2.3,-1.8 -0.8,-4.7 2.6,-4.7 z"
     id="path105"
     inkscape:connector-curvature="0"
     style="fill:none;stroke:#000000;stroke-miterlimit:10"
     data-podium="43" /><path
     class="st0"
     d="m 1090,246.7 c 0,-3.2 -0.6,-9.5 -3,-14.8 -2,-4.5 -5.5,-8.7 -8.7,-11.3 -0.8,-0.6 -1.7,-0.6 -2.2,0 l -6.5,8.7 c -0.8,1.1 -0.4,2.6 0.9,3.6 l 17.4,14.1 c 1.2,1 2.1,0.8 2.1,-0.3 z"
     id="path107"
     inkscape:connector-curvature="0"
     style="fill:none;stroke:#000000;stroke-miterlimit:10"
     data-podium="73" /><path
     class="st0"
     d="m 1055.9,217 5.5,-7.7 c 1.1,-1.6 0.2,-3.8 -2.2,-5 -3,-1.5 -7.1,-3.3 -10.8,-3.9 -3.5,-0.6 -8.4,-0.9 -12.3,-1.1 -2.5,-0.1 -3.6,2 -1.7,3.5 l 17.7,14.1 c 1.2,1.1 3.1,1.1 3.8,0.1 z"
     id="path109"
     inkscape:connector-curvature="0"
     style="fill:none;stroke:#000000;stroke-miterlimit:10"
     data-podium="74" /><polygon
     class="st0"
     points="858.8,135.4 860.3,146.7 844.6,146.7 847.2,166.7 909.8,167.1 904.8,135.6 "
     id="polygon111"
     style="fill:none;stroke:#000000;stroke-miterlimit:10"
     data-podium="41" /><polygon
     class="st0"
     points="984.7,167.5 909.8,167.1 904.8,135.6 918.4,135.7 922.4,160 983.3,160.4 "
     id="polygon113"
     style="fill:none;stroke:#000000;stroke-miterlimit:10"
     data-podium="42" /><path
     class="st0"
     d="m 683.9,253.2 c 0.3,5.9 -7.7,9.6 -14.7,6.8 l -14.9,-8 -20.1,-6.4 21.6,-36.2 -7.6,-5 3.3,-5.6 -3.9,-2.1 27.3,-45.5 9.2,5.3 7.5,10 -11,19.4 z"
     id="path115"
     inkscape:connector-curvature="0"
     style="fill:none;stroke:#000000;stroke-miterlimit:10"
     data-podium="20" /><path
     class="st0"
     d="M 629.7,297.9 617.8,317 c -1.5,2.3 0.8,5.1 4.1,5.2 l 25.9,0.2 c 4.8,0 7.6,-4.2 4.8,-7.4 l -15,-17.4 c -2,-2.3 -6.4,-2.2 -7.9,0.3 z"
     id="path117"
     inkscape:connector-curvature="0"
     style="fill:none;stroke:#000000;stroke-miterlimit:10"
     data-podium="17" /><path
     class="st0"
     d="m 604.8,290.2 16,10.3 -10,17.7 c -2.3,3.9 1.4,8.5 6.9,8.5 v 0 l 0.2,9.3 -39.4,-0.3 z"
     id="path119"
     inkscape:connector-curvature="0"
     style="fill:none;stroke:#000000;stroke-miterlimit:10"
     data-podium="18" /><path
     class="st0"
     d="m 620.1,264.9 2.4,1.8 c 2,1.5 3.4,3.4 2.9,6 -0.6,3 -1,4.1 -0.5,8.4 0.3,3.3 2.5,4.3 3,6.3 0.3,1.4 0.1,2.8 -0.8,4 l -5.7,8.4 -16,-10.3 z"
     id="path121"
     inkscape:connector-curvature="0"
     style="fill:none;stroke:#000000;stroke-miterlimit:10"
     data-podium="19" /><path
     class="st0"
     d="m 936,174.9 -21.1,-0.1 -24.5,28.4 c -1.2,1.3 -0.9,3.2 0.7,4.5 l 12.1,10.2 c 1.3,1.1 3.4,1.1 4.4,0 l 32.3,-38.4 c 1.7,-1.8 -0.6,-4.6 -3.9,-4.6 z"
     id="path123"
     inkscape:connector-curvature="0"
     style="fill:none;stroke:#000000;stroke-miterlimit:10"
     data-podium="44" /><path
     class="st0"
     d="M 959.55149,200.34201 942.18699,185.98076 911.8,222.6 c -0.8,1 -0.6,2.3 0.6,3.2 l 13.3,11.2 c 1.2,1 3.3,1 4.2,0 z"
     id="path125"
     inkscape:connector-curvature="0"
     style="fill:none;stroke:#000000;stroke-miterlimit:10"
     data-podium="46"
     sodipodi:nodetypes="ccccccc" /><path
     class="st0"
     d="M 972.6,175.1 952,175 l -8.66125,9.59025 17.6,14.12899 L 976.9,180.1 c 1.7,-2 -0.9,-5 -4.3,-5 z"
     id="path127"
     inkscape:connector-curvature="0"
     style="fill:none;stroke:#000000;stroke-miterlimit:10"
     data-podium="45"
     sodipodi:nodetypes="cccccc" /><path
     class="st0"
     d="M 972.5,192.9 986,176.8 c 1.8,-2.1 6.1,-2.1 8.7,0.1 l 7.5,6.2 c 1.7,1.5 2.1,3.4 0.9,4.9 l -15.5,17.8 c -0.8,1 -2.8,1 -4,0 l -10.2,-8.2 c -1.7,-1.5 -2,-3.4 -0.9,-4.7 z"
     id="path129"
     inkscape:connector-curvature="0"
     style="fill:none;stroke:#000000;stroke-miterlimit:10"
     data-podium="47" /><path
     class="st0"
     d="m 992.7,209.4 15.1,-18.3 c 0.8,-0.9 2.7,-0.9 3.9,0 l 13.7,10.8 c 1.8,1.4 2.2,3.4 1,4.7 l -15.6,18.4 c -0.8,0.9 -2.5,0.9 -3.7,0 L 994,214.9 c -2.1,-1.6 -2.6,-3.9 -1.3,-5.5 z"
     id="path131"
     inkscape:connector-curvature="0"
     style="fill:none;stroke:#000000;stroke-miterlimit:10"
     data-podium="50" /><path
     class="st0"
     d="m 1015.4,228.5 14.7,-18.3 c 0.9,-1.1 3,-1.1 4.4,0 l 13.5,10.6 c 1.9,1.5 2.3,3.6 1.1,5 l -15.5,18.6 c -0.8,0.9 -2.6,0.9 -3.7,0 l -13.1,-10.1 c -2.2,-1.6 -2.8,-4 -1.4,-5.8 z"
     id="path133"
     inkscape:connector-curvature="0"
     style="fill:none;stroke:#000000;stroke-miterlimit:10"
     data-podium="52" /><path
     class="st0"
     d="m 1038.8,248.7 15.1,-19.1 c 0.9,-1.2 3.3,-1.2 4.8,0 l 16.9,14.1 c 1.7,1.4 2.1,3.4 1,4.8 l -15.2,18.7 c -0.9,1.2 -3.3,1.1 -4.7,0 l -16.8,-13.8 c -1.7,-1.4 -2.2,-3.3 -1.1,-4.7 z"
     id="path135"
     inkscape:connector-curvature="0"
     style="fill:none;stroke:#000000;stroke-miterlimit:10"
     data-podium="54" /><path
     class="st0"
     d="m 1086.7,253.2 19.2,15.3 c 7.4,5.9 4.1,14.6 -5.7,14.5 l -32.7,-0.2 c -4.4,0 -7.8,-4 -5.8,-6.7 l 17.4,-22.9 c 1.4,-1.9 5.2,-1.9 7.6,0 z"
     id="path137"
     inkscape:connector-curvature="0"
     style="fill:none;stroke:#000000;stroke-miterlimit:10"
     data-podium="79" /><path
     class="st0"
     d="m 1049.8,282.6 4.7,-6 c 1.3,-1.6 0.7,-3.9 -1.2,-5.5 l -16.4,-13.2 c -1.5,-1.2 -3.9,-1.2 -4.9,0 l -10.9,13.8 c -3.4,4.3 1.9,10.7 9.1,10.8 z"
     id="path139"
     inkscape:connector-curvature="0"
     style="fill:none;stroke:#000000;stroke-miterlimit:10"
     data-podium="53" /><path
     id="polygon141"
     style="fill:none;stroke:#000000;stroke-miterlimit:10"
     d="m 1078.0163,290.04791 4.5521,20.30837 16.6175,-0.0628 -5.0032,-19.92575 z"
     inkscape:connector-curvature="0"
     sodipodi:nodetypes="ccccc"
     data-podium="83" /><path
     class="st0"
     d="m 1013.3,237.9 13,10.5 c 1.9,1.5 2.4,3.7 1.2,5.2 l -21.1,27.1 c -0.6,0.8 -1.7,1.2 -2.9,1.2 l -11.7,-0.1 c -1.4,0 -2.8,-0.8 -3.3,-1.9 -0.4,-0.9 -1.2,-2.4 -1.6,-3.2 -0.4,-0.8 -2.2,-2.2 -3,-3.5 -1.2,-1.7 -1.2,-3.7 -0.1,-5.2 l 24.1,-30.2 c 1,-1.2 3.7,-1.2 5.4,0.1 z"
     id="path143"
     inkscape:connector-curvature="0"
     style="fill:none;stroke:#000000;stroke-miterlimit:10"
     data-podium="51" /><path
     class="st0"
     d="m 944.9,249.7 c 1.2,0 2.4,0.2 3.5,0.4 1.2,0.3 2.4,0 3,-0.8 L 981,215 c 1.3,-1.5 0.9,-3.6 -0.9,-5.1 l -10.4,-8.8 c -1.1,-0.9 -3,-1 -3.8,0 L 933,239.6 c -1.4,1.7 -1,4 1,5.6 l 4.6,3.9 c 0.9,0.7 2.1,1.1 3.3,0.8 1,-0.1 2,-0.2 3,-0.2 z"
     id="path145"
     inkscape:connector-curvature="0"
     style="fill:none;stroke:#000000;stroke-miterlimit:10"
     data-podium="48" /><path
     class="st0"
     d="m 665.1,266.5 4.7,-3.5 c 0,0 8.3,5.9 10.9,8.5 2.5,2.6 8.1,11.8 8.1,11.8 l -5.4,3.1 c 0,0 -6.1,-8.6 -8.7,-12 -2.7,-3.3 -9.6,-7.9 -9.6,-7.9 z"
     id="path147"
     inkscape:connector-curvature="0"
     style="fill:none;stroke:#000000;stroke-miterlimit:10"
     data-podium="14" /><path
     class="st0"
     d="m 687.9,313 7,0.1 -1.3,-26.2 -8.9,-0.1 c 0,0 0.7,1 2,4.9 1.2,3.8 1.2,21.3 1.2,21.3 z"
     id="path149"
     inkscape:connector-curvature="0"
     style="fill:none;stroke:#000000;stroke-miterlimit:10"
     data-podium="13" /><path
     class="st0"
     d="m 630.1,284.1 4.9,-3.3 c 0,0 1.9,8.1 7.2,13.3 5.3,5.2 15.5,13.7 15.5,13.7 l 0.1,3.4 -2.2,2.1 c 0,0 -10.8,-10.7 -16.3,-16.9 -5.4,-6.2 -9.2,-12.3 -9.2,-12.3 z"
     id="path151"
     inkscape:connector-curvature="0"
     style="fill:none;stroke:#000000;stroke-miterlimit:10"
     data-podium="15" /><path
     class="st0"
     d="m 710.74581,200.38668 -17.2,-0.1 c -2.5,0 -4.6,-2.1 -4.8,-4.6 l 5.65068,-18.04372 c 0.94976,-2.45209 2.46651,-4.40419 4.86651,-4.40419 l 9.28281,0.14791 c 2.5,0 4.6,2 4.8,4.5 l 1.4,17.9 c 0.4,2.6 -1.5,4.6 -4,4.6 z"
     id="path81-3"
     inkscape:connector-curvature="0"
     style="fill:none;stroke:#000000;stroke-miterlimit:10"
     data-podium="57"
     sodipodi:nodetypes="ccccccccc" /><path
     style="fill:none;stroke:#000000;stroke-width:1px;stroke-linecap:butt;stroke-linejoin:miter;stroke-opacity:1"
     d="m 1114.8345,290.65133 22.8997,0.20325 5.8265,20.1219 -23.5094,-0.47425 z"
     id="path193"
     inkscape:connector-curvature="0"
     data-podium="82"
     sodipodi:nodetypes="ccccc" /><path
     style="fill:none;stroke:#000000;stroke-width:1px;stroke-linecap:butt;stroke-linejoin:miter;stroke-opacity:1"
     d="m 1095.5934,290.31258 17.6829,0.0677 5.6233,20.32515 -18.0894,-0.1355 z"
     id="path195"
     inkscape:connector-curvature="0"
     data-podium="80" /><path
     style="fill:none;stroke:#000000;stroke-width:1px;stroke-linecap:butt;stroke-linejoin:miter;stroke-opacity:1"
     d="m 803.79197,297.15538 26.9647,-0.1355 1.55826,13.07585 -1.15176,2.10026 -25.13544,0.271 -1.28726,-1.21951 z"
     id="path4560"
     inkscape:connector-curvature="0"
     sodipodi:nodetypes="ccccccc"
     data-podium="90" /></svg>