<?xml version="1.0" encoding="utf-8"?>
<!-- Generator: Adobe Illustrator 19.2.1, SVG Export Plug-In . SVG Version: 6.00 Build 0)  -->
<svg version="1.1" xmlns="http://www.w3.org/2000/svg" xmlns:xlink="http://www.w3.org/1999/xlink" x="0px" y="0px"
	 viewBox="0 0 1200 650" style="enable-background:new 0 0 1200 650;" xml:space="preserve">
<style type="text/css">
	.st0{fill:#05828F;}
</style>
<g id="Слой_1">
	
		<image style="overflow:visible;" width="1200" height="648" xlink:href="grand-2_floor-2.jpg"  transform="matrix(1.0001 0 0 1.0001 -6.548941e-002 0.1212)">
	</image>
</g>
<g id="Слой_2">
	<path class="st0" d="M714.3,245.7h-36.5c-1.4,0-2.5-1.1-2.5-2.5l-0.7-20.5c0-1.4,1.1-2.6,2.5-2.6h35.7c1.3,0,2.4,1,2.5,2.4
		l1.4,20.5C716.9,244.5,715.8,245.7,714.3,245.7z"/>
	<path class="st0" d="M754.6,246h-30c-1.2,0-2.3-1-2.4-2.2l-1.4-21.2c-0.1-1.4,1-2.5,2.4-2.5h29.9c1.2,0,2.3,1,2.4,2.2l1.5,21.2
		C757,244.9,755.9,246,754.6,246z"/>
	<polygon class="st0" points="760.9,220.9 776.5,220.9 796.4,238.5 797.5,246.5 763,246.5 	"/>
	<path class="st0" d="M679.1,251.1h34.7c1.8,0,3.3,1.4,3.4,3.2l1.3,21.1c0.1,2-1.4,3.6-3.4,3.6h-35c-1.8,0-3.3-1.4-3.4-3.2l-1-21.1
		C675.6,252.8,677.2,251.1,679.1,251.1z"/>
	<path class="st0" d="M726.1,251.6h29c1.6,0,3,1.2,3.1,2.9l1.6,21.3c0.1,1.8-1.3,3.3-3.1,3.3h-29.1c-1.6,0-3-1.2-3.1-2.9l-1.6-21.3
		C722.9,253.1,724.3,251.6,726.1,251.6z"/>
	<path class="st0" d="M766.1,251.6h29.3c1.4,0,2.5,1,2.7,2.4l2.3,22.4c0.2,1.6-1.1,3-2.7,3l-30,0.2c-1.4,0-2.6-1.1-2.7-2.5
		l-1.6-22.6C763.3,252.9,764.6,251.6,766.1,251.6z"/>
	<path class="st0" d="M806.3,251.9h3.2l21.1,18.8c3.5,3.1,1.3,8.8-3.4,8.8h-18c-2,0-3.7-1.5-3.9-3.5l-2.1-20.7
		C803,253.5,804.5,251.9,806.3,251.9z"/>
	<polygon class="st0" points="855.3,242.2 858.2,244 842.3,263 839.6,260.6 	"/>
	<path class="st0" d="M858.8,244.2l15.7,15.1c0,0,4.3,5.9,4.3,9.1c0,3.2-1.3,6.6-1.3,6.6l-12,10.5l-2.2-2.3l11.9-10.5
		c0,0,1.8-3.8,1-6.7c-0.7-2.9-3.6-5.9-3.6-5.9L857.3,246L858.8,244.2z"/>
	<polygon class="st0" points="838.5,266.5 859.1,286 856.3,287.8 835.7,268.6 	"/>
	<polygon class="st0" points="878.7,305.3 901.2,324.1 898.6,325.9 876.3,307.3 	"/>
	<polygon class="st0" points="904.4,284.5 916.2,293.9 907.6,290.9 902.2,286.3 	"/>
	<path class="st0" d="M995.7,405.7l6,5.1c0,0-10.7,9.8-18.3,12c-7.5,2.2-23.8,3.2-29,3.3c-5.2,0.1-4.2,0.2-7.2,0
		s-22.5-2.7-34.1-12.6c-11.6-10-12.7-9.1-18.3-16.1c-5.5-7-8.2-11.2-8.2-11.2h-69.5l-2.2-20.8h95.2c2.1,0,4.1,1,5.4,2.6
		c2.2,2.7,6.1,6.1,13.4,8.4c8.3,2.7,14.5,3.4,17.5,3.1c1.5-0.2,3,0.3,4.1,1.3l35.5,31.8L995.7,405.7z"/>
	<polygon class="st0" points="734.1,364.9 813.6,365.3 815.7,385.7 735.4,385.3 	"/>
	<path class="st0" d="M692.5,364.6l38.9,0.4l1.6,20.4h-52.2l-0.6-13.4c0,0,4.5-1.6,7.2-3.5C690.2,366.6,692.5,364.6,692.5,364.6z"/>
	<path class="st0" d="M678.8,372.5l0.6,12.9l-100-0.9l22.5-40.3h22.8c0,0,8.9,20.2,21.2,26.6C660.2,378.3,678.8,372.5,678.8,372.5z"
		/>
	<path class="st0" d="M622.1,293.4l3.4,1.7c0,0,2.2,8.2-0.7,16.1c-2.9,7.9-6,9.3-6.9,9.9c-0.9,0.6-2.3,0.7-2.3,0.7l-6.9-7.2
		L622.1,293.4z"/>
	<path class="st0" d="M685.7,194.4h9.2l0.4,10.7h14v4.9c0,1.4-1.1,2.5-2.5,2.5h-31.5L685.7,194.4z"/>
	<path class="st0" d="M733,187.3h15.4L750,205h19.7l0.6,8.2h-32.2c-2,0-3.6-1.5-3.7-3.5L733,187.3z"/>
	<path class="st0" d="M770.3,199H816l1.2,9.9c0.3,2.3-1.5,4.3-3.8,4.3h-37.6c-2.4,0-4.4-1.8-4.6-4.2L770.3,199z"/>
	<polygon class="st0" points="817.7,199 846.5,199 848.5,213.2 819.4,213.2 	"/>
	<polygon class="st0" points="848.5,185.2 905.8,185.2 910,213.2 855.4,213.2 854.5,205.7 876.2,205.7 875,197 855.4,197 855,193.8 
		849.6,193.8 	"/>
	<polygon class="st0" points="910.9,205.7 947.4,205.7 948.9,213.2 912.2,213.2 	"/>
	<path class="st0" d="M948.6,205.7h26.7l0.9,4.2c0.4,1.7-0.9,3.3-2.7,3.3h-23.7L948.6,205.7z"/>
	<polygon class="st0" points="991.6,202.6 1018.1,202.6 1023.6,226.6 1015.6,235.8 994.9,219.2 	"/>
	<polygon class="st0" points="1025,226.9 1047.5,226.9 1026.8,244.7 1016.5,236.6 	"/>
	<polygon class="st0" points="1048,227.9 1071.5,257.2 1060.1,271.7 1027.7,245.5 	"/>
	<polygon class="st0" points="1072.1,258.3 1088.2,277.5 1080.2,288 1061.1,272.4 	"/>
	<polygon class="st0" points="1089.3,278.5 1122.9,318.3 1116.8,322.1 1081.4,288.7 	"/>
	<path class="st0" d="M1117.7,323.3l6.6-3.3l37,43.8c0,0,3.7,7.4,3.7,11.7c0,4.3-1.2,5.5-4,6.9c-2.8,1.4-20.1,2.2-20.1,2.2
		l-6.2-22.7h13.9L1117.7,323.3z"/>
	<polygon class="st0" points="1115.1,361.9 1134,361.9 1139.9,384.6 1120.4,384.6 	"/>
	<polygon class="st0" points="1099.5,361.6 1114.1,361.9 1119.6,384.6 1104.7,384.6 	"/>
	<polygon class="st0" points="1039.2,361.3 1098.5,361.6 1103.8,384.6 1048.2,383.8 1044.3,384.6 	"/>
	<path class="st0" d="M1001.2,361.3h36.9l4.8,23.7c0,0-3.7,0.2-8.1,2.1c-4.4,2-7.7,4.8-7.7,4.8l-27.9-25.1
		C996.9,364.9,998.3,361.3,1001.2,361.3z"/>
	<path class="st0" d="M689.2,287H717c1.4,0,2.6,1.1,2.7,2.6l1.3,25.5c0.1,1.6-1.2,2.9-2.7,2.9h-28c-1.4,0-2.6-1.1-2.7-2.6l-1.2-25.5
		C686.4,288.3,687.6,287,689.2,287z"/>
	<path class="st0" d="M728.4,287.4H758c1.6,0,2.9,1.2,3.1,2.8l1.9,24.4c0.1,1.8-1.3,3.3-3.1,3.3h-30c-1.6,0-3-1.3-3.1-2.9l-1.6-24.4
		C725.2,288.9,726.6,287.4,728.4,287.4z"/>
	<path class="st0" d="M769.1,287.8h30.4c1.5,0,2.7,1.1,2.8,2.6l2.3,24.8c0.2,1.7-1.2,3.1-2.8,3.1h-30.5c-1.5,0-2.7-1.1-2.8-2.6
		l-2.2-24.8C766.1,289.3,767.4,287.8,769.1,287.8z"/>
	<path class="st0" d="M809.5,287.8h20.2c1.4,0,2.6,1,2.7,2.4l2.8,25c0.2,1.6-1.1,3-2.7,3h-20.5c-1.4,0-2.6-1.1-2.7-2.5l-2.5-25
		C806.6,289.2,807.9,287.8,809.5,287.8z"/>
	<path class="st0" d="M841.1,287.4h5.8c1.9,0,3.6,0.7,5,2l21.5,19.9c3.9,3.6,1.3,10-3.9,10h-25.1c-1.8,0-3.3-1.4-3.5-3.2l-2.8-25.2
		C837.8,289,839.2,287.4,841.1,287.4z"/>
	<path class="st0" d="M845.6,325H886c3.6,0,6.7,2.6,7.3,6.1c0.7,3.7,1.6,8.2,2.5,11.4c1,3.4,2.8,7.6,4.3,10.6c0.9,2-0.5,4.3-2.8,4.3
		h-48.2c-2,0-3.6-1.5-3.9-3.4l-3-25.3C842,326.7,843.6,325,845.6,325z"/>
	<path class="st0" d="M814.5,324.5l18.8,0.4c1.8,0,3.2,1.4,3.4,3.1l2.8,25.5c0.2,2.1-1.4,3.9-3.5,3.9h-19c-1.8,0-3.3-1.4-3.5-3.1
		l-2.6-25.9C810.7,326.3,812.4,324.5,814.5,324.5z"/>
	<path class="st0" d="M759.5,324.5h42.9c2.3,0,4.2,1.7,4.5,4l2.5,25.1c0.2,2-1.4,3.8-3.4,3.8h-15.6l-2.3-25.2l-28-0.7L759.5,324.5z"
		/>
	<path class="st0" d="M758.4,324.5l2.8,33h-27.3c-2.7,0-4.9-2.1-5-4.8l-1.1-25.6c-0.1-1.4,1.1-2.6,2.5-2.6H758.4z"/>
	<path class="st0" d="M721.9,327.5l1.4,26.5c0.1,1.9-1.4,3.4-3.3,3.4h-27.4c-1.8,0-3.2-1.4-3.3-3.2l-0.8-26.5
		c-0.1-1.8,1.4-3.4,3.3-3.4h26.8C720.3,324.5,721.8,325.8,721.9,327.5z"/>
	<path class="st0" d="M794.8,220.9h37.7l6.4,5.7c1.1,1,1.2,2.7,0.2,3.8l-15.1,17c-1.7,1.9-4.6,2-6.4,0.3l-24.5-22.4
		C791.4,223.7,792.5,220.9,794.8,220.9z"/>
	<path class="st0" d="M854.9,220.9h32.2c2.4,0,3.7,2.8,2.2,4.6l-14.7,18.1c-1.1,1.3-3,1.5-4.3,0.3l-18-16.3
		C849.7,225.2,851.4,220.9,854.9,220.9z"/>
	<path class="st0" d="M909.8,220.9h22.5c1.6,0,2.6,1.9,1.5,3.2l-8.5,10.6c-1,1.2-2.8,1.4-4,0.3l-12.6-11.2
		C907.6,222.8,908.3,220.9,909.8,220.9z"/>
	<path class="st0" d="M951.1,220.9h22.4c1.9,0,2.9,2.2,1.8,3.7l-8.5,10.6c-0.8,1-2.2,1.1-3.1,0.3l-13.5-12
		C949.1,222.6,949.8,220.9,951.1,220.9z"/>
	<path class="st0" d="M903.5,225l15.1,12.9c1.3,1.1,1.4,3,0.3,4.3l-18.1,21.1c-1.5,1.8-4.2,2-5.9,0.5l-14.8-12.7
		c-1.7-1.5-1.9-4.1-0.4-5.7l18-19.9C899.3,223.8,901.8,223.6,903.5,225z"/>
	<path class="st0" d="M929.8,247l13.6,11.7c1.2,1.1,1.4,2.9,0.3,4.1l-17.4,20.4c-1.9,2.3-5.3,2.5-7.5,0.5l-13.4-12
		c-1.2-1.1-1.3-2.9-0.3-4.1l16.7-20.1C923.8,245.2,927.4,244.9,929.8,247z"/>
	<path class="st0" d="M949.9,306.9l17.9-23.9c1.1-1.5,0.9-3.6-0.5-4.8l-14.4-12.1c-2-1.7-4.9-1.3-6.5,0.7l-16.4,21.9
		c-1.3,1.7-0.9,4.2,0.9,5.4l2.2,1.6c0,0,8,3.9,10.8,6.1C946.8,304.1,949.9,306.9,949.9,306.9z"/>
	<path class="st0" d="M975.4,284.5l20.1,17.6l-24,30.2c0,0-2.6-7.2-6.5-12.7c-3.9-5.5-10.3-10.1-10.3-10.1L975.4,284.5z"/>
	<path class="st0" d="M990.9,223.7l13.1,10.5c1.3,1,1.5,2.8,0.5,4.1l-11.6,14.8c-1.8,2.3-5.2,2.7-7.4,0.8l-13.9-11.8
		c-1.2-1-1.4-2.9-0.4-4.1l10.7-13.3C984.1,221.9,988.2,221.4,990.9,223.7z"/>
	<path class="st0" d="M970.5,246.2l13.8,11.1c1.6,1.3,1.9,3.6,0.6,5.2l-8.8,11.2c-2,2.5-5.7,2.9-8.1,0.8l-12.9-11
		c-1.5-1.3-1.8-3.6-0.5-5.2l9.3-11.5C965.5,244.9,968.5,244.6,970.5,246.2z"/>
	<path class="st0" d="M947.9,227l12.2,9.8c1.7,1.4,2,3.8,0.6,5.5l-9.3,11.7c-1.7,2.1-4.8,2.4-6.8,0.7l-13.5-11.4
		c-1.6-1.4-1.9-3.8-0.5-5.5l8-9.8C940.9,225.1,945.1,224.7,947.9,227z"/>
	<path class="st0" d="M1014.6,243.3l13.6,10.8c1.7,1.4,2,3.9,0.7,5.6l-11.8,15c-1.4,1.8-4,2-5.7,0.6l-14.8-12.3
		c-1.7-1.4-1.9-3.9-0.6-5.6l10.6-13.2C1008.7,241.7,1012.2,241.4,1014.6,243.3z"/>
	<path class="st0" d="M995.6,266.9l13.2,10.5c1.9,1.5,2.2,4.2,0.7,6.1l-9.6,12.2c-1.5,1.9-4.3,2.2-6.2,0.7l-14.2-11.8
		c-1.8-1.5-2.1-4.3-0.6-6.1l8.6-10.7C989.5,265.3,993.1,264.9,995.6,266.9z"/>
	<path class="st0" d="M1039.8,263.8l14.5,11.5c1.1,0.9,1.3,2.5,0.5,3.7l-12,16.2c-1.6,2.1-4.6,2.5-6.7,0.8l-15.5-12.9
		c-1.4-1.1-1.6-3.2-0.4-4.5l11.3-13.9C1033.6,262.2,1037.2,261.8,1039.8,263.8z"/>
	<path class="st0" d="M1019.2,286.9l15.2,12c1.6,1.3,1.9,3.6,0.8,5.2l-8.5,12.2c-1.8,2.5-5.3,3-7.6,1l-14.4-12
		c-1.6-1.3-1.9-3.7-0.6-5.3l9.8-12.5C1015.1,285.9,1017.5,285.6,1019.2,286.9z"/>
	<path class="st0" d="M1064.6,283.6l12.9,10.3c2.1,1.7,2.5,4.8,0.9,7l-10.3,13.9c-1.7,2.4-5.1,2.8-7.4,0.9l-13.3-11.1
		c-2.1-1.8-2.4-4.9-0.7-7.1l10.6-13.1C1059.3,282.2,1062.4,281.9,1064.6,283.6z"/>
	<path class="st0" d="M1044.9,307.4l14.3,11.3c1.6,1.3,1.9,3.6,0.7,5.2l-8.9,12.5c-1.7,2.4-5.1,2.8-7.4,0.9L1030,326
		c-1.6-1.3-1.8-3.7-0.5-5.3l10-12.6C1040.8,306.3,1043.3,306.1,1044.9,307.4z"/>
	<path class="st0" d="M1089,302.9l16.7,13.5c1.5,1.3,1.8,3.5,0.7,5.1l-12,16.2c-1.3,1.7-3.7,2-5.3,0.7l-17-13.8
		c-1.6-1.3-1.8-3.6-0.6-5.2l12.3-15.9C1085,301.9,1087.3,301.6,1089,302.9z"/>
	<path class="st0" d="M1002.7,308.3l15.3,12.8c1.7,1.4,1.9,3.9,0.6,5.6l-21.7,27c-1.4,1.8-4,2-5.7,0.6L975.7,341
		c-1.7-1.4-1.9-3.9-0.5-5.6l21.9-26.5C998.5,307.1,1001,306.9,1002.7,308.3z"/>
	<path class="st0" d="M1027.5,329.4l15.6,12.4c1.2,1,1.4,2.7,0.5,4l-2,2.7c-0.7,0.9-1.8,1.5-3,1.4l-23.8-0.5c-2.1,0-3.3-2.4-2.1-4.2
		l10.3-15.1C1024,328.5,1026.1,328.2,1027.5,329.4z"/>
	<path class="st0" d="M1069.4,326.3l22.6,19.5c1.6,1.4,0.6,4.1-1.5,4.1h-35.6c-2.5,0-3.9-2.8-2.5-4.8l12.9-18.3
		C1066.2,325.5,1068.2,325.2,1069.4,326.3z"/>
	<path class="st0" d="M962.2,336.8l-6.5-0.8c0,0-1.8-14.9-16.1-18.8c-15.7-4.3-22,2.1-21.4,1.4c0,0,0.2-2.2-0.6-3.3
		s-1.9-2.2-1.9-2.2l7-2.1l1.8,1.1l2.9-1.8c0,0,15.3,0.2,23.6,6.7C963.4,326.8,962.2,336.8,962.2,336.8z"/>
	<path class="st0" d="M912.7,323.5c0,0-4.1,9.4,3,18.3s19.1,9.1,19.1,9.1l0.7,5.2c0,0-18.9-1.9-27.3-14.3
		c-6.4-9.5-2.2-18.9-2.2-18.8l3.8,3L912.7,323.5z"/>
</g>
</svg>
