<?xml version="1.0" encoding="UTF-8" standalone="no"?>
<!-- Generator: Adobe Illustrator 19.1.0, SVG Export Plug-In . SVG Version: 6.00 Build 0)  -->

<svg
   xmlns:dc="http://purl.org/dc/elements/1.1/"
   xmlns:cc="http://creativecommons.org/ns#"
   xmlns:rdf="http://www.w3.org/1999/02/22-rdf-syntax-ns#"
   xmlns:svg="http://www.w3.org/2000/svg"
   xmlns="http://www.w3.org/2000/svg"
   xmlns:sodipodi="http://sodipodi.sourceforge.net/DTD/sodipodi-0.dtd"
   xmlns:inkscape="http://www.inkscape.org/namespaces/inkscape"
   version="1.1"
   x="0px"
   y="0px"
   viewBox="0 0 1200 650"
   style="enable-background:new 0 0 1200 650;"
   xml:space="preserve"
   id="svg3001"
   inkscape:version="0.48.5 r10040"
   width="100%"
   height="100%"
   sodipodi:docname="grand2-floor5.svg"><metadata
   id="metadata3015"><rdf:RDF><cc:Work
       rdf:about=""><dc:format>image/svg+xml</dc:format><dc:type
         rdf:resource="http://purl.org/dc/dcmitype/StillImage" /></cc:Work></rdf:RDF></metadata><defs
   id="defs3013" /><sodipodi:namedview
   pagecolor="#ffffff"
   bordercolor="#666666"
   borderopacity="1"
   objecttolerance="10"
   gridtolerance="10"
   guidetolerance="10"
   inkscape:pageopacity="0"
   inkscape:pageshadow="2"
   inkscape:window-width="1920"
   inkscape:window-height="1017"
   id="namedview3011"
   showgrid="false"
   inkscape:zoom="1.7960512"
   inkscape:cx="808.31334"
   inkscape:cy="445.60227"
   inkscape:window-x="-8"
   inkscape:window-y="-8"
   inkscape:window-maximized="1"
   inkscape:current-layer="svg3001" />


<path
   style="fill:#669999;stroke:none"
   d="m 688.97638,120.47244 3.54331,9.44882 -25.19685,42.91339 -8.66142,-3.54331 z"
   id="path3355"
   inkscape:connector-curvature="0"
   data-podium="2" /><path
   style="fill:#669999;stroke:none"
   d="m 780.70866,118.50394 27.95276,-0.32615 0.11531,6.29921 -28.46177,-0.0675 z"
   id="path3357"
   inkscape:connector-curvature="0"
   sodipodi:nodetypes="ccccc"
   data-podium="3" /><path
   style="fill:#669999;stroke:none"
   d="m 814.14716,117.72119 28.39563,-0.13919 0.13919,7.37729 -28.67401,0 z"
   id="path3359"
   inkscape:connector-curvature="0"
   data-podium="4" /><path
   style="fill:#669999;stroke:none"
   d="m 846.44023,117.582 36.60808,0.41758 -3.89744,7.09891 -32.71064,-0.55678 z"
   id="path3361"
   inkscape:connector-curvature="0"
   data-podium="5" /><path
   style="fill:#669999;stroke:none"
   d="m 866.20581,132.61498 9.46521,0.13919 3.47985,-7.37729 -13.36264,-0.1392 z"
   id="path3363"
   inkscape:connector-curvature="0"
   data-podium="6" /><path
   style="fill:#669999;stroke:none"
   d="m 865.23145,134.84209 8.83351,0.0496 c 0,0 -18.55315,42.66732 -32.72638,65.10827 -14.17322,22.44094 -31.88976,42.51968 -56.29921,58.66142 -24.40945,16.14173 -18.11024,12.20472 -33.85827,19.68504 -15.74803,7.48031 -42.51968,16.53543 -42.51968,16.53543 l -0.7874,-5.90551 c 0,0 46.45669,-15.74803 67.32283,-31.49607 20.86614,-15.74803 39.11557,-32.2398 51.38785,-49.95223 13.7434,-19.8357 25.13775,-39.46705 29.86216,-51.67178 4.7244,-12.20472 8.78459,-21.01421 8.78459,-21.01421 z"
   id="path3365"
   inkscape:connector-curvature="0"
   sodipodi:nodetypes="ccsssccsssc"
   data-podium="7" /><path
   style="fill:#669999;stroke:none"
   d="m 695.27559,132.28346 165.74803,1.57481 c 0,0 -16.53543,45.66929 -39.76378,75.59055 -23.22834,29.92126 -37.79527,40.94488 -59.84252,52.3622 -22.04724,11.41733 -53.937,23.62205 -53.937,23.62205 l -4.33071,-67.32283 -56.46229,-0.34594 z"
   id="path3367"
   inkscape:connector-curvature="0"
   sodipodi:nodetypes="ccsscccc"
   data-podium="9" /><path
   style="fill:#669999;stroke:none"
   d="m 658.66142,171.65354 7.87401,3.54331 -72.83464,125.19685 26.37795,0 0.13919,9.21409 -42.65887,-0.55267 z"
   id="path3369"
   inkscape:connector-curvature="0"
   sodipodi:nodetypes="ccccccc"
   data-podium="1" /><path
   style="fill:#669999;stroke:none"
   d="m 640.55118,225.19685 54.33071,0.3937 3.14961,72.83465 c 0,0 -13.38583,6.29921 -28.34646,8.26771 -14.96063,1.96851 -25.19685,2.36221 -25.19685,2.36221 l -0.3937,-10.62992 c 0,0 -1.1811,-4.72441 -6.29921,-5.11811 -5.11811,-0.3937 -7.08662,7.08661 -7.08662,7.08661 l 0.3937,10.23622 -6.69291,0 -0.7874,-56.69291 3.1496,-5.90551 c 0,0 4.33071,17.71653 22.83465,29.13385 18.50394,11.41733 31.49606,6.29922 35.03937,2.75591 3.54331,-3.54331 3.93701,-17.71654 -2.3622,-28.34646 -6.29922,-10.62992 -28.74016,-19.68504 -35.43308,-21.25984 -6.69291,-1.5748 -7.08661,-1.5748 -7.08661,-1.5748 z"
   id="path3371"
   inkscape:connector-curvature="0"
   data-podium="8" /></svg>