<?xml version="1.0" encoding="UTF-8" standalone="no"?>
<!-- Generator: Adobe Illustrator 19.1.0, SVG Export Plug-In . SVG Version: 6.00 Build 0)  -->

<svg
   xmlns:dc="http://purl.org/dc/elements/1.1/"
   xmlns:cc="http://creativecommons.org/ns#"
   xmlns:rdf="http://www.w3.org/1999/02/22-rdf-syntax-ns#"
   xmlns:svg="http://www.w3.org/2000/svg"
   xmlns="http://www.w3.org/2000/svg"
   xmlns:sodipodi="http://sodipodi.sourceforge.net/DTD/sodipodi-0.dtd"
   xmlns:inkscape="http://www.inkscape.org/namespaces/inkscape"
   version="1.1"
   x="0px"
   y="0px"
   viewBox="0 0 1200 650"
   style="enable-background:new 0 0 1200 650;"
   xml:space="preserve"
   id="svg5335"
   inkscape:version="0.92.1 r15371"
   width="100%"
   height="100%"
   sodipodi:docname="grand2-floor3.svg"><defs
     id="defs4022" /><metadata
     id="metadata5509"><rdf:RDF><cc:Work
         rdf:about=""><dc:format>image/svg+xml</dc:format><dc:type
           rdf:resource="http://purl.org/dc/dcmitype/StillImage" /><dc:title /></cc:Work></rdf:RDF></metadata><sodipodi:namedview
     pagecolor="#ffffff"
     bordercolor="#666666"
     borderopacity="1"
     objecttolerance="10"
     gridtolerance="10"
     guidetolerance="10"
     inkscape:pageopacity="0"
     inkscape:pageshadow="2"
     inkscape:window-width="1920"
     inkscape:window-height="1017"
     id="namedview5505"
     showgrid="false"
     inkscape:zoom="0.62500003"
     inkscape:cx="919.25729"
     inkscape:cy="366.61168"
     inkscape:window-x="-8"
     inkscape:window-y="-8"
     inkscape:window-maximized="1"
     inkscape:current-layer="svg5335" /><path
     class="st0"
     d="m 729.6,342.8 c 0.3,4.2 0.4,14.2 0.7,18.5 -29.63858,-0.20678 -88.24658,-0.65831 -88.24658,-0.65831 l 0.0697,-16.506 -14.07164,-0.24144 -0.91833,16.73685 c 0,0 -17.15913,-0.0911 -25.7331,-0.1311 1.1,-3.1 3.7,-10 5.6,-12.8 1.6,-2.2 2.8,-4.9 10.3,-4.9 7.5,0 60.2,-0.3 112.3,0 z"
     id="path5345"
     inkscape:connector-curvature="0"
     style="fill:#cc9933;stroke:none"
     data-podium="12"
     sodipodi:nodetypes="ccccccccsc" /><path
     class="st0"
     d="m 773.93431,361.3 c -13.3,-0.1 -21.93309,-0.2 -35.23309,-0.3 -0.4,-6.1 -0.37574,-12.1 -0.87574,-18.2 13.2,0.1 21.87452,0.2 35.07452,0.3 0.6,6.1 0.53431,12.1 1.03431,18.2 z"
     id="path5347"
     inkscape:connector-curvature="0"
     style="fill:#cc9933;stroke:none"
     data-podium="11"
     sodipodi:nodetypes="ccccc" /><path
     class="st0"
     d="m 795.48406,361.4 c -5.3,0 -14.70122,-0.1 -20.00122,-0.1 -0.5,-6.1 -0.53431,-12.1 -1.03431,-18.2 5.3,0 14.03553,0.1 19.33553,0.1 0.6,6.1 1.2,12.1 1.7,18.2 z"
     id="path5349"
     inkscape:connector-curvature="0"
     style="fill:#cc9933;stroke:none"
     data-podium="10"
     sodipodi:nodetypes="ccccc" /><path
     class="st0"
     d="m 818.03797,361.5 c -4.9,0 -16.16396,-0.1 -20.96396,-0.1 -0.6,-6.1 -0.21005,-12.1 -0.71005,-18.2 4.8,0 15.07401,0.1 19.87401,0.1 0.5,6.1 1.2,12.1 1.8,18.2 z"
     id="path5351"
     inkscape:connector-curvature="0"
     style="fill:#cc9933;stroke:none"
     data-podium="08"
     sodipodi:nodetypes="ccccc" /><path
     class="st0"
     d="m 838,361.7 c -6.1,0 -12.3,-0.1 -18.4,-0.1 -0.7,-6.1 -1.3,-12.1 -2,-18.2 6.1,0 12.2,0.1 18.3,0.1 0.6,6.1 1.4,12.1 2.1,18.2 z"
     id="path5355"
     inkscape:connector-curvature="0"
     style="fill:#cc9933;stroke:none"
     data-podium="06" /><path
     class="st0"
     d="m 859.3,361.9 c -6.9,0 -13.8,-0.1 -20.7,-0.1 -0.7,-6.1 -1.4,-12.2 -2.1,-18.2 6.9,0 13.7,0.1 20.6,0.1 0.7,6 1.5,12.1 2.2,18.2 z"
     id="path5357"
     inkscape:connector-curvature="0"
     style="fill:#cc9933;stroke:none"
     data-podium="05" /><path
     class="st0"
     d="m 902.9,362.1 c -5.5,0 -11,-0.1 -16.5,-0.1 -0.8,-6.1 -1.7,-12.2 -2.5,-18.2 5.5,0 10.9,0.1 16.4,0.1 0.9,6.1 1.8,12.1 2.6,18.2 z"
     id="path5359"
     inkscape:connector-curvature="0"
     style="fill:#cc9933;stroke:none"
     data-podium="03" /><path
     class="st0"
     d="m 880.2,362 c -5.9,0 -12.93137,-0.1 -18.93137,-0.1 -0.8,-6.1 -2.02426,-12.2 -2.72426,-18.2 5.9,0 13.25563,0.1 19.15563,0.1 0.9,6.1 1.7,12.1 2.5,18.2 z"
     id="path5361"
     inkscape:connector-curvature="0"
     style="fill:#cc9933;stroke:none"
     data-podium="04"
     sodipodi:nodetypes="ccccc" /><path
     class="st0"
     d="m 969.8,362.6 c 6.4,5.4 12.9,10.7 19.4,16.1 -3.8,1.9 -7.6,3.8 -14.8,5.5 -6.3,1.5 -10.7,1.6 -15,1.7 -1.4,-7.9 -1.9,-15.8 -3.3,-23.5 4.9,0 8.9,0.2 13.7,0.2 z"
     id="path5367"
     inkscape:connector-curvature="0"
     style="fill:#cc9933;stroke:none"
     data-podium="01"
     sodipodi:nodetypes="cccccc" /><path
     class="st0"
     d="m 1031.5858,317.24731 c 3.1335,14.26122 5.6206,31.6521 7.7171,41.29411 -4.7226,1.30966 -8.5161,2.93141 -12.0585,5.17574 -12.8,-11.5 -22.5302,-26.29412 -33.57455,-39.43259 -1.6,-1.8 -0.69584,-2.61005 0.60416,-5.71005 1,-2.3 1.65147,-1.18579 3.15147,-1.38579 13.20002,0 20.66032,-0.0414 34.16032,0.0586 z"
     id="path5369"
     inkscape:connector-curvature="0"
     style="fill:#cc9933;stroke:none"
     data-podium="22"
     sodipodi:nodetypes="ccccccc" /><path
     class="st0"
     d="m 1069.3029,317.44731 c 2.5,11.1 5.1415,25.31127 7.7415,36.61127 -6.3,0.1 -10.9444,-0.0414 -17.2444,0.0586 -2.3,0 -5.6899,-0.14142 -10.0899,0.43431 -4.4741,0.58543 -6.5586,1.15147 -8.7586,2.15147 -2.7,-12.8 -5.8657,-26.38995 -8.4657,-38.88995 12.3,0.1 24.4171,-0.36568 36.8171,-0.36568 z"
     id="path5371"
     inkscape:connector-curvature="0"
     style="fill:#cc9933;stroke:none"
     data-podium="23"
     sodipodi:nodetypes="cccsccc" /><path
     class="st1"
     d="m 1103.0615,317.74731 c -11,-0.1 -21.1514,0.18284 -32.1514,0.0828 2.5,11.1 5.6656,24.46274 8.1656,35.76274 11.2,0.1 21.3101,0.38285 32.5101,0.48285 -2.7,-11.3 -5.9243,-25.32843 -8.5243,-36.32843 z"
     id="path5373"
     inkscape:connector-curvature="0"
     style="fill:#cc9933;stroke:none"
     data-podium="24"
     sodipodi:nodetypes="ccccc" /><path
     class="st0"
     d="m 1164.2101,329.48162 c -2.5675,-6.58873 -12.452,-19.04192 -12.452,-19.04192 l -14.8402,6.98334 c 0,0 -26.125,0.60711 -31.925,0.60711 2.7,11.1 6.1071,25.16985 8.9071,36.46985 13.5,0.1 27,0.2 40.5,0.3 5.4,-0.2 10.7,-0.4 13.7,-7.1 1.9,-4.4 -1.4899,-13.21838 -3.8899,-18.21838 z"
     id="path5375"
     inkscape:connector-curvature="0"
     style="fill:#cc9933;stroke:none"
     data-podium="25"
     sodipodi:nodetypes="cccccccc" /><path
     class="st0"
     d="m 878.4,296.6 c 6.8,0 13.6,0.1 20.4,0.1 1.6,5.4 3,13.5 7.3,18.9 4.4,5.4 7.9,11.1 10.8,14.8 -11.4,-0.1 -22.4,-0.5 -33.7,-0.6 -1.4,-9.7 -3.5,-23.6 -4.8,-33.2 z"
     id="path5433"
     inkscape:connector-curvature="0"
     style="fill:#cc9933;stroke:none"
     data-podium="21"
     sodipodi:nodetypes="cccccc" /><path
     style="fill:#cc9933;stroke:none"
     d="m 769.3837,329.52771 c -10.2,-0.1 -19.16862,-0.31213 -29.36862,-0.41213 -0.8,-10.7 -1.31716,-22.78492 -2.01716,-33.18492 10.92071,0.0146 17.81685,-0.10074 28.75221,-0.125 1.01913,10.85261 1.61063,23.45618 2.63357,33.72205 z"
     id="path3166"
     data-podium="17"
     inkscape:connector-curvature="0"
     sodipodi:nodetypes="ccccc" /><path
     style="fill:#cc9933;stroke:none"
     d="m 768.53163,295.98924 c 10.875,0.075 24.5234,0.43284 35.3734,0.48284 1,9.5 1.85858,22.73553 2.85858,32.43553 -1.5,0 -9.82965,-0.0707 -11.32965,-0.0707 -0.8,-8.3 -1.7,-18.86274 -2.5,-27.16274 -10.3,-0.1 -13.89921,0.46567 -24.19921,0.36567"
     id="path5435"
     data-podium="18"
     inkscape:connector-curvature="0"
     sodipodi:nodetypes="cccccc" /><path
     class="st0"
     d="m 732.82721,295.97208 c 0.7,9.5 1.82426,23.72548 2.42426,33.42548 -3,0 -10.07193,-0.21213 -13.07193,-0.31213 -0.6,-9.7 -1.44142,-23.47193 -2.04142,-33.07193 3,0.1 9.78909,-0.0414 12.68909,-0.0414 z"
     id="path5437"
     inkscape:connector-curvature="0"
     style="fill:#cc9933;stroke:none"
     data-podium="16"
     sodipodi:nodetypes="ccccc" /><path
     class="st1"
     d="m 688.73345,296.07071 c 10.7,0.1 19.06655,0.0293 29.76655,0.12929 0.6,9.5 0.5,23.5 1.1,33.3 -8.3,-0.1 -24.80711,-0.1 -33.10711,-0.2 -0.24329,-5.84239 -0.34272,-22.59267 -0.51802,-29.83934 0.25148,-2.56066 1.85858,-2.98995 2.75858,-3.38995 z"
     id="path5439"
     inkscape:connector-curvature="0"
     style="fill:#cc9933;stroke:none"
     data-podium="15"
     sodipodi:nodetypes="cccccc" /><path
     class="st0"
     d="m 623.63015,310.72132 c 5.7,7.1 12.24853,11.75442 18.04853,19.05442 0.6,1.3 1.3,2.6 0.1,4.7 -1.1,2.1 -2,2.2 -2.8,2.2 -9.5,-0.1 -16.87868,0.32426 -26.37868,0.22426 -0.2,-0.2 -0.5,-0.4 -0.8,-0.6 -0.4,-0.3 -0.2,-0.8 -0.1,-1.2 5,-8.9 7.03015,-15.57868 11.93015,-24.37868 z"
     id="path5441"
     inkscape:connector-curvature="0"
     style="fill:#cc9933;stroke:none"
     data-podium="14"
     sodipodi:nodetypes="cccccccc" /><path
     class="st0"
     d="m 620.8,303.5 c -2.2,-2.5 -4.4,-5.1 -6.6,-7.6 -11.8,20.8 -24.3,42 -36.9,64.1 4.8,0 9.7,0.1 14.5,0.1 9.7,-19.3 19.6,-37.9 29,-56.6 z"
     id="path5443"
     inkscape:connector-curvature="0"
     style="fill:#cc9933;stroke:none"
     data-podium="13" /><path
     class="st2"
     d="m 616,272.7 c 3.8,2.5 7.8,5.1 11.6,7.6 -2.8,4.8 -5.7,9.6 -8.5,14.5 -3.9,-2.3 -7.7,-4.7 -11.5,-7 2.7,-5 5.6,-10.1 8.4,-15.1 z"
     id="path5471"
     inkscape:connector-curvature="0"
     style="fill:#cc9933;stroke:none"
     data-podium="71" /><path
     class="st0"
     d="m 660.7,214.4 c 3.1,2 6.4,3.5 9.4,5.5 -4.2,7.4 -24.3,41.7 -28.6,49.2 -3,-2 -6.1,-4 -9.1,-6.1 4.3,-7.4 24.1,-41.2 28.3,-48.6 z"
     id="path5473"
     inkscape:connector-curvature="0"
     style="fill:#cc9933;stroke:none"
     data-podium="41"
     sodipodi:nodetypes="ccccc" /><path
     class="st1"
     d="m 742.1,158.6 c 7.1,0 14.2,0.1 21.3,0.1 0.3,3 0.6,6 0.9,9 2.2,0 4.4,0 6.6,0 0.1,1.3 0.3,2.6 0.4,3.9 6,0 12.1,0.1 18.1,0.1 0.3,2.5 0.6,5.1 0.8,7.7 -15.5,-0.1 -30.9,-0.2 -46.4,-0.2 -0.5,-6.9 -1.1,-13.7 -1.7,-20.6 z"
     id="path5485"
     inkscape:connector-curvature="0"
     style="fill:#cc9933;stroke:none"
     data-podium="58" /><path
     style="fill:#cc9933;stroke:none"
     d="m 841.29998,297.00001 28.5,-0.3 c 0,0 2,0.2 2.8,1.5 0.8,1.3 1.6,4.5 1.6,4.5 l 3.3,24.1 c 0,0 0.4,2 -1.1,2.3 -1.5,0.3 -30.8,0.2 -30.8,0.2 0,0 -2.2,0.1 -3.1,-1 -0.9,-1.1 -1.4,-4.7 -1.4,-4.7 l -2.3,-24.5 c 0,0 0.1,-0.8 0.9,-1.4 0.8,-0.6 1.6,-0.7 1.6,-0.7 z"
     id="path3074"
     inkscape:connector-curvature="0"
     data-podium="20" /><path
     style="fill:#cc9933;stroke:none"
     d="m 902.29998,344.20001 28.1,0 c 0,0 2.8,6.7 9.1,9.7 6.3,3 14.7,4.5 14.7,4.5 l 4.2,27.2 c 0,0 -14.5,0.3 -30.6,-8.4 -16.1,-8.7 -23.9,-15.4 -23.9,-15.4 z"
     id="path3076"
     inkscape:connector-curvature="0"
     data-podium="02" /><path
     style="fill:#cc9933;stroke:none"
     d="m 718.79998,172.70001 0,5.4 -26.7,0 -20.6,38.4 -8.9,-5.4 26.8,-47.4 9.4,0 0.1,9.3 z"
     id="path3078"
     inkscape:connector-curvature="0"
     data-podium="57" /><path
     style="fill:#cc9933;stroke:none"
     d="m 813.19998,296.90001 18.1,0 c 0,0 2.1,-0.2 3.2,1.4 1.1,1.6 1.3,3.9 1.3,3.9 l 2.7,24.5 c 0,0 0.3,1.6 -0.6,2.1 -0.9,0.5 -1.7,0.3 -1.7,0.3 l -20.8,0 c 0,0 -2.1,-0.2 -2.6,-1.1 -0.5,-0.9 -1.5,-2.8 -1.5,-2.8 l -1.8,-24.9 c 0,0 0.4,-2.3 1.6,-2.9 1.2,-0.6 2.1,-0.5 2.1,-0.5 z"
     id="path3080"
     inkscape:connector-curvature="0"
     sodipodi:nodetypes="ccsccsccsccsc"
     data-podium="19" /><path
     style="fill:#cc9933;stroke:none"
     d="m 791.25247,158.70222 27.1529,0 2.54558,20.64752 -28.28427,-0.14142 z"
     id="path3082"
     inkscape:connector-curvature="0"
     data-podium="59" /><path
     style="fill:#cc9933;stroke:none"
     d="m 821.9409,158.70222 48.22468,0 2.54559,17.11198 -48.64895,0 z"
     id="path3084"
     inkscape:connector-curvature="0"
     data-podium="60" /><path
     style="fill:#cc9933;stroke:none"
     d="m 872.56975,158.5608 25.8801,0 3.81838,20.5061 -26.87006,0 z"
     id="path3086"
     inkscape:connector-curvature="0"
     data-podium="61" /><path
     style="fill:#cc9933;stroke:none"
     d="m 901.13686,158.27796 12.5865,0 2.54558,15.69777 6.08112,0 1.13137,5.65685 -18.95046,0 z"
     id="path3088"
     inkscape:connector-curvature="0"
     data-podium="62" /><path
     style="fill:#cc9933;stroke:none"
     d="m 925.17849,173.83431 46.52762,0 1.13138,6.78822 -47.37616,0 z"
     id="path3090"
     inkscape:connector-curvature="0"
     data-podium="63" /><path
     style="fill:#cc9933;stroke:none"
     d="m 989.80805,166.05613 25.45585,0 4.6669,24.60732 -10.4652,12.72792 -14.28354,-13.15219 z"
     id="path3092"
     inkscape:connector-curvature="0"
     data-podium="64" /><path
     style="fill:#cc9933;stroke:none"
     d="m 1022.2717,193.42335 26.3125,-0.50453 60.7158,68.78119 -15.5,14.2 -25.4,-20.6 c 0,0 0.8519,-3.99797 -2.4556,-8.68701 -1.5791,-2.23864 -12.4765,-19.41975 -26.178,-29.55321 -12.2974,-9.09498 -27.6237,-11.35776 -27.6237,-11.35776 z"
     id="path3098"
     inkscape:connector-curvature="0"
     data-podium="67"
     sodipodi:nodetypes="cccccsscc" /><path
     style="fill:#cc9933;stroke:none"
     d="m 1110.7,263.40001 38,44.6 -13.2,6.4 -39.8,-37 z"
     id="path3100"
     inkscape:connector-curvature="0"
     data-podium="26" /><path
     style="fill:#cc9933;stroke:none"
     d="m 1073.6,272.30001 42,35.6 -0.5,2.5 -66,0 -1.8,-1.9 24.3,-34.8 z"
     id="path3102"
     inkscape:connector-curvature="0"
     data-podium="27" /><path
     style="fill:#cc9933;stroke:none"
     d="m 1047.9,255.10001 c 0,0 1.1,-0.9 2.1,-0.6 1,0.3 2.3,1.4 2.3,1.4 l 14.1,11.7 c 0,0 1.2,1.2 0.6,2.3 -0.6,1.1 -11.9,17.2 -11.9,17.2 0,0 -1.1,1.6 -2.6,1.7 -1.5,0.1 -4.2,-1.8 -4.2,-1.8 l -13.8,-12 c 0,0 -0.5,-1 -0.4,-1.9 0.1,-0.9 1.5,-3 1.5,-3 z"
     id="path3104"
     inkscape:connector-curvature="0"
     data-podium="29" /><path
     style="fill:#cc9933;stroke:none"
     d="m 1009.1,307.20001 19.7,-26.7 c 0,0 0.6,-0.8 1.5,-0.8 0.9,0 2.1,0.9 2.1,0.9 l 14.5,11.9 c 0,0 1,1.7 0.6,2.5 -0.4,0.8 -1.1,1.8 -1.1,1.8 l -9.6,13.5 -27,-0.2 c 0,0 -1.6,-0.1 -1.4,-0.9 0.2,-0.8 0.7,-2 0.7,-2 z"
     id="path3106"
     inkscape:connector-curvature="0"
     data-podium="28" /><path
     style="fill:#cc9933;stroke:none"
     d="m 1034.4,234.30001 7.6,-8.4 c 0,0 6.9,6.3 10,11.2 3.1,4.9 6.4,12.9 6.4,12.9 0,0 0.5,1 0,1.7 -0.5,0.7 -1.7,0.2 -1.7,0.2 z"
     id="path3108"
     inkscape:connector-curvature="0"
     data-podium="68" /><path
     style="fill:#cc9933;stroke:none"
     d="m 1032.4,217.40001 -8.1,9.1 -20,-15.3 c 0,0 -0.8,-0.9 0.3,-1.7 1.1,-0.8 8.4,-0.5 14.4,1.5 6,2 13.4,6.4 13.4,6.4 z"
     id="path3110"
     inkscape:connector-curvature="0"
     data-podium="66" /><path
     style="fill:#cc9933;stroke:none"
     d="m 1022.7,236.30001 c 0.4,0 4,-0.1 4,-0.1 l 16.1,13.2 0,3.4 -12.3,16.7 -4.9,-0.5 -16.2,-13.8 0.3,-2.7 z"
     id="path3112"
     inkscape:connector-curvature="0"
     data-podium="31" /><path
     style="fill:#cc9933;stroke:none"
     d="m 998.69998,216.90001 4.80002,-0.3 14.8,12.6 0.9,3.3 -12.5,16.6 -4.9,0 -15.60002,-13.1 -0.1,-3.5 z"
     id="path3114"
     inkscape:connector-curvature="0"
     data-podium="33" /><path
     style="fill:#cc9933;stroke:none"
     d="m 975.99998,196.70001 4.3,0 14,12.1 0.7,3.5 -12.8,16.5 -4.6,0.1 -14.9,-13.9 0.3,-3.7 z"
     id="path3116"
     inkscape:connector-curvature="0"
     data-podium="48" /><path
     style="fill:#cc9933;stroke:none"
     d="m 944.69998,189.20001 21.9,-0.3 c 0,0 3.3,0.7 4.2,3.4 0.9,2.7 -0.2,5 -0.2,5 l -44,51 c 0,0 -0.8,0.9 -2.6,0.6 -1.8,-0.3 -3.6,-1.8 -3.6,-1.8 l -14.6,-12.8 -0.1,-2.6 z"
     id="path3118"
     inkscape:connector-curvature="0"
     data-podium="49" /><path
     style="fill:#cc9933;stroke:none"
     d="m 902.89998,188.60001 27.1,0 c 0,0 1.9,0 2.6,1.6 0.7,1.6 -0.5,3.6 -0.5,3.6 l -30,33.5 c 0,0 -0.4,1 -2.7,0.9 -2.3,-0.1 -3.2,-1.7 -3.2,-1.7 l -14.1,-12.9 c 0,0 -0.7,-1 0.1,-2.7 0.8,-1.7 1.8,-2.8 1.8,-2.8 z"
     id="path3120"
     inkscape:connector-curvature="0"
     data-podium="50" /><path
     style="fill:#cc9933;stroke:none"
     d="m 857.29998,188.50001 33.4,0 c 0,0 1.6,0 1.9,1.2 0.3,1.2 -0.6,3 -1,3.1 -0.4,0.1 -15.3,15.4 -15.3,15.4 l -3.6,0.3 -18,-15.1 c 0,0 -1.2,-1.5 -0.2,-3 1,-1.5 2.8,-1.9 2.8,-1.9 z"
     id="path3122"
     inkscape:connector-curvature="0"
     data-podium="51" /><path
     style="fill:#cc9933;stroke:none"
     d="m 959.11961,219.93767 14.5664,13.15218 c 0,0 2.12132,1.41422 1.2728,2.82843 -0.84853,1.41421 -22.91026,29.8399 -22.91026,29.8399 0,0 -1.2728,1.55564 -2.68701,1.69706 -1.41421,0.14142 -3.25269,-1.69706 -3.25269,-1.69706 0,0 -0.28284,-1.27279 -4.80833,-3.95979 -4.52548,-2.68701 -9.47523,-4.94975 -9.47523,-4.94975 0,0 -2.26274,-0.14142 -1.9799,-2.40416 0.28285,-2.26275 2.12132,-4.80833 2.12132,-4.80833 l 22.76884,-28.56711 c 0,0 1.13137,-0.98995 2.12132,-0.98995 0.98995,0 2.26274,-0.14142 2.26274,-0.14142 z"
     id="path3124"
     inkscape:connector-curvature="0"
     data-podium="47" /><path
     style="fill:#cc9933;stroke:none"
     d="m 983.16124,242.14082 14.00072,13.01076 c 0,0 1.69705,2.12132 1.27279,2.96985 -0.42426,0.84853 -1.9799,2.82843 -1.9799,2.82843 l -20.78894,26.44579 c 0,0 -0.98995,1.27279 -2.12132,1.69706 -1.13137,0.42426 -3.53553,-0.98995 -3.53553,-0.98995 0,0 -0.28284,-4.80833 -3.67696,-7.9196 -3.39411,-3.11127 -8.76812,-5.51543 -8.76812,-5.51543 0,0 -2.40416,-0.28284 -2.40416,-1.13137 0,-0.84853 -0.28285,-2.54559 -0.28285,-2.54559 l 22.91026,-27.86 c 0,0 1.13137,-1.13137 2.54559,-1.13137 1.41421,0 2.82842,0.14142 2.82842,0.14142 z"
     id="path3126"
     inkscape:connector-curvature="0"
     data-podium="32" /><path
     style="fill:#cc9933;stroke:none"
     d="m 1007.3443,261.37412 c 0,0 14.9907,12.16224 15.5563,12.72792 0.5657,0.56569 1.2728,4.10122 1.2728,4.10122 l -25.31439,31.39554 -11.87939,-0.14142 -9.05097,-15.55635 24.46585,-32.10264 z"
     id="path3128"
     inkscape:connector-curvature="0"
     data-podium="30" /><path
     style="fill:#cc9933;stroke:none"
     d="m 834.77119,194.28631 11.76519,9.6501 c 0,0 1.4,1.9 0.9,3.5 -0.5,1.6 -1.9,2.3 -1.9,2.3 l -13.8,9.3 c 0,0 -1.8,1.3 -3.7,1.2 -1.9,-0.1 -3.6,-1.7 -3.6,-1.7 l -10.52209,-10.15769"
     id="path4574"
     inkscape:connector-curvature="0"
     data-podium="72" /><path
     style="fill:#cc9933;stroke:none"
     d="m 812.92434,207.45948 -12.57791,-12.14231 c 0,0 -0.8,-1.1 -0.4,-2.7 0.4,-1.6 3.8,-4.2 3.8,-4.2 h 24 l 6.03481,4.9499"
     id="path3130"
     data-podium="52"
     inkscape:connector-curvature="0" /><path
     style="fill:#cc9933;stroke:none"
     d="m 803.49998,221.80001 6.9,-0.1 21.3,17.1 1.4,3.3 -1.4,1.9 -25.2,0.4 -2.4,-0.5 -1.7,-19.7 z"
     id="path3132"
     inkscape:connector-curvature="0"
     data-podium="46" /><path
     style="fill:#cc9933;stroke:none"
     d="m 771.69998,189.10001 1.9,-1.3 7.2,0.2 18.5,19 c 0,0 1.4,2.5 -0.4,3.5 -1.8,1 -2.2,0.7 -2.2,0.7 l -21,0 c 0,0 -2,0 -2.4,-0.9 -0.4,-0.9 -0.6,-2.3 -0.6,-2.3 z"
     id="path3134"
     inkscape:connector-curvature="0"
     data-podium="53" /><path
     style="fill:#cc9933;stroke:none"
     d="m 774.49998,220.90001 22.3,0.1 1.3,22.3 -22.9,0.4 z"
     id="path3136"
     inkscape:connector-curvature="0"
     data-podium="45" /><path
     style="fill:#cc9933;stroke:none"
     d="m 777.19998,250.30001 9.46203,-0.2 3.35858,36.26569 -9.52061,-0.26569 -1.7,-1.6 -2.6,-32.4 z"
     id="path3138"
     inkscape:connector-curvature="0"
     data-podium="36"
     sodipodi:nodetypes="ccccccc" /><path
     style="fill:#cc9933;stroke:none"
     d="m 805.39998,252.10001 1.3,-2.1 21.4,0.2 1.2,2.4 3.2,31 -0.8,2.2 -21.3,0.3 -2.4,-1.9 z"
     id="path3140"
     inkscape:connector-curvature="0"
     data-podium="35" /><path
     style="fill:#cc9933;stroke:none"
     d="m 863.08948,265.37031 21.5105,16.5297 c 0,0 1.9,1.8 1.2,3.2 -0.7,1.4 -1.9,2.2 -1.9,2.2 l -41.5,0.7 c 0,0 -2,0.3 -2.7,-1.7"
     id="path4578"
     data-podium="73"
     inkscape:connector-curvature="0" /><path
     style="fill:#cc9933;stroke:none"
     d="m 837.99998,285.10001 c -0.7,-2 -1,-4.3 -1,-4.3 l -3.1,-28.3 1.8,-2 h 7.9 l 18.1895,14.1703"
     id="path3142"
     data-podium="34"
     inkscape:connector-curvature="0"
     sodipodi:nodetypes="cccccc" /><path
     style="fill:#cc9933;stroke:none"
     d="m 749.29998,250.40001 20.5,-0.3 1.8,1.9 2.3,32.1 -1.1,1.8 -20.5,0.3 -2.4,-1.9 -1.7,-32.6 z"
     id="path3144"
     inkscape:connector-curvature="0"
     data-podium="37" /><path
     style="fill:#cc9933;stroke:none"
     d="m 720.09998,250.00001 c 0.4,-0.1 19.4,-0.1 19.4,-0.1 l 1.8,1 1.1,2.3 1.7,30.9 -1.2,1.4 -21.7,-0.3 -1.4,-1.9 -1,-31.9 z"
     id="path3146"
     inkscape:connector-curvature="0"
     data-podium="38" /><path
     style="fill:#cc9933;stroke:none"
     d="m 692.25752,249.77757 19.44544,-0.0707 1.9799,1.48493 1.62634,32.24406 -1.62634,1.48493 -21.07178,-0.0707 -1.9799,-1.20208 -0.42427,-32.4562 z"
     id="path3148"
     inkscape:connector-curvature="0"
     data-podium="39" /><path
     style="fill:#cc9933;stroke:none"
     d="m 689.79998,220.90001 20,-0.4 1.8,1.4 1.1,20 -1,1.7 -21.3,0.5 -1.5,-1.4 -0.4,-20.6 z"
     id="path3150"
     inkscape:connector-curvature="0"
     data-podium="42" /><path
     style="fill:#cc9933;stroke:none"
     d="m 717.39998,220.90001 20.3,-0.3 1.6,1.1 1.5,20.1 -0.8,2 -20.6,0.4 -2.1,-1.5 -0.7,-19.9 z"
     id="path3152"
     inkscape:connector-curvature="0"
     data-podium="43" /><path
     style="fill:#cc9933;stroke:none"
     d="m 746.29998,220.90001 20.4,0.1 2,1.5 1.5,19.7 -1.2,1.3 -20,0.5 -2.6,-2.5 -0.8,-18.8 z"
     id="path3154"
     inkscape:connector-curvature="0"
     data-podium="44" /><path
     style="fill:#cc9933;stroke:none"
     d="m 744.69998,188.00001 19.4,-0.2 2,1.5 1.4,20.1 -1.4,1.7 -19.5,-0.1 -2.3,-1.7 -0.9,-19.5 z"
     id="path3156"
     inkscape:connector-curvature="0"
     data-podium="54" /><path
     style="fill:#cc9933;stroke:none"
     d="m 737.87192,198.91022 0.57806,10.08979 -1.5,1.8 -19.9,0.1 -1.7,-2 -0.39781,-9.79602"
     id="path4570"
     inkscape:connector-curvature="0"
     data-podium="61" /><path
     style="fill:#cc9933;stroke:none"
     d="m 714.85217,197.70399 -0.40219,-9.90398 1.1,-1.5 20.2,0.1 1.5,2 0.52194,9.11021"
     id="path3158"
     inkscape:connector-curvature="0"
     data-podium="55" /><path
     style="fill:#cc9933;stroke:none"
     d="m 696.09998,187.90001 12.5,-0.2 1.7,1.1 0.5,19.9 -1.4,1.5 -22.51335,-0.1 c 0,0 -2.2,0.1 -2.1,-2.1 0.1,-2.2 0.6,-2.8 0.6,-2.8 l 9.01335,-16.8 z"
     id="path3160"
     inkscape:connector-curvature="0"
     data-podium="70"
     sodipodi:nodetypes="ccccccsccc" /><path
     style="fill:#cc9933;stroke:none"
     d="m 658.99998,249.80001 22.6,-0.1 c 0,0 1.6,0 1.8,0.9 0.2,0.9 0.6,2.3 0.6,2.3 l 0.7,30.1 c 0,0 0.5,0.8 -0.9,1.5 -1.4,0.7 -2.9,1 -2.9,1 l -10.9,-0.2 c 0,0 -4.2,-4.9 -10.4,-8.2 -6.2,-3.3 -10.4,-5 -10.4,-5 0,0 -1.3,-0.5 -1.2,-1.6 0.1,-1.1 0.8,-3.2 0.8,-3.2 z"
     id="path3162"
     inkscape:connector-curvature="0"
     data-podium="40" /><path
     style="fill:#cc9933;stroke:none"
     d="m 676.65405,221.55909 4.5804,0.0121 1.7,1.1 0.5,19.9 -1.4,1.5 -15.08873,-0.1 c 0,0 -2.2,0.1 -2.1,-2.1 0.1,-2.2 0.6,-2.8 0.6,-2.8 l 9.50833,-17.01213 z"
     id="path3160-7"
     inkscape:connector-curvature="0"
     data-podium="56"
     sodipodi:nodetypes="ccccccsccc" /><path
     style="fill:#cc9933"
     d="m 788.98973,250.20184 8.98025,-0.28285 c 0,0 1.55564,0.0707 1.9799,1.9799 0.42427,1.90919 3.25269,30.97128 3.25269,30.97128 0,0 0.21213,2.75771 -1.20208,2.96985 -1.41421,0.21213 -9.89949,0.28284 -9.89949,0.28284 z"
     id="path4567"
     inkscape:connector-curvature="0"
     data-podium="69" /></svg>