<?xml version="1.0" encoding="UTF-8" standalone="no"?>
<!-- Generator: Adobe Illustrator 19.1.0, SVG Export Plug-In . SVG Version: 6.00 Build 0)  -->

<svg
   xmlns:dc="http://purl.org/dc/elements/1.1/"
   xmlns:cc="http://creativecommons.org/ns#"
   xmlns:rdf="http://www.w3.org/1999/02/22-rdf-syntax-ns#"
   xmlns:svg="http://www.w3.org/2000/svg"
   xmlns="http://www.w3.org/2000/svg"
   xmlns:sodipodi="http://sodipodi.sourceforge.net/DTD/sodipodi-0.dtd"
   xmlns:inkscape="http://www.inkscape.org/namespaces/inkscape"
   version="1.1"
   x="0px"
   y="0px"
   viewBox="0 0 1200 650"
   style="enable-background:new 0 0 1200 650;"
   xml:space="preserve"
   id="svg4085"
   inkscape:version="0.92.1 r15371"
   width="100%"
   height="100%"
   sodipodi:docname="grand2-floor0.svg"><defs
     id="defs4151" /><sodipodi:namedview
     pagecolor="#ffffff"
     bordercolor="#666666"
     borderopacity="1"
     objecttolerance="10"
     gridtolerance="10"
     guidetolerance="10"
     inkscape:pageopacity="0"
     inkscape:pageshadow="2"
     inkscape:window-width="1920"
     inkscape:window-height="1017"
     id="namedview4149"
     showgrid="false"
     inkscape:zoom="1.25"
     inkscape:cx="332.30995"
     inkscape:cy="375.94568"
     inkscape:window-x="-8"
     inkscape:window-y="-8"
     inkscape:window-maximized="1"
     inkscape:current-layer="svg4085" /><metadata
     id="metadata4171"><rdf:RDF><cc:Work
         rdf:about=""><dc:format>image/svg+xml</dc:format><dc:type
           rdf:resource="http://purl.org/dc/dcmitype/StillImage" /></cc:Work></rdf:RDF></metadata><path
     class="st0"
     d="m 908,308.8 c -10.3,-0.1 -20.6,-0.2 -31,-0.2 0.4,3.3 0.9,6.6 1.3,9.9 10.4,0.1 20.9,0.1 31.2,0.2 -0.5,-3.3 -1,-6.6 -1.5,-9.9 z"
     id="path4095"
     style="fill:#e95c2e"
     data-podium="32" /><path
     class="st0"
     d="m 943.1,318.9 c 5.9,0 11.7,0.1 17.6,0.1 -0.6,-3.3 -1.2,-6.5 -1.9,-9.8 -6.6,0 -13.1,-0.1 -19.7,-0.1 0.4,2.1 0.8,4.3 1.1,6.4 -9.8,-0.1 -19.6,-0.1 -29.5,-0.2 0.2,1.1 0.4,2.3 0.5,3.4 9.9,0.1 19.8,0.1 29.6,0.2 0.8,0 1.6,0 2.3,0 z"
     id="path4097"
     style="fill:#e95c2e"
     data-podium="31" /><path
     class="st0"
     d="m 874.9,308.6 c -5.6,0 -11.2,-0.1 -16.7,-0.1 0.4,3.3 0.8,6.6 1.2,9.9 5.6,0 11.2,0.1 16.9,0.1 -0.5,-3.3 -0.9,-6.6 -1.4,-9.9 z"
     id="path4099"
     style="fill:#e95c2e"
     data-podium="33" /><path
     class="st0"
     d="m 856.7,308.7 c -4,0 -7.9,-0.1 -11.9,-0.1 0.4,3.3 0.7,6.6 1.1,9.9 4,0 8,0 12,0.1 -0.4,-3.3 -0.8,-6.6 -1.2,-9.9 z"
     id="path4101"
     style="fill:#e95c2e"
     data-podium="34" /><path
     class="st0"
     d="m 875.7,322.8 c -10.9,-0.1 -22.3,-0.1 -33.3,-0.1 0.4,3.4 0.7,6.8 1.1,10.2 11,0 22.6,0 33.5,0.1 -0.4,-3.5 -0.9,-6.8 -1.3,-10.2 z"
     id="path4103"
     style="fill:#e95c2e"
     data-podium="26" /><path
     class="st0"
     d="m 903.5,323 c -8.9,0 -17.8,-0.1 -26.7,-0.1 0.4,3.4 0.9,6.7 1.3,10.1 9,0 18,0.1 26.9,0.1 -0.5,-3.4 -1,-6.8 -1.5,-10.1 z"
     id="path4105"
     style="fill:#e95c2e"
     data-podium="27" /><path
     class="st0"
     d="m 921.1,323.1 c -5.4,0 -10.7,-0.1 -16.1,-0.1 0.5,3.3 1,6.7 1.5,10.1 5.4,0 10.8,0 16.2,0.1 -0.5,-3.5 -1.1,-6.8 -1.6,-10.1 z"
     id="path4107"
     style="fill:#e95c2e"
     data-podium="28" /><path
     class="st0"
     d="m 939.6,323.2 c -5.3,0 -10.7,-0.1 -16,-0.1 0.5,3.3 1.1,6.7 1.6,10 5.4,0 10.8,0 16.1,0.1 -0.5,-3.4 -1.1,-6.7 -1.7,-10 z"
     id="path4109"
     style="fill:#e95c2e"
     data-podium="29" /><path
     class="st0"
     d="m 957.5,323.3 c -5.3,0 -10.6,-0.1 -15.9,-0.1 0.6,3.3 1.2,6.7 1.8,10 5.3,0 10.7,0 16,0.1 -0.6,-3.4 -1.3,-6.7 -1.9,-10 z"
     id="path4111"
     style="fill:#e95c2e"
     data-podium="30" /><path
     class="st0"
     d="m 908.5,345.5 c 5.5,0 10.9,0 16.3,0 -0.6,-3.4 -1.1,-6.8 -1.7,-10.2 -5.4,0 -10.8,0 -16.2,-0.1 0.5,3.4 1.1,6.8 1.6,10.3 z"
     id="path4113"
     style="fill:#e95c2e"
     data-podium="21" /><path
     class="st0"
     d="m 905.1,335.2 c -6.8,0 -13.7,0 -20.5,-0.1 0.5,3.4 0.9,6.8 1.4,10.3 6.9,0 13.8,0 20.7,0 -0.5,-3.4 -1.1,-6.8 -1.6,-10.2 z"
     id="path4115"
     style="fill:#e95c2e"
     data-podium="22" /><path
     class="st0"
     d="m 882.9,335.2 c -6.9,0 -13.8,0 -20.7,-0.1 0.4,3.4 0.8,6.9 1.2,10.3 7,0 13.9,0 20.8,0 -0.4,-3.4 -0.9,-6.8 -1.3,-10.2 z"
     id="path4117"
     style="fill:#e95c2e"
     data-podium="23" /><path
     class="st0"
     d="m 888.5,361.1 c 7,0 13.9,0 20.9,0 -0.5,-3.5 -1.1,-7 -1.6,-10.5 -6.9,0 -13.8,0 -20.7,0 0.5,3.5 0.9,7 1.4,10.5 z"
     id="path4119"
     style="fill:#e95c2e"
     data-podium="04" /><path
     class="st0"
     d="m 884.9,350.9 c -6.9,0 -13.9,0 -20.9,0 0.4,3.5 0.8,7 1.3,10.5 7,0 14,0 21,0 -0.4,-3.5 -0.9,-7 -1.4,-10.5 z"
     id="path4121"
     style="fill:#e95c2e"
     data-podium="03" /><path
     class="st0"
     d="m 844.8,345.4 c 5.4,0 11.3,0 16.6,0 -0.4,-3.5 -0.8,-6.9 -1.2,-10.3 -5.3,0 -11.2,0 -16.5,-0.1 0.4,3.5 0.8,6.9 1.1,10.4 z"
     id="path4123"
     style="fill:#e95c2e"
     data-podium="24" /><path
     class="st0"
     d="m 837.1,337.7 c -3.1,0 -6.2,0 -9.2,0 0.2,2.5 0.5,4.9 0.7,7.4 3.1,0 6.2,0 9.3,0 -0.3,-2.4 -0.6,-4.9 -0.8,-7.4 z"
     id="path4125"
     style="fill:#e95c2e"
     data-podium="25" /><path
     class="st0"
     d="m 835.2,318.2 8.7,0.1 -1.1,-10 -18.1,-0.1 2.3,24.5 9.6,0 -1.4,-14.5 z"
     id="path4127"
     style="fill:#e95c2e"
     data-podium="35" /><path
     class="st0"
     d="m 862.4,350.9 c -8,0 -16.1,0 -24.2,0 -0.1,-1.3 -0.3,-2.6 -0.4,-3.8 -3.1,0 -6.2,0 -9.3,0 0.1,1.3 0.2,2.6 0.4,3.8 0.1,1.2 0.2,2.4 0.3,3.7 0.2,2.3 0.4,4.6 0.7,6.9 11.3,0 22.5,0 33.7,0 -0.3,-3.6 -0.7,-7.1 -1.2,-10.6 z"
     id="path4129"
     style="fill:#e95c2e"
     data-podium="02" /><path
     class="st0"
     d="m 941.8,335.4 c -5.4,0 -10.8,0 -16.1,-0.1 0.6,3.4 1.1,6.8 1.7,10.2 5.4,0 10.8,0 16.2,0 -0.7,-3.4 -1.3,-6.8 -1.8,-10.1 z"
     id="path4131"
     style="fill:#e95c2e"
     data-podium="20" /><path
     class="st0"
     d="m 945.6,345.5 c 5.4,0 10.8,0 16.2,0 -0.6,-3.4 -1.3,-6.8 -1.9,-10.2 -5.3,0 -10.7,0 -16,-0.1 0.5,3.5 1.1,6.9 1.7,10.3 z"
     id="path4133"
     style="fill:#e95c2e"
     data-podium="19" /><path
     class="st0"
     d="m 997.1,331.7 c -6.3,0 -12.7,-0.1 -19.1,-0.1 0.9,4.6 1.5,9.4 2.4,14 6.4,0 13.2,0 19.6,0 -0.9,-4.6 -1.9,-9.3 -2.9,-13.9 z"
     id="path4135"
     style="fill:#e95c2e"
     data-podium="18" /><path
     class="st0"
     d="m 988,351.2 h -13 l 2.1,10.5 12.9,-0.2 c -0.8,-3.5 -1.3,-6.8 -2,-10.3 z"
     id="path4137"
     style="fill:#e95c2e"
     data-podium="07"
     inkscape:connector-curvature="0"
     sodipodi:nodetypes="ccccc" /><path
     class="st0"
     d="m 1040.3,361.7 c -0.4,-1.8 -0.8,-3.5 -1.3,-5.2 -0.4,-1.7 -0.8,-3.5 -1.2,-5.2 -11,0 -22.3,0 -33.4,0 0.8,3.5 1.5,7 2.3,10.5 6.4,0 13.1,0 19.5,0 0.4,1.8 0.8,3.5 1.2,5.3 4.7,0 9.4,0 14.1,0 -0.4,-1.9 -0.8,-3.7 -1.2,-5.4 z"
     id="path4139"
     style="fill:#e95c2e"
     data-podium="08" /><path
     class="st0"
     d="m 948.1,361.8 c 9,0 17.9,0 26.8,0 -0.7,-3.5 -1.4,-7 -2.1,-10.5 -8.8,0 -17.7,0 -26.6,0 0.7,3.4 1.3,6.9 1.9,10.5 z"
     id="path4141"
     style="fill:#e95c2e"
     data-podium="06" /><path
     class="st0"
     d="m 910.9,361.8 c 11.8,0 23.5,0 35.2,0 -0.6,-3.5 -1.2,-7.1 -1.9,-10.6 -11.6,0 -23.3,0 -35,0 0.6,3.5 1.2,7 1.7,10.6 z"
     id="path4143"
     style="fill:#e95c2e"
     data-podium="05" /><path
     class="st0"
     d="m 1019.1,331.8 c -6.3,0 -12.8,0 -19.2,0 1,4.6 1.6,9.2 2.6,13.8 6.4,0 12.8,0 19.1,0 -1,-4.6 -1.5,-9.2 -2.5,-13.8 z"
     id="path4145"
     style="fill:#e95c2e"
     data-podium="17" /><path
     class="st0"
     d="m 1041.2,332.1 c -6.3,0 -12.9,0 -19.2,0 1.1,4.6 1.6,8.9 2.7,13.6 6.3,0 13.1,0 19.5,0 -1.2,-4.7 -1.9,-9 -3,-13.6 z"
     id="path4147"
     style="fill:#e95c2e"
     data-podium="16" /><path
     class="st0"
     d="m 1076.9,343 c -2.7,-3.6 -5.3,-7.3 -8,-10.9 -8.2,0 -17.4,0 -25.7,0 1.1,4.6 1.8,9.2 2.9,13.9 7.4,0 15.6,0 23,0 2.5,-1 5.4,-2 7.8,-3 z"
     id="path4149"
     style="fill:#e95c2e"
     data-podium="15" /><path
     class="st0"
     d="m 1073.9,362.5 c 4,2.5 8,5.1 12.1,7.7 3,-1.6 6.5,-3.5 9.4,-5 -5.8,-6.8 -11.1,-13.3 -16.8,-20 -2.5,1.2 -5.5,2.3 -8,3.5 1.3,4.5 2.1,9.2 3.3,13.8 z"
     id="path4151"
     style="fill:#e95c2e"
     data-podium="14" /><path
     class="st0"
     d="m 1110.5,381.6 c -1.3,0.7 -3.1,1.1 -4.4,1.8 -4,-4.3 -7.8,-8.5 -11.8,-12.7 -1.3,0.6 -2.9,1.4 -4.1,2.1 8.3,7.8 16.3,15.6 24.8,23.6 1.6,-1.1 3.7,-2.1 5.3,-3.2 -3.5,-3.9 -6.5,-7.8 -9.8,-11.6 z"
     id="path4153"
     style="fill:#e95c2e"
     data-podium="13" /><path
     class="st0"
     d="m 1043.9,377.3 c -0.5,-2 -1,-4 -1.4,-6 -4.7,0 -9.3,0 -14,0 0.5,2 0.9,4 1.4,6 4.6,0 9.3,0 14,0 z"
     id="path4155"
     style="fill:#e95c2e"
     data-podium="09" /><path
     class="st0"
     d="m 1045.6,377.3 c 3.8,0 7.8,-0.1 11.5,-0.1 -0.5,-2 -0.7,-3.6 -1.2,-5.6 -3.7,0 -7.8,0 -11.5,0 0.5,2 0.7,3.7 1.2,5.7 z"
     id="path4157"
     style="fill:#e95c2e"
     data-podium="10" /><path
     class="st0"
     d="m 1069.8,377.8 c -0.2,-2.2 -0.7,-4.2 -1.2,-6.2 -3.7,0 -7.5,0 -11.2,0 0.5,2 0.7,3.9 1.2,5.9 3.7,0 7.5,0.3 11.2,0.3 z"
     id="path4159"
     style="fill:#e95c2e"
     data-podium="11" /><path
     class="st0"
     d="m 1070.4,371.9 c 0.5,2 0.7,3.9 1.2,5.9 1.1,0 2.7,-0.3 2.7,-0.3 0.6,0 0.7,0.2 1.2,0.6 0,0 1.8,0.9 3.2,1.8 1.2,-1.2 2.4,-2.4 3.5,-3.5 -3.6,-2.1 -8.5,-4.6 -8.5,-4.6 -0.6,-0.3 2.2,0.1 0.2,-0.1 0,-0.1 -2.2,0.2 -3.5,0.2 z"
     id="path4161"
     style="fill:#e95c2e"
     data-podium="12" /><path
     class="st1"
     d="m 988.9,382.4 c -1.1,-5.3 -2.1,-10.5 -3.1,-15.7 -50.9,0.1 -103.1,0.2 -156.6,0.2 -0.8,-8.3 -1.5,-16.5 -2.3,-24.6 -5.8,0 -11.5,0 -17.3,0 2.3,27.9 4.7,57.5 7.2,89 24,-0.2 47.8,-0.5 47.8,-0.5 3.3,3.7 12.8,15.5 19.4,20.9 9.4,7.6 20.7,18.5 48.1,22.1 28.9,3.8 40.4,-5 51.8,-13.7 2.4,-2.4 4.7,-4.8 7.1,-7.2 1.4,-4.4 2.9,-8.7 4.3,-13 0.5,-3.5 1,-6.9 1.5,-10.3 38.9,-0.4 77.1,-0.8 114.6,-1.1 -1.9,-5.9 -3.8,-11.8 -5.6,-17.6 -10.9,-9.7 -21.7,-19.3 -32.4,-28.8 -28,0.1 -56.2,0.2 -84.5,0.3 z"
     id="path4163"
     style="fill:#1c315e"
     data-podium="01" /><path
     class="st2"
     d="m 636.1,368.1 h 40.7 l 1.2,24.8 h -41.6 l -0.3,-24.8 z"
     id="path4165"
     style="fill:#05828f;fill-rule:evenodd"
     data-podium="36" /><path
     style="fill:none;stroke:#000000;stroke-width:1px;stroke-linecap:butt;stroke-linejoin:miter;stroke-opacity:1"
     d="m 991.4,361.5 h 13.1 l -1.9,-9.7 h -12.9 z"
     id="path4536"
     inkscape:connector-curvature="0"
     data-podium="37" /></svg>