<?xml version="1.0" encoding="UTF-8" standalone="no"?>
<!-- Generator: Adobe Illustrator 19.1.0, SVG Export Plug-In . SVG Version: 6.00 Build 0)  -->

<svg
   xmlns:dc="http://purl.org/dc/elements/1.1/"
   xmlns:cc="http://creativecommons.org/ns#"
   xmlns:rdf="http://www.w3.org/1999/02/22-rdf-syntax-ns#"
   xmlns:svg="http://www.w3.org/2000/svg"
   xmlns="http://www.w3.org/2000/svg"
   xmlns:sodipodi="http://sodipodi.sourceforge.net/DTD/sodipodi-0.dtd"
   xmlns:inkscape="http://www.inkscape.org/namespaces/inkscape"
   version="1.1"
   x="0px"
   y="0px"
   viewBox="0 0 1200 650"
   style="enable-background:new 0 0 1200 650;"
   xml:space="preserve"
   id="svg4857"
   inkscape:version="0.92.1 r15371"
   width="100%"
   height="100%"
   sodipodi:docname="grand2-floor2.svg"><defs
     id="defs3678" /><metadata
     id="metadata5061"><rdf:RDF><cc:Work
         rdf:about=""><dc:format>image/svg+xml</dc:format><dc:type
           rdf:resource="http://purl.org/dc/dcmitype/StillImage" /></cc:Work></rdf:RDF></metadata><sodipodi:namedview
     pagecolor="#ffffff"
     bordercolor="#666666"
     borderopacity="1"
     objecttolerance="10"
     gridtolerance="10"
     guidetolerance="10"
     inkscape:pageopacity="0"
     inkscape:pageshadow="2"
     inkscape:window-width="1920"
     inkscape:window-height="1017"
     id="namedview5057"
     showgrid="false"
     inkscape:zoom="1.0000001"
     inkscape:cx="563.34388"
     inkscape:cy="305.70072"
     inkscape:window-x="-8"
     inkscape:window-y="-8"
     inkscape:window-maximized="1"
     inkscape:current-layer="svg4857"
     inkscape:snap-global="true" /><path
     style="fill:#90acac"
     id="path3341"
     d="m 714.08398,247.04548 h -36.5 c -1.4,0 -2.5,-1.1 -2.5,-2.5 l -0.7,-20.5 c 0,-1.4 1.1,-2.6 2.5,-2.6 h 35.7 c 1.3,0 2.4,1 2.5,2.4 l 1.4,20.5 c 0.2,1.5 -0.9,2.7 -2.4,2.7 z"
     class="st0"
     inkscape:connector-curvature="0"
     data-podium="20" /><path
     style="fill:#90acac"
     id="path3343"
     d="m 739.57148,247.90798 -15.125,-0.1875 c -1.19991,-0.0149 -2.3,-1 -2.4,-2.2 l -1.4,-21.2 c -0.1,-1.4 1.0003,-2.5291 2.4,-2.5 l 14.4,0.3125 z"
     class="st0"
     inkscape:connector-curvature="0"
     data-podium="21"
     sodipodi:nodetypes="csccscc" /><path
     transform="translate(-0.2160229,1.3454758)"
     style="fill:#90acac"
     d="m 763,246.5 -2.1,-25.6 15.6,0 19.9,17.6 1.1,8 z"
     id="polygon3345"
     data-podium="22"
     inkscape:connector-curvature="0" /><path
     style="fill:#90acac"
     id="path3347"
     d="m 678.88398,252.44548 h 34.7 c 1.8,0 3.3,1.4 3.4,3.2 l 1.3,21.1 c 0.1,2 -1.4,3.6 -3.4,3.6 h -35 c -1.8,0 -3.3,-1.4 -3.4,-3.2 l -1,-21.1 c -0.1,-1.9 1.5,-3.6 3.4,-3.6 z"
     class="st0"
     inkscape:connector-curvature="0"
     data-podium="16" /><path
     style="fill:#90acac"
     id="path3349"
     d="m 725.88398,252.94548 h 29 c 1.6,0 3,1.2 3.1,2.9 l 1.6,21.3 c 0.1,1.8 -1.3,3.3 -3.1,3.3 h -29.1 c -1.6,0 -3,-1.2 -3.1,-2.9 l -1.6,-21.3 c 0,-1.8 1.4,-3.3 3.2,-3.3 z"
     class="st0"
     inkscape:connector-curvature="0"
     data-podium="17" /><path
     style="fill:#90acac"
     id="path3351"
     d="m 765.88398,252.94548 h 29.3 c 1.4,0 2.5,1 2.7,2.4 l 2.3,22.4 c 0.2,1.6 -1.1,3 -2.7,3 l -30,0.2 c -1.4,0 -2.6,-1.1 -2.7,-2.5 l -1.6,-22.6 c -0.1,-1.6 1.2,-2.9 2.7,-2.9 z"
     class="st0"
     inkscape:connector-curvature="0"
     data-podium="18" /><path
     style="fill:#90acac"
     id="path3353"
     d="m 806.08398,253.24548 h 3.2 l 21.1,18.8 c 3.5,3.1 1.3,8.8 -3.4,8.8 h -18 c -2,0 -3.7,-1.5 -3.9,-3.5 l -2.1,-20.7 c -0.2,-1.8 1.3,-3.4 3.1,-3.4 z"
     class="st0"
     inkscape:connector-curvature="0"
     data-podium="19" /><path
     style="fill:#90acac"
     d="m 845.23398,242.72048 -17.9,16.75 -3.075,-3.4 17.825,-16.4 z"
     id="polygon3355"
     data-podium="29"
     inkscape:connector-curvature="0"
     sodipodi:nodetypes="ccccc" /><path
     style="fill:#90acac"
     id="path3357"
     d="m 871.20898,258.54548 3.075,2.1 c 0,0 4.3,5.9 4.3,9.1 0,3.2 -1.3,6.6 -1.3,6.6 l -12,10.5 -2.2,-2.3 11.9,-10.5 c 0,0 1.8,-3.8 1,-6.7 -0.7,-2.9 -3.6,-5.9 -3.6,-5.9 l -2.675,-1.1 z"
     class="st0"
     inkscape:connector-curvature="0"
     data-podium="30"
     sodipodi:nodetypes="ccscccccccc" /><path
     transform="translate(-0.2160229,1.3454758)"
     style="fill:#90acac"
     d="m 859.1,286 -2.8,1.8 -20.6,-19.2 2.8,-2.1 z"
     id="polygon3359"
     data-podium="28"
     inkscape:connector-curvature="0" /><path
     style="fill:#90acac"
     id="path3365"
     d="m 995.48398,407.04548 6.00002,5.1 c 0,0 -10.70002,9.8 -18.30002,12 -7.5,2.2 -23.8,3.2 -29,3.3 -5.2,0.1 -4.2,0.2 -7.2,0 -3,-0.2 -22.5,-2.7 -34.1,-12.6 -11.6,-10 -12.7,-9.1 -18.3,-16.1 -5.5,-7 -8.2,-11.2 -8.2,-11.2 l -1.08742,-11.66726 -1.13934,-8.60241 25.72676,-0.53033 c 2.09955,-0.0433 4.1,1 5.4,2.6 2.2,2.7 6.1,6.1 13.4,8.4 8.3,2.7 14.5,3.4 17.5,3.1 1.5,-0.2 3,0.3 4.1,1.3 l 35.5,31.8 z"
     class="st0"
     inkscape:connector-curvature="0"
     data-podium="4"
     sodipodi:nodetypes="cccsscccccscccccc" /><path
     style="fill:#90acac"
     id="path3369"
     d="m 692.28398,365.94548 38.9,0.4 1.6,20.4 h -52.2 l -0.6,-13.4 c 0,0 4.5,-1.6 7.2,-3.5 2.8,-1.9 5.1,-3.9 5.1,-3.9 z"
     class="st0"
     inkscape:connector-curvature="0"
     data-podium="2" /><path
     style="fill:#90acac"
     id="path3371"
     d="m 641.30898,370.89548 c 14.3,7.5 37.275,2.95 37.275,2.95 l 0.6,12.9 -38.625,-0.725 z m -14.5,15.275 -47.625,-0.325 22.5,-40.3 22.8,0 c 0,0 -0.4,2.05 3.3625,7.9 z"
     class="st0"
     inkscape:connector-curvature="0"
     data-podium="1"
     sodipodi:nodetypes="ccccccccccc" /><path
     style="fill:#90acac"
     id="path3373"
     d="m 605.70891,286.61376 4.46066,1.25806 c 0,0 1.58128,5.54834 -0.0813,13.18318 -1.79059,8.22276 -3.87868,10.00711 -4.77868,10.60711 -0.9,0.6 -2.65356,1.76066 -2.65356,1.76066 l -9.28648,-6.31612 z"
     class="st0"
     inkscape:connector-curvature="0"
     data-podium="10"
     sodipodi:nodetypes="ccssccc" /><path
     style="fill:#90acac"
     id="path3375"
     d="m 685.48398,195.74548 h 9.2 l 0.4,10.7 h 14 v 4.9 c 0,1.4 -1.1,2.5 -2.5,2.5 h -31.5 l 10.4,-18.1 z"
     class="st0"
     inkscape:connector-curvature="0"
     data-podium="24" /><path
     style="fill:#90acac"
     id="path3377"
     d="m 732.78398,188.64548 h 15.4 l 1.6,17.7 h 19.7 l 0.6,8.2 h -32.2 c -2,0 -3.6,-1.5 -3.7,-3.5 l -1.4,-22.4 z"
     class="st0"
     inkscape:connector-curvature="0"
     data-podium="25" /><path
     style="fill:#90acac"
     id="path3379"
     d="m 770.08398,200.34548 23.24936,-0.26517 0.53779,13.84645 -18.28715,0.61872 c -2.39863,0.0812 -4.4,-1.8 -4.6,-4.2 z"
     class="st0"
     inkscape:connector-curvature="0"
     data-podium="26"
     sodipodi:nodetypes="cccscc" /><path
     transform="translate(-0.2160229,1.3454758)"
     style="fill:#90acac"
     d="m 846.5,199 2,14.2 -29.1,0 -1.7,-14.2 z"
     id="polygon3381"
     data-podium="27"
     inkscape:connector-curvature="0" /><path
     transform="translate(-0.2160229,1.3454758)"
     style="fill:#90acac"
     d="m 849.6,193.8 -1.1,-8.6 57.3,0 4.2,28 -54.6,0 -0.9,-7.5 21.7,0 -1.2,-8.7 -19.6,0 -0.4,-3.2 z"
     id="polygon3383"
     data-podium="64"
     inkscape:connector-curvature="0" /><path
     transform="translate(-0.2160229,1.3454758)"
     style="fill:#90acac"
     d="m 947.4,205.7 1.5,7.5 -36.7,0 -1.3,-7.5 z"
     id="polygon3385"
     data-podium="65"
     inkscape:connector-curvature="0" /><path
     style="fill:#90acac"
     id="path3387"
     d="m 962.21478,206.65531 12.8692,0.39017 0.9,4.2 c 0.4,1.7 -0.9,3.3 -2.7,3.3 l -9.95,-0.625 z"
     class="st0"
     inkscape:connector-curvature="0"
     data-podium="66"
     sodipodi:nodetypes="cccscc" /><path
     transform="translate(-0.2160229,1.3454758)"
     style="fill:#90acac"
     d="m 994.9,219.2 -3.3,-16.6 26.5,0 5.5,24 -8,9.2 z"
     id="polygon3389"
     data-podium="63"
     inkscape:connector-curvature="0" /><path
     transform="translate(-0.2160229,1.3454758)"
     style="fill:#90acac"
     d="m 1047.5,226.9 -20.7,17.8 -10.3,-8.1 8.5,-9.7 z"
     id="polygon3391"
     data-podium="59"
     inkscape:connector-curvature="0" /><path
     transform="translate(-0.2160229,1.3454758)"
     style="fill:#90acac"
     d="m 1071.5,257.2 -11.4,14.5 -32.4,-26.2 20.3,-17.6 z"
     id="polygon3393"
     data-podium="55"
     inkscape:connector-curvature="0" /><path
     transform="translate(-0.2160229,1.3454758)"
     style="fill:#90acac"
     d="m 1088.2,277.5 -8,10.5 -19.1,-15.6 11,-14.1 z"
     id="polygon3395"
     data-podium="51"
     inkscape:connector-curvature="0" /><path
     transform="translate(-0.2160229,1.3454758)"
     style="fill:#90acac"
     d="m 1122.9,318.3 -6.1,3.8 -35.4,-33.4 7.9,-10.2 z"
     id="polygon3397"
     data-podium="50"
     inkscape:connector-curvature="0" /><path
     style="fill:#90acac"
     id="path3399"
     d="m 1117.484,324.64548 6.6,-3.3 37,43.8 c 0,0 3.7,7.4 3.7,11.7 0,4.3 -1.2,5.5 -4,6.9 -2.8,1.4 -20.1,2.2 -20.1,2.2 l -6.2,-22.7 h 13.9 l -30.9,-38.6 z"
     class="st0"
     inkscape:connector-curvature="0"
     data-podium="38" /><path
     transform="translate(-0.2160229,1.3454758)"
     style="fill:#90acac"
     d="m 1134,361.9 5.9,22.7 -19.5,0 -5.3,-22.7 z"
     id="polygon3401"
     data-podium="37"
     inkscape:connector-curvature="0" /><path
     transform="translate(-0.2160229,1.3454758)"
     style="fill:#90acac"
     d="m 1114.1,361.9 5.5,22.7 -14.9,0 -5.2,-23 z"
     id="polygon3403"
     data-podium="36"
     inkscape:connector-curvature="0" /><path
     transform="translate(-0.2160229,1.3454758)"
     style="fill:#90acac"
     d="m 1044.3,384.6 -5.1,-23.3 29.9551,-0.0536 4.7696,22.29289 L 1048.2,383.8 Z"
     id="polygon3405"
     data-podium="35"
     inkscape:connector-curvature="0"
     sodipodi:nodetypes="cccccc" /><path
     style="fill:#90acac"
     id="path3407"
     d="m 1000.984,362.64548 h 36.9 l 4.8,23.7 c 0,0 -3.7,0.2 -8.1,2.1 -4.4,2 -7.7,4.8 -7.7,4.8 l -27.90002,-25.1 c -2.3,-1.9 -0.9,-5.5 2.00002,-5.5 z"
     class="st0"
     inkscape:connector-curvature="0"
     data-podium="34" /><path
     style="fill:#90acac"
     id="path3409"
     d="m 688.98398,288.34548 h 27.8 c 1.4,0 2.6,1.1 2.7,2.6 l 1.3,25.5 c 0.1,1.6 -1.2,2.9 -2.7,2.9 h -28 c -1.4,0 -2.6,-1.1 -2.7,-2.6 l -1.2,-25.5 c 0,-1.6 1.2,-2.9 2.8,-2.9 z"
     class="st0"
     inkscape:connector-curvature="0"
     data-podium="11" /><path
     style="fill:#90acac"
     id="path3411"
     d="m 728.18398,288.74548 h 29.6 c 1.6,0 2.9,1.2 3.1,2.8 l 1.9,24.4 c 0.1,1.8 -1.3,3.3 -3.1,3.3 h -30 c -1.6,0 -3,-1.3 -3.1,-2.9 l -1.6,-24.4 c 0,-1.7 1.4,-3.2 3.2,-3.2 z"
     class="st0"
     inkscape:connector-curvature="0"
     data-podium="12" /><path
     style="fill:#90acac"
     id="path3413"
     d="m 768.88398,289.14548 h 30.4 c 1.5,0 2.7,1.1 2.8,2.6 l 0.55,10.55 -36.1,0.5 -0.45,-10.55 c -0.2,-1.6 1.1,-3.1 2.8,-3.1 z"
     class="st0"
     inkscape:connector-curvature="0"
     data-podium="13"
     sodipodi:nodetypes="ssccccs" /><path
     style="fill:#90acac"
     id="path3415"
     d="m 809.28398,289.14548 h 20.2 c 1.4,0 2.6,1 2.7,2.4 l 2.8,25 c 0.2,1.6 -1.1,3 -2.7,3 h -20.5 c -1.4,0 -2.6,-1.1 -2.7,-2.5 l -2.5,-25 c -0.2,-1.5 1.1,-2.9 2.7,-2.9 z"
     class="st0"
     inkscape:connector-curvature="0"
     data-podium="14" /><path
     style="fill:#90acac"
     id="path3417"
     d="m 840.88398,288.74548 h 5.8 c 1.9,0 3.6,0.7 5,2 l 21.5,19.9 c 3.9,3.6 1.3,10 -3.9,10 h -25.1 c -1.8,0 -3.3,-1.4 -3.5,-3.2 l -2.8,-25.2 c -0.3,-1.9 1.1,-3.5 3,-3.5 z"
     class="st0"
     inkscape:connector-curvature="0"
     data-podium="15" /><path
     style="fill:#90acac"
     id="path3419"
     d="m 872.75898,326.72048 13.025,-0.375 c 3.59851,-0.1036 6.7,2.6 7.3,6.1 0.7,3.7 1.6,8.2 2.5,11.4 1,3.4 2.8,7.6 4.3,10.6 0.9,2 -0.50037,4.25859 -2.8,4.3 l -20.825,0.375 c -1.99968,0.036 -3.6,-1.5 -3.9,-3.4 l -3,-25.3 c -0.2,-2 1.40083,-3.64244 3.4,-3.7 z"
     class="st0"
     inkscape:connector-curvature="0"
     data-podium="9"
     sodipodi:nodetypes="sscccssccs" /><path
     style="fill:#90acac"
     id="path3421"
     d="m 814.28398,325.84548 18.8,0.4 c 1.8,0 3.2,1.4 3.4,3.1 l 2.8,25.5 c 0.2,2.1 -1.4,3.9 -3.5,3.9 h -19 c -1.8,0 -3.3,-1.4 -3.5,-3.1 l -2.6,-25.9 c -0.2,-2.1 1.5,-3.9 3.6,-3.9 z"
     class="st0"
     inkscape:connector-curvature="0"
     data-podium="8" /><path
     style="fill:#90acac"
     id="path3423"
     d="m 759.28398,325.84548 h 42.9 c 2.3,0 4.2,1.7 4.5,4 l 2.5,25.1 c 0.2,2 -1.4,3.8 -3.4,3.8 h -15.6 l -2.3,-25.2 -28,-0.7 -0.6,-7 z"
     class="st0"
     inkscape:connector-curvature="0"
     data-podium="7" /><path
     style="fill:#90acac"
     id="path3425"
     d="m 758.18398,325.84548 2.8,33 h -27.3 c -2.7,0 -4.9,-2.1 -5,-4.8 l -1.1,-25.6 c -0.1,-1.4 1.1,-2.6 2.5,-2.6 h 28.1 z"
     class="st0"
     inkscape:connector-curvature="0"
     data-podium="6" /><path
     style="fill:#90acac"
     id="path3427"
     d="m 721.68398,328.84548 1.4,26.5 c 0.1,1.9 -1.4,3.4 -3.3,3.4 h -27.4 c -1.8,0 -3.2,-1.4 -3.3,-3.2 l -0.8,-26.5 c -0.1,-1.8 1.4,-3.4 3.3,-3.4 h 26.8 c 1.7,0.2 3.2,1.5 3.3,3.2 z"
     class="st0"
     inkscape:connector-curvature="0"
     data-podium="5" /><path
     style="fill:#90acac"
     id="path3429"
     d="m 794.58398,222.24548 37.7,0 6.4,5.7 c 1.1,1 2.075,4.2 1.075,5.3 l -15.975,15.5 c -1.7,1.9 -4.6,2 -6.4,0.3 l -24.5,-22.4 c -1.7,-1.6 -0.6,-4.4 1.7,-4.4 z"
     class="st0"
     inkscape:connector-curvature="0"
     data-podium="23"
     sodipodi:nodetypes="sccccccs" /><path
     style="fill:#90acac"
     id="path3431"
     d="m 854.68398,222.24548 h 32.2 c 2.4,0 3.7,2.8 2.2,4.6 l -14.7,18.1 c -1.1,1.3 -3,1.5 -4.3,0.3 l -18,-16.3 c -2.6,-2.4 -0.9,-6.7 2.6,-6.7 z"
     class="st0"
     inkscape:connector-curvature="0"
     data-podium="60" /><path
     style="fill:#90acac"
     id="path3433"
     d="m 909.58398,222.24548 h 22.5 c 1.6,0 2.6,1.9 1.5,3.2 l -8.5,10.6 c -1,1.2 -2.8,1.4 -4,0.3 l -12.6,-11.2 c -1.1,-1 -0.4,-2.9 1.1,-2.9 z"
     class="st0"
     inkscape:connector-curvature="0"
     data-podium="61" /><path
     style="fill:#90acac"
     id="path3435"
     d="m 950.88398,222.24548 h 22.4 c 1.9,0 2.9,2.2 1.8,3.7 l -8.5,10.6 c -0.8,1 -2.2,1.1 -3.1,0.3 l -13.5,-12 c -1.1,-0.9 -0.4,-2.6 0.9,-2.6 z"
     class="st0"
     inkscape:connector-curvature="0"
     data-podium="62" /><path
     style="fill:#90acac"
     id="path3437"
     d="m 903.28398,226.34548 15.1,12.9 c 1.3,1.1 1.4,3 0.3,4.3 l -18.1,21.1 c -1.5,1.8 -4.2,2 -5.9,0.5 l -14.8,-12.7 c -1.7,-1.5 -1.9,-4.1 -0.4,-5.7 l 18,-19.9 c 1.6,-1.7 4.1,-1.9 5.8,-0.5 z"
     class="st0"
     inkscape:connector-curvature="0"
     data-podium="56" /><path
     style="fill:#90acac"
     id="path3439"
     d="m 929.58398,248.34548 13.6,11.7 c 1.2,1.1 1.4,2.9 0.3,4.1 l -17.4,20.4 c -1.9,2.3 -5.3,2.5 -7.5,0.5 l -13.4,-12 c -1.2,-1.1 -1.3,-2.9 -0.3,-4.1 l 16.7,-20.1 c 2,-2.3 5.6,-2.6 8,-0.5 z"
     class="st0"
     inkscape:connector-curvature="0"
     data-podium="52" /><path
     style="fill:#90acac"
     id="path3441"
     d="m 947.43398,304.99548 4.325,-10.575 6.2875,2.8375 9.5375,-12.9125 c 1.1,-1.5 0.9,-3.6 -0.5,-4.8 l -14.4,-12.1 c -2,-1.7 -4.9,-1.3 -6.5,0.7 l -16.4,21.9 c -1.3,1.7 -0.9,4.2 0.9,5.4 l 2.2,1.6 c 0,0 8,3.9 10.8,6.1 2.9,2.3 3.75,1.85 3.75,1.85 z"
     class="st0"
     inkscape:connector-curvature="0"
     data-podium="47"
     sodipodi:nodetypes="cccccccccccc" /><path
     style="fill:#90acac"
     id="path3443"
     d="m 975.18398,285.84548 20.1,17.6 -24,30.2 c 0,0 -2.6,-7.2 -6.5,-12.7 -1.95,-2.75 -5.775,-5.55625 -5.4875,-6.8 0.84658,-3.66236 2.1875,-10.925 2.1875,-10.925 z"
     class="st0"
     inkscape:connector-curvature="0"
     data-podium="44"
     sodipodi:nodetypes="cccsscc" /><path
     style="fill:#90acac"
     id="path3445"
     d="m 990.68398,225.04548 13.10002,10.5 c 1.3,1 1.5,2.8 0.5,4.1 l -11.60002,14.8 c -1.8,2.3 -5.2,2.7 -7.4,0.8 l -13.9,-11.8 c -1.2,-1 -1.4,-2.9 -0.4,-4.1 l 10.7,-13.3 c 2.2,-2.8 6.3,-3.3 9,-1 z"
     class="st0"
     inkscape:connector-curvature="0"
     data-podium="58" /><path
     style="fill:#90acac"
     id="path3447"
     d="m 970.28398,247.54548 13.8,11.1 c 1.6,1.3 1.9,3.6 0.6,5.2 l -8.8,11.2 c -2,2.5 -5.7,2.9 -8.1,0.8 l -12.9,-11 c -1.5,-1.3 -1.8,-3.6 -0.5,-5.2 l 9.3,-11.5 c 1.6,-1.9 4.6,-2.2 6.6,-0.6 z"
     class="st0"
     inkscape:connector-curvature="0"
     data-podium="53" /><path
     style="fill:#90acac"
     id="path3449"
     d="m 947.68398,228.34548 12.2,9.8 c 1.7,1.4 2,3.8 0.6,5.5 l -9.3,11.7 c -1.7,2.1 -4.8,2.4 -6.8,0.7 l -13.5,-11.4 c -1.6,-1.4 -1.9,-3.8 -0.5,-5.5 l 8,-9.8 c 2.3,-2.9 6.5,-3.3 9.3,-1 z"
     class="st0"
     inkscape:connector-curvature="0"
     data-podium="57" /><path
     style="fill:#90acac"
     id="path3451"
     d="m 1014.384,244.64548 13.6,10.8 c 1.7,1.4 2,3.9 0.7,5.6 l -11.8,15 c -1.4,1.8 -4,2 -5.7,0.6 l -14.80002,-12.3 c -1.7,-1.4 -1.9,-3.9 -0.6,-5.6 l 10.60002,-13.2 c 2.1,-2.5 5.6,-2.8 8,-0.9 z"
     class="st0"
     inkscape:connector-curvature="0"
     data-podium="54" /><path
     style="fill:#90acac"
     id="path3453"
     d="m 995.38398,268.24548 13.20002,10.5 c 1.9,1.5 2.2,4.2 0.7,6.1 l -9.60002,12.2 c -1.5,1.9 -4.3,2.2 -6.2,0.7 l -14.2,-11.8 c -1.8,-1.5 -2.1,-4.3 -0.6,-6.1 l 8.6,-10.7 c 2,-2.5 5.6,-2.9 8.1,-0.9 z"
     class="st0"
     inkscape:connector-curvature="0"
     data-podium="48" /><path
     style="fill:#90acac"
     id="path3455"
     d="m 1039.584,265.14548 14.5,11.5 c 1.1,0.9 1.3,2.5 0.5,3.7 l -12,16.2 c -1.6,2.1 -4.6,2.5 -6.7,0.8 l -15.5,-12.9 c -1.4,-1.1 -1.6,-3.2 -0.4,-4.5 l 11.3,-13.9 c 2.1,-2.5 5.7,-2.9 8.3,-0.9 z"
     class="st0"
     inkscape:connector-curvature="0"
     data-podium="49" /><path
     style="fill:#90acac"
     id="path3457"
     d="m 1018.984,288.24548 15.2,12 c 1.6,1.3 1.9,3.6 0.8,5.2 l -8.5,12.2 c -1.8,2.5 -5.3,3 -7.6,1 l -14.4,-12 c -1.6,-1.3 -1.9,-3.7 -0.6,-5.3 l 9.8,-12.5 c 1.2,-1.6 3.6,-1.9 5.3,-0.6 z"
     class="st0"
     inkscape:connector-curvature="0"
     data-podium="45" /><path
     style="fill:#90acac"
     id="path3459"
     d="m 1064.384,284.94548 12.9,10.3 c 2.1,1.7 2.5,4.8 0.9,7 l -10.3,13.9 c -1.7,2.4 -5.1,2.8 -7.4,0.9 l -13.3,-11.1 c -2.1,-1.8 -2.4,-4.9 -0.7,-7.1 l 10.6,-13.1 c 2,-2.2 5.1,-2.5 7.3,-0.8 z"
     class="st0"
     inkscape:connector-curvature="0"
     data-podium="46" /><path
     style="fill:#90acac"
     id="path3461"
     d="m 1044.684,308.74548 14.3,11.3 c 1.6,1.3 1.9,3.6 0.7,5.2 l -8.9,12.5 c -1.7,2.4 -5.1,2.8 -7.4,0.9 l -13.6,-11.3 c -1.6,-1.3 -1.8,-3.7 -0.5,-5.3 l 10,-12.6 c 1.3,-1.8 3.8,-2 5.4,-0.7 z"
     class="st0"
     inkscape:connector-curvature="0"
     data-podium="42" /><path
     style="fill:#90acac"
     id="path3463"
     d="m 1088.784,304.24548 16.7,13.5 c 1.5,1.3 1.8,3.5 0.7,5.1 l -12,16.2 c -1.3,1.7 -3.7,2 -5.3,0.7 l -17,-13.8 c -1.6,-1.3 -1.8,-3.6 -0.6,-5.2 l 12.3,-15.9 c 1.2,-1.6 3.5,-1.9 5.2,-0.6 z"
     class="st0"
     inkscape:connector-curvature="0"
     data-podium="43" /><path
     style="fill:#90acac"
     id="path3465"
     d="m 1002.484,309.64548 15.3,12.8 c 1.7,1.4 1.9,3.9 0.6,5.6 l -21.70002,27 c -1.4,1.8 -4,2 -5.7,0.6 l -15.5,-13.3 c -1.7,-1.4 -1.9,-3.9 -0.5,-5.6 l 21.9,-26.5 c 1.4,-1.8 3.90002,-2 5.60002,-0.6 z"
     class="st0"
     inkscape:connector-curvature="0"
     data-podium="39" /><path
     style="fill:#90acac"
     id="path3467"
     d="m 1027.284,330.74548 15.6,12.4 c 1.2,1 1.4,2.7 0.5,4 l -2,2.7 c -0.7,0.9 -1.8,1.5 -3,1.4 l -23.8,-0.5 c -2.1,0 -3.3,-2.4 -2.1,-4.2 l 10.3,-15.1 c 1,-1.6 3.1,-1.9 4.5,-0.7 z"
     class="st0"
     inkscape:connector-curvature="0"
     data-podium="40" /><path
     style="fill:#90acac"
     id="path3469"
     d="m 1069.184,327.64548 22.6,19.5 c 1.6,1.4 0.6,4.1 -1.5,4.1 h -35.6 c -2.5,0 -3.9,-2.8 -2.5,-4.8 l 12.9,-18.3 c 0.9,-1.3 2.9,-1.6 4.1,-0.5 z"
     class="st0"
     inkscape:connector-curvature="0"
     data-podium="41" /><path
     style="fill:#90acac"
     id="path3471"
     d="m 961.98398,338.14548 -6.5,-0.8 c 0,0 -1.8,-14.9 -16.1,-18.8 -15.7,-4.3 -22,2.1 -21.4,1.4 0,0 0.2,-2.2 -0.6,-3.3 -0.8,-1.1 -1.9,-2.2 -1.9,-2.2 l 7,-2.1 1.8,1.1 2.9,-1.8 c 0,0 15.3,0.2 23.6,6.7 12.4,9.8 11.2,19.8 11.2,19.8 z"
     class="st0"
     inkscape:connector-curvature="0"
     data-podium="33" /><path
     style="fill:#90acac"
     id="path3473"
     d="m 912.48398,324.84548 c 0,0 -4.1,9.4 3,18.3 7.1,8.9 19.1,9.1 19.1,9.1 l 0.7,5.2 c 0,0 -18.9,-1.9 -27.3,-14.3 -6.4,-9.5 -2.2,-18.9 -2.2,-18.8 l 3.8,3 2.9,-2.5 z"
     class="st0"
     inkscape:connector-curvature="0"
     data-podium="33" /><path
     style="fill:#90acac"
     id="path3421-1"
     d="m 845.34599,326.84774 18.8,0.4 c 1.8,0 3.2,1.4 3.4,3.1 l 2.8,25.5 c 0.2,2.1 -1.4,3.9 -3.5,3.9 h -19 c -1.8,0 -3.3,-1.4 -3.5,-3.1 l -2.6,-25.9 c -0.2,-2.1 1.5,-3.9 3.6,-3.9 z"
     class="st0"
     inkscape:connector-curvature="0"
     data-podium="31" /><path
     style="fill:#90acac"
     id="path3469-7"
     d="m 1116.5602,328.35258 15.4405,19.94194 c 1.6,1.4 0.5998,4.13263 -1.5,4.1 l -28.4405,-0.44194 c -2.4997,-0.0388 -3.9,-2.8 -2.5,-4.8 l 12.9,-18.3 c 0.9,-1.3 2.9,-1.6 4.1,-0.5 z"
     class="st0"
     inkscape:connector-curvature="0"
     data-podium="70"
     sodipodi:nodetypes="ccssccc" /><path
     style="fill:#90acac"
     id="path3343-4"
     d="m 741.32766,248.15798 14.4375,0.125 c 1.19996,0.0104 2.3,-1 2.4,-2.2 l -2.35,-21.075 c 0.1,-1.4 -1.0003,-2.5291 -2.4,-2.5 l -13.775,0 z"
     class="st0"
     inkscape:connector-curvature="0"
     data-podium="32"
     sodipodi:nodetypes="csccscc" /><path
     style="fill:#90acac;stroke:none"
     d="m 650.71502,292.82268 c 3.93328,-0.13259 8.18521,2.76967 8.22011,7.02688 0.0442,5.39169 -5.92201,7.11526 -9.10399,6.76171 -3.18198,-0.35356 -8.4085,-2.10246 -7.86657,-7.73398 0.42868,-4.4547 4.81717,-5.92202 8.75045,-6.05461 z"
     id="path4788"
     inkscape:connector-curvature="0"
     sodipodi:nodetypes="zsssz"
     data-podium="68" /><path
     style="fill:#90acac;stroke:none"
     d="m 998.258,375.99612 2.1213,-2.47487 -23.68806,-20.15254 -2.82842,2.12132 z"
     id="path4790"
     inkscape:connector-curvature="0"
     data-podium="71" /><path
     style="fill:#90acac;stroke:none"
     d="m 972.62539,398.26998 2.1213,-2.47487 -23.68806,-20.15254 -2.82842,2.12132 z"
     id="path4790-7"
     inkscape:connector-curvature="0"
     data-podium="69" /><path
     style="fill:#90acac"
     d="m 733.97684,365.38952 79.01918,1.06065 2.2981,20.50611 -79.90307,-0.17678 z"
     id="path4564"
     inkscape:connector-curvature="0"
     data-podium="72"
     sodipodi:nodetypes="ccccc" /><path
     style="fill:#90acac;stroke:none;stroke-width:1px;stroke-linecap:butt;stroke-linejoin:miter;stroke-opacity:1"
     d="m 815.47087,367.33407 67.13096,0.35356 2.34229,19.93157 -67.69237,-0.57372 z"
     id="path4572"
     inkscape:connector-curvature="0"
     sodipodi:nodetypes="ccccc"
     data-podium="73" /><path
     style="fill:none;stroke:#000000;stroke-width:1px;stroke-linecap:butt;stroke-linejoin:miter;stroke-opacity:1"
     d="m 1071.6203,363.09144 26.1325,0.10404 4.7625,21 -25.9453,0.10916 z"
     id="path5264"
     inkscape:connector-curvature="0"
     sodipodi:nodetypes="ccccc"
     data-podium="75" /><path
     style="fill:none;stroke:#000000;stroke-width:1px;stroke-linecap:butt;stroke-linejoin:miter;stroke-opacity:1"
     d="m 795.05315,200.14753 20.63868,0.17677 0.97227,8.83884 c 0,0 0.48613,3.35875 -1.76777,4.37522 -2.2539,1.01647 -18.87091,0.53033 -18.87091,0.53033 z"
     id="path5266"
     inkscape:connector-curvature="0"
     data-podium="76" /><path
     style="fill:none;stroke:#000000;stroke-width:1px;stroke-linecap:butt;stroke-linejoin:miter;stroke-opacity:1"
     d="m 768.12496,305.12502 34.5,-0.125 1.625,12.25 -1.125,1.75 -32.625,-0.25 -1.75,-1.25 z"
     id="path5268"
     inkscape:connector-curvature="0"
     data-podium="77" /><path
     style="fill:#90acac"
     d="m 948.68741,207.06254 12.1875,-0.0625 1.5,7.1875 -12.25,0.1875 z"
     id="path4575"
     inkscape:connector-curvature="0"
     data-podium="67" /></svg>